  0
SECTION
  2
BLOCKS
  0
ENDSEC
  0
SECTION
  2
ENTITIES
  0
LINE
  8
0
 10
-7
 20
0
 11
-6.98619
 21
-0.439533
  0
LINE
  8
0
 10
-6.98619
 20
-0.439533
 11
-6.9448
 21
-0.877332
  0
LINE
  8
0
 10
-6.9448
 20
-0.877332
 11
-6.87601
 21
-1.31167
  0
LINE
  8
0
 10
-6.87601
 20
-1.31167
 11
-6.78008
 21
-1.74083
  0
LINE
  8
0
 10
-6.78008
 20
-1.74083
 11
-6.6574
 21
-2.16312
  0
LINE
  8
0
 10
-6.6574
 20
-2.16312
 11
-6.50844
 21
-2.57687
  0
LINE
  8
0
 10
-6.50844
 20
-2.57687
 11
-6.33379
 21
-2.98045
  0
LINE
  8
0
 10
-6.33379
 20
-2.98045
 11
-6.13415
 21
-3.37228
  0
LINE
  8
0
 10
-6.13415
 20
-3.37228
 11
-5.91029
 21
-3.75079
  0
LINE
  8
0
 10
-5.91029
 20
-3.75079
 11
-5.66312
 21
-4.1145
  0
LINE
  8
0
 10
-5.66312
 20
-4.1145
 11
-5.39359
 21
-4.46197
  0
LINE
  8
0
 10
-5.39359
 20
-4.46197
 11
-5.10278
 21
-4.79183
  0
LINE
  8
0
 10
-5.10278
 20
-4.79183
 11
-4.79183
 21
-5.10278
  0
LINE
  8
0
 10
-4.79183
 20
-5.10278
 11
-4.46197
 21
-5.39359
  0
LINE
  8
0
 10
-4.46197
 20
-5.39359
 11
-4.1145
 21
-5.66312
  0
LINE
  8
0
 10
-4.1145
 20
-5.66312
 11
-3.75079
 21
-5.91029
  0
LINE
  8
0
 10
-3.75079
 20
-5.91029
 11
12.3193
 21
-16.0422
  0
LINE
  8
0
 10
12.3193
 20
-16.0422
 11
13.3467
 21
-16.6498
  0
LINE
  8
0
 10
13.3467
 20
-16.6498
 11
14.4102
 21
-17.1917
  0
LINE
  8
0
 10
14.4102
 20
-17.1917
 11
15.5056
 21
-17.6658
  0
LINE
  8
0
 10
15.5056
 20
-17.6658
 11
16.6287
 21
-18.0701
  0
LINE
  8
0
 10
16.6287
 20
-18.0701
 11
17.7749
 21
-18.4031
  0
LINE
  8
0
 10
17.7749
 20
-18.4031
 11
18.9398
 21
-18.6635
  0
LINE
  8
0
 10
18.9398
 20
-18.6635
 11
20.1187
 21
-18.8502
  0
LINE
  8
0
 10
20.1187
 20
-18.8502
 11
21.307
 21
-18.9625
  0
LINE
  8
0
 10
21.307
 20
-18.9625
 11
22.5
 21
-19
  0
LINE
  8
0
 10
22.5
 20
-19
 11
23.693
 21
-18.9625
  0
LINE
  8
0
 10
23.693
 20
-18.9625
 11
24.8813
 21
-18.8502
  0
LINE
  8
0
 10
24.8813
 20
-18.8502
 11
26.0602
 21
-18.6635
  0
LINE
  8
0
 10
26.0602
 20
-18.6635
 11
27.2251
 21
-18.4031
  0
LINE
  8
0
 10
27.2251
 20
-18.4031
 11
28.3713
 21
-18.0701
  0
LINE
  8
0
 10
28.3713
 20
-18.0701
 11
29.4944
 21
-17.6658
  0
LINE
  8
0
 10
29.4944
 20
-17.6658
 11
30.5898
 21
-17.1917
  0
LINE
  8
0
 10
30.5898
 20
-17.1917
 11
31.6533
 21
-16.6498
  0
LINE
  8
0
 10
31.6533
 20
-16.6498
 11
32.6807
 21
-16.0422
  0
LINE
  8
0
 10
32.6807
 20
-16.0422
 11
48.7508
 21
-5.91029
  0
LINE
  8
0
 10
48.7508
 20
-5.91029
 11
49.1145
 21
-5.66312
  0
LINE
  8
0
 10
49.1145
 20
-5.66312
 11
49.462
 21
-5.39359
  0
LINE
  8
0
 10
49.462
 20
-5.39359
 11
49.7918
 21
-5.10278
  0
LINE
  8
0
 10
49.7918
 20
-5.10278
 11
50.1028
 21
-4.79183
  0
LINE
  8
0
 10
50.1028
 20
-4.79183
 11
50.3936
 21
-4.46197
  0
LINE
  8
0
 10
50.3936
 20
-4.46197
 11
50.6631
 21
-4.1145
  0
LINE
  8
0
 10
50.6631
 20
-4.1145
 11
50.9103
 21
-3.75079
  0
LINE
  8
0
 10
50.9103
 20
-3.75079
 11
51.1341
 21
-3.37228
  0
LINE
  8
0
 10
51.1341
 20
-3.37228
 11
51.3338
 21
-2.98045
  0
LINE
  8
0
 10
51.3338
 20
-2.98045
 11
51.5084
 21
-2.57687
  0
LINE
  8
0
 10
51.5084
 20
-2.57687
 11
51.6574
 21
-2.16312
  0
LINE
  8
0
 10
51.6574
 20
-2.16312
 11
51.7801
 21
-1.74083
  0
LINE
  8
0
 10
51.7801
 20
-1.74083
 11
51.876
 21
-1.31167
  0
LINE
  8
0
 10
51.876
 20
-1.31167
 11
51.9448
 21
-0.877332
  0
LINE
  8
0
 10
51.9448
 20
-0.877332
 11
51.9862
 21
-0.439533
  0
LINE
  8
0
 10
51.9862
 20
-0.439533
 11
52
 21
0
  0
LINE
  8
0
 10
52
 20
0
 11
51.9862
 21
0.439533
  0
LINE
  8
0
 10
51.9862
 20
0.439533
 11
51.9448
 21
0.877332
  0
LINE
  8
0
 10
51.9448
 20
0.877332
 11
51.876
 21
1.31167
  0
LINE
  8
0
 10
51.876
 20
1.31167
 11
51.7801
 21
1.74083
  0
LINE
  8
0
 10
51.7801
 20
1.74083
 11
51.6574
 21
2.16312
  0
LINE
  8
0
 10
51.6574
 20
2.16312
 11
51.5084
 21
2.57687
  0
LINE
  8
0
 10
51.5084
 20
2.57687
 11
51.3338
 21
2.98045
  0
LINE
  8
0
 10
51.3338
 20
2.98045
 11
51.1341
 21
3.37228
  0
LINE
  8
0
 10
51.1341
 20
3.37228
 11
50.9103
 21
3.75079
  0
LINE
  8
0
 10
50.9103
 20
3.75079
 11
50.6631
 21
4.1145
  0
LINE
  8
0
 10
50.6631
 20
4.1145
 11
50.3936
 21
4.46197
  0
LINE
  8
0
 10
50.3936
 20
4.46197
 11
50.1028
 21
4.79183
  0
LINE
  8
0
 10
50.1028
 20
4.79183
 11
49.7918
 21
5.10278
  0
LINE
  8
0
 10
49.7918
 20
5.10278
 11
49.462
 21
5.39359
  0
LINE
  8
0
 10
49.462
 20
5.39359
 11
49.1145
 21
5.66312
  0
LINE
  8
0
 10
49.1145
 20
5.66312
 11
48.7508
 21
5.91029
  0
LINE
  8
0
 10
48.7508
 20
5.91029
 11
32.6807
 21
16.0422
  0
LINE
  8
0
 10
32.6807
 20
16.0422
 11
31.6533
 21
16.6498
  0
LINE
  8
0
 10
31.6533
 20
16.6498
 11
30.5898
 21
17.1917
  0
LINE
  8
0
 10
30.5898
 20
17.1917
 11
29.4944
 21
17.6658
  0
LINE
  8
0
 10
29.4944
 20
17.6658
 11
28.3713
 21
18.0701
  0
LINE
  8
0
 10
28.3713
 20
18.0701
 11
27.2251
 21
18.4031
  0
LINE
  8
0
 10
27.2251
 20
18.4031
 11
26.0602
 21
18.6635
  0
LINE
  8
0
 10
26.0602
 20
18.6635
 11
24.8813
 21
18.8502
  0
LINE
  8
0
 10
24.8813
 20
18.8502
 11
23.693
 21
18.9625
  0
LINE
  8
0
 10
23.693
 20
18.9625
 11
22.5
 21
19
  0
LINE
  8
0
 10
22.5
 20
19
 11
21.307
 21
18.9625
  0
LINE
  8
0
 10
21.307
 20
18.9625
 11
20.1187
 21
18.8502
  0
LINE
  8
0
 10
20.1187
 20
18.8502
 11
18.9398
 21
18.6635
  0
LINE
  8
0
 10
18.9398
 20
18.6635
 11
17.7749
 21
18.4031
  0
LINE
  8
0
 10
17.7749
 20
18.4031
 11
16.6287
 21
18.0701
  0
LINE
  8
0
 10
16.6287
 20
18.0701
 11
15.5056
 21
17.6658
  0
LINE
  8
0
 10
15.5056
 20
17.6658
 11
14.4102
 21
17.1917
  0
LINE
  8
0
 10
14.4102
 20
17.1917
 11
13.3467
 21
16.6498
  0
LINE
  8
0
 10
13.3467
 20
16.6498
 11
12.3193
 21
16.0422
  0
LINE
  8
0
 10
12.3193
 20
16.0422
 11
-3.75079
 21
5.91029
  0
LINE
  8
0
 10
-3.75079
 20
5.91029
 11
-4.1145
 21
5.66312
  0
LINE
  8
0
 10
-4.1145
 20
5.66312
 11
-4.46197
 21
5.39359
  0
LINE
  8
0
 10
-4.46197
 20
5.39359
 11
-4.79183
 21
5.10278
  0
LINE
  8
0
 10
-4.79183
 20
5.10278
 11
-5.10278
 21
4.79183
  0
LINE
  8
0
 10
-5.10278
 20
4.79183
 11
-5.39359
 21
4.46197
  0
LINE
  8
0
 10
-5.39359
 20
4.46197
 11
-5.66312
 21
4.1145
  0
LINE
  8
0
 10
-5.66312
 20
4.1145
 11
-5.91029
 21
3.75079
  0
LINE
  8
0
 10
-5.91029
 20
3.75079
 11
-6.13415
 21
3.37228
  0
LINE
  8
0
 10
-6.13415
 20
3.37228
 11
-6.33379
 21
2.98045
  0
LINE
  8
0
 10
-6.33379
 20
2.98045
 11
-6.50844
 21
2.57687
  0
LINE
  8
0
 10
-6.50844
 20
2.57687
 11
-6.6574
 21
2.16312
  0
LINE
  8
0
 10
-6.6574
 20
2.16312
 11
-6.78008
 21
1.74083
  0
LINE
  8
0
 10
-6.78008
 20
1.74083
 11
-6.87601
 21
1.31167
  0
LINE
  8
0
 10
-6.87601
 20
1.31167
 11
-6.9448
 21
0.877332
  0
LINE
  8
0
 10
-6.9448
 20
0.877332
 11
-6.98619
 21
0.439533
  0
LINE
  8
0
 10
-6.98619
 20
0.439533
 11
-7
 21
0
  0
LINE
  8
0
 10
-3
 20
0
 11
-2.99408
 21
0.188371
  0
LINE
  8
0
 10
-2.99408
 20
0.188371
 11
-2.97634
 21
0.375999
  0
LINE
  8
0
 10
-2.97634
 20
0.375999
 11
-2.94686
 21
0.562143
  0
LINE
  8
0
 10
-2.94686
 20
0.562143
 11
-2.90575
 21
0.746069
  0
LINE
  8
0
 10
-2.90575
 20
0.746069
 11
-2.85317
 21
0.927051
  0
LINE
  8
0
 10
-2.85317
 20
0.927051
 11
-2.78933
 21
1.10437
  0
LINE
  8
0
 10
-2.78933
 20
1.10437
 11
-2.71448
 21
1.27734
  0
LINE
  8
0
 10
-2.71448
 20
1.27734
 11
-2.62892
 21
1.44526
  0
LINE
  8
0
 10
-2.62892
 20
1.44526
 11
-2.53298
 21
1.60748
  0
LINE
  8
0
 10
-2.53298
 20
1.60748
 11
-2.42705
 21
1.76336
  0
LINE
  8
0
 10
-2.42705
 20
1.76336
 11
-2.31154
 21
1.91227
  0
LINE
  8
0
 10
-2.31154
 20
1.91227
 11
-2.18691
 21
2.05364
  0
LINE
  8
0
 10
-2.18691
 20
2.05364
 11
-2.05364
 21
2.18691
  0
LINE
  8
0
 10
-2.05364
 20
2.18691
 11
-1.91227
 21
2.31154
  0
LINE
  8
0
 10
-1.91227
 20
2.31154
 11
-1.76336
 21
2.42705
  0
LINE
  8
0
 10
-1.76336
 20
2.42705
 11
-1.60748
 21
2.53298
  0
LINE
  8
0
 10
-1.60748
 20
2.53298
 11
-1.44526
 21
2.62892
  0
LINE
  8
0
 10
-1.44526
 20
2.62892
 11
-1.27734
 21
2.71448
  0
LINE
  8
0
 10
-1.27734
 20
2.71448
 11
-1.10437
 21
2.78933
  0
LINE
  8
0
 10
-1.10437
 20
2.78933
 11
-0.927051
 21
2.85317
  0
LINE
  8
0
 10
-0.927051
 20
2.85317
 11
-0.746069
 21
2.90575
  0
LINE
  8
0
 10
-0.746069
 20
2.90575
 11
-0.562143
 21
2.94686
  0
LINE
  8
0
 10
-0.562143
 20
2.94686
 11
-0.375999
 21
2.97634
  0
LINE
  8
0
 10
-0.375999
 20
2.97634
 11
-0.188371
 21
2.99408
  0
LINE
  8
0
 10
-0.188371
 20
2.99408
 11
0
 21
3
  0
LINE
  8
0
 10
0
 20
3
 11
0.188371
 21
2.99408
  0
LINE
  8
0
 10
0.188371
 20
2.99408
 11
0.375999
 21
2.97634
  0
LINE
  8
0
 10
0.375999
 20
2.97634
 11
0.562143
 21
2.94686
  0
LINE
  8
0
 10
0.562143
 20
2.94686
 11
0.746069
 21
2.90575
  0
LINE
  8
0
 10
0.746069
 20
2.90575
 11
0.927051
 21
2.85317
  0
LINE
  8
0
 10
0.927051
 20
2.85317
 11
1.10437
 21
2.78933
  0
LINE
  8
0
 10
1.10437
 20
2.78933
 11
1.27734
 21
2.71448
  0
LINE
  8
0
 10
1.27734
 20
2.71448
 11
1.44526
 21
2.62892
  0
LINE
  8
0
 10
1.44526
 20
2.62892
 11
1.60748
 21
2.53298
  0
LINE
  8
0
 10
1.60748
 20
2.53298
 11
1.76336
 21
2.42705
  0
LINE
  8
0
 10
1.76336
 20
2.42705
 11
1.91227
 21
2.31154
  0
LINE
  8
0
 10
1.91227
 20
2.31154
 11
2.05364
 21
2.18691
  0
LINE
  8
0
 10
2.05364
 20
2.18691
 11
2.18691
 21
2.05364
  0
LINE
  8
0
 10
2.18691
 20
2.05364
 11
2.31154
 21
1.91227
  0
LINE
  8
0
 10
2.31154
 20
1.91227
 11
2.42705
 21
1.76336
  0
LINE
  8
0
 10
2.42705
 20
1.76336
 11
2.53298
 21
1.60748
  0
LINE
  8
0
 10
2.53298
 20
1.60748
 11
2.62892
 21
1.44526
  0
LINE
  8
0
 10
2.62892
 20
1.44526
 11
2.71448
 21
1.27734
  0
LINE
  8
0
 10
2.71448
 20
1.27734
 11
2.78933
 21
1.10437
  0
LINE
  8
0
 10
2.78933
 20
1.10437
 11
2.85317
 21
0.927051
  0
LINE
  8
0
 10
2.85317
 20
0.927051
 11
2.90575
 21
0.746069
  0
LINE
  8
0
 10
2.90575
 20
0.746069
 11
2.94686
 21
0.562143
  0
LINE
  8
0
 10
2.94686
 20
0.562143
 11
2.97634
 21
0.375999
  0
LINE
  8
0
 10
2.97634
 20
0.375999
 11
2.99408
 21
0.188371
  0
LINE
  8
0
 10
2.99408
 20
0.188371
 11
3
 21
0
  0
LINE
  8
0
 10
3
 20
0
 11
2.99408
 21
-0.188371
  0
LINE
  8
0
 10
2.99408
 20
-0.188371
 11
2.97634
 21
-0.375999
  0
LINE
  8
0
 10
2.97634
 20
-0.375999
 11
2.94686
 21
-0.562143
  0
LINE
  8
0
 10
2.94686
 20
-0.562143
 11
2.90575
 21
-0.746069
  0
LINE
  8
0
 10
2.90575
 20
-0.746069
 11
2.85317
 21
-0.927051
  0
LINE
  8
0
 10
2.85317
 20
-0.927051
 11
2.78933
 21
-1.10437
  0
LINE
  8
0
 10
2.78933
 20
-1.10437
 11
2.71448
 21
-1.27734
  0
LINE
  8
0
 10
2.71448
 20
-1.27734
 11
2.62892
 21
-1.44526
  0
LINE
  8
0
 10
2.62892
 20
-1.44526
 11
2.53298
 21
-1.60748
  0
LINE
  8
0
 10
2.53298
 20
-1.60748
 11
2.42705
 21
-1.76336
  0
LINE
  8
0
 10
2.42705
 20
-1.76336
 11
2.31154
 21
-1.91227
  0
LINE
  8
0
 10
2.31154
 20
-1.91227
 11
2.18691
 21
-2.05364
  0
LINE
  8
0
 10
2.18691
 20
-2.05364
 11
2.05364
 21
-2.18691
  0
LINE
  8
0
 10
2.05364
 20
-2.18691
 11
1.91227
 21
-2.31154
  0
LINE
  8
0
 10
1.91227
 20
-2.31154
 11
1.76336
 21
-2.42705
  0
LINE
  8
0
 10
1.76336
 20
-2.42705
 11
1.60748
 21
-2.53298
  0
LINE
  8
0
 10
1.60748
 20
-2.53298
 11
1.44526
 21
-2.62892
  0
LINE
  8
0
 10
1.44526
 20
-2.62892
 11
1.27734
 21
-2.71448
  0
LINE
  8
0
 10
1.27734
 20
-2.71448
 11
1.10437
 21
-2.78933
  0
LINE
  8
0
 10
1.10437
 20
-2.78933
 11
0.927051
 21
-2.85317
  0
LINE
  8
0
 10
0.927051
 20
-2.85317
 11
0.746069
 21
-2.90575
  0
LINE
  8
0
 10
0.746069
 20
-2.90575
 11
0.562143
 21
-2.94686
  0
LINE
  8
0
 10
0.562143
 20
-2.94686
 11
0.375999
 21
-2.97634
  0
LINE
  8
0
 10
0.375999
 20
-2.97634
 11
0.188371
 21
-2.99408
  0
LINE
  8
0
 10
0.188371
 20
-2.99408
 11
0
 21
-3
  0
LINE
  8
0
 10
0
 20
-3
 11
-0.188371
 21
-2.99408
  0
LINE
  8
0
 10
-0.188371
 20
-2.99408
 11
-0.375999
 21
-2.97634
  0
LINE
  8
0
 10
-0.375999
 20
-2.97634
 11
-0.562143
 21
-2.94686
  0
LINE
  8
0
 10
-0.562143
 20
-2.94686
 11
-0.746069
 21
-2.90575
  0
LINE
  8
0
 10
-0.746069
 20
-2.90575
 11
-0.927051
 21
-2.85317
  0
LINE
  8
0
 10
-0.927051
 20
-2.85317
 11
-1.10437
 21
-2.78933
  0
LINE
  8
0
 10
-1.10437
 20
-2.78933
 11
-1.27734
 21
-2.71448
  0
LINE
  8
0
 10
-1.27734
 20
-2.71448
 11
-1.44526
 21
-2.62892
  0
LINE
  8
0
 10
-1.44526
 20
-2.62892
 11
-1.60748
 21
-2.53298
  0
LINE
  8
0
 10
-1.60748
 20
-2.53298
 11
-1.76336
 21
-2.42705
  0
LINE
  8
0
 10
-1.76336
 20
-2.42705
 11
-1.91227
 21
-2.31154
  0
LINE
  8
0
 10
-1.91227
 20
-2.31154
 11
-2.05364
 21
-2.18691
  0
LINE
  8
0
 10
-2.05364
 20
-2.18691
 11
-2.18691
 21
-2.05364
  0
LINE
  8
0
 10
-2.18691
 20
-2.05364
 11
-2.31154
 21
-1.91227
  0
LINE
  8
0
 10
-2.31154
 20
-1.91227
 11
-2.42705
 21
-1.76336
  0
LINE
  8
0
 10
-2.42705
 20
-1.76336
 11
-2.53298
 21
-1.60748
  0
LINE
  8
0
 10
-2.53298
 20
-1.60748
 11
-2.62892
 21
-1.44526
  0
LINE
  8
0
 10
-2.62892
 20
-1.44526
 11
-2.71448
 21
-1.27734
  0
LINE
  8
0
 10
-2.71448
 20
-1.27734
 11
-2.78933
 21
-1.10437
  0
LINE
  8
0
 10
-2.78933
 20
-1.10437
 11
-2.85317
 21
-0.927051
  0
LINE
  8
0
 10
-2.85317
 20
-0.927051
 11
-2.90575
 21
-0.746069
  0
LINE
  8
0
 10
-2.90575
 20
-0.746069
 11
-2.94686
 21
-0.562143
  0
LINE
  8
0
 10
-2.94686
 20
-0.562143
 11
-2.97634
 21
-0.375999
  0
LINE
  8
0
 10
-2.97634
 20
-0.375999
 11
-2.99408
 21
-0.188371
  0
LINE
  8
0
 10
-2.99408
 20
-0.188371
 11
-3
 21
0
  0
LINE
  8
0
 10
7.9
 20
0
 11
8.21904
 21
3.03551
  0
LINE
  8
0
 10
8.21904
 20
3.03551
 11
9.16224
 21
5.93835
  0
LINE
  8
0
 10
9.16224
 20
5.93835
 11
10.6884
 21
8.58166
  0
LINE
  8
0
 10
10.6884
 20
8.58166
 11
12.7307
 21
10.8499
  0
LINE
  8
0
 10
12.7307
 20
10.8499
 11
15.2
 21
12.644
  0
LINE
  8
0
 10
15.2
 20
12.644
 11
17.9884
 21
13.8854
  0
LINE
  8
0
 10
17.9884
 20
13.8854
 11
20.9739
 21
14.52
  0
LINE
  8
0
 10
20.9739
 20
14.52
 11
24.0261
 21
14.52
  0
LINE
  8
0
 10
24.0261
 20
14.52
 11
27.0116
 21
13.8854
  0
LINE
  8
0
 10
27.0116
 20
13.8854
 11
29.8
 21
12.644
  0
LINE
  8
0
 10
29.8
 20
12.644
 11
32.2693
 21
10.8499
  0
LINE
  8
0
 10
32.2693
 20
10.8499
 11
34.3116
 21
8.58166
  0
LINE
  8
0
 10
34.3116
 20
8.58166
 11
35.8378
 21
5.93835
  0
LINE
  8
0
 10
35.8378
 20
5.93835
 11
36.781
 21
3.03551
  0
LINE
  8
0
 10
36.781
 20
3.03551
 11
37.1
 21
0
  0
LINE
  8
0
 10
37.1
 20
0
 11
36.781
 21
-3.03551
  0
LINE
  8
0
 10
36.781
 20
-3.03551
 11
35.8378
 21
-5.93835
  0
LINE
  8
0
 10
35.8378
 20
-5.93835
 11
34.3116
 21
-8.58166
  0
LINE
  8
0
 10
34.3116
 20
-8.58166
 11
32.2693
 21
-10.8499
  0
LINE
  8
0
 10
32.2693
 20
-10.8499
 11
29.8
 21
-12.644
  0
LINE
  8
0
 10
29.8
 20
-12.644
 11
27.0116
 21
-13.8854
  0
LINE
  8
0
 10
27.0116
 20
-13.8854
 11
24.0261
 21
-14.52
  0
LINE
  8
0
 10
24.0261
 20
-14.52
 11
20.9739
 21
-14.52
  0
LINE
  8
0
 10
20.9739
 20
-14.52
 11
17.9884
 21
-13.8854
  0
LINE
  8
0
 10
17.9884
 20
-13.8854
 11
15.2
 21
-12.644
  0
LINE
  8
0
 10
15.2
 20
-12.644
 11
12.7307
 21
-10.8499
  0
LINE
  8
0
 10
12.7307
 20
-10.8499
 11
10.6884
 21
-8.58166
  0
LINE
  8
0
 10
10.6884
 20
-8.58166
 11
9.16224
 21
-5.93835
  0
LINE
  8
0
 10
9.16224
 20
-5.93835
 11
8.21904
 21
-3.03551
  0
LINE
  8
0
 10
8.21904
 20
-3.03551
 11
7.9
 21
0
  0
LINE
  8
0
 10
42
 20
0
 11
42.0059
 21
0.188371
  0
LINE
  8
0
 10
42.0059
 20
0.188371
 11
42.0237
 21
0.375999
  0
LINE
  8
0
 10
42.0237
 20
0.375999
 11
42.0531
 21
0.562143
  0
LINE
  8
0
 10
42.0531
 20
0.562143
 11
42.0942
 21
0.746069
  0
LINE
  8
0
 10
42.0942
 20
0.746069
 11
42.1468
 21
0.927051
  0
LINE
  8
0
 10
42.1468
 20
0.927051
 11
42.2107
 21
1.10437
  0
LINE
  8
0
 10
42.2107
 20
1.10437
 11
42.2855
 21
1.27734
  0
LINE
  8
0
 10
42.2855
 20
1.27734
 11
42.3711
 21
1.44526
  0
LINE
  8
0
 10
42.3711
 20
1.44526
 11
42.467
 21
1.60748
  0
LINE
  8
0
 10
42.467
 20
1.60748
 11
42.5729
 21
1.76336
  0
LINE
  8
0
 10
42.5729
 20
1.76336
 11
42.6885
 21
1.91227
  0
LINE
  8
0
 10
42.6885
 20
1.91227
 11
42.8131
 21
2.05364
  0
LINE
  8
0
 10
42.8131
 20
2.05364
 11
42.9464
 21
2.18691
  0
LINE
  8
0
 10
42.9464
 20
2.18691
 11
43.0877
 21
2.31154
  0
LINE
  8
0
 10
43.0877
 20
2.31154
 11
43.2366
 21
2.42705
  0
LINE
  8
0
 10
43.2366
 20
2.42705
 11
43.3925
 21
2.53298
  0
LINE
  8
0
 10
43.3925
 20
2.53298
 11
43.5547
 21
2.62892
  0
LINE
  8
0
 10
43.5547
 20
2.62892
 11
43.7227
 21
2.71448
  0
LINE
  8
0
 10
43.7227
 20
2.71448
 11
43.8956
 21
2.78933
  0
LINE
  8
0
 10
43.8956
 20
2.78933
 11
44.0729
 21
2.85317
  0
LINE
  8
0
 10
44.0729
 20
2.85317
 11
44.2539
 21
2.90575
  0
LINE
  8
0
 10
44.2539
 20
2.90575
 11
44.4379
 21
2.94686
  0
LINE
  8
0
 10
44.4379
 20
2.94686
 11
44.624
 21
2.97634
  0
LINE
  8
0
 10
44.624
 20
2.97634
 11
44.8116
 21
2.99408
  0
LINE
  8
0
 10
44.8116
 20
2.99408
 11
45
 21
3
  0
LINE
  8
0
 10
45
 20
3
 11
45.1884
 21
2.99408
  0
LINE
  8
0
 10
45.1884
 20
2.99408
 11
45.376
 21
2.97634
  0
LINE
  8
0
 10
45.376
 20
2.97634
 11
45.5621
 21
2.94686
  0
LINE
  8
0
 10
45.5621
 20
2.94686
 11
45.7461
 21
2.90575
  0
LINE
  8
0
 10
45.7461
 20
2.90575
 11
45.9271
 21
2.85317
  0
LINE
  8
0
 10
45.9271
 20
2.85317
 11
46.1044
 21
2.78933
  0
LINE
  8
0
 10
46.1044
 20
2.78933
 11
46.2773
 21
2.71448
  0
LINE
  8
0
 10
46.2773
 20
2.71448
 11
46.4453
 21
2.62892
  0
LINE
  8
0
 10
46.4453
 20
2.62892
 11
46.6075
 21
2.53298
  0
LINE
  8
0
 10
46.6075
 20
2.53298
 11
46.7634
 21
2.42705
  0
LINE
  8
0
 10
46.7634
 20
2.42705
 11
46.9123
 21
2.31154
  0
LINE
  8
0
 10
46.9123
 20
2.31154
 11
47.0536
 21
2.18691
  0
LINE
  8
0
 10
47.0536
 20
2.18691
 11
47.1869
 21
2.05364
  0
LINE
  8
0
 10
47.1869
 20
2.05364
 11
47.3115
 21
1.91227
  0
LINE
  8
0
 10
47.3115
 20
1.91227
 11
47.4271
 21
1.76336
  0
LINE
  8
0
 10
47.4271
 20
1.76336
 11
47.533
 21
1.60748
  0
LINE
  8
0
 10
47.533
 20
1.60748
 11
47.6289
 21
1.44526
  0
LINE
  8
0
 10
47.6289
 20
1.44526
 11
47.7145
 21
1.27734
  0
LINE
  8
0
 10
47.7145
 20
1.27734
 11
47.7893
 21
1.10437
  0
LINE
  8
0
 10
47.7893
 20
1.10437
 11
47.8532
 21
0.927051
  0
LINE
  8
0
 10
47.8532
 20
0.927051
 11
47.9057
 21
0.746069
  0
LINE
  8
0
 10
47.9057
 20
0.746069
 11
47.9469
 21
0.562143
  0
LINE
  8
0
 10
47.9469
 20
0.562143
 11
47.9763
 21
0.375999
  0
LINE
  8
0
 10
47.9763
 20
0.375999
 11
47.9941
 21
0.188371
  0
LINE
  8
0
 10
47.9941
 20
0.188371
 11
48
 21
0
  0
LINE
  8
0
 10
48
 20
0
 11
47.9941
 21
-0.188371
  0
LINE
  8
0
 10
47.9941
 20
-0.188371
 11
47.9763
 21
-0.375999
  0
LINE
  8
0
 10
47.9763
 20
-0.375999
 11
47.9469
 21
-0.562143
  0
LINE
  8
0
 10
47.9469
 20
-0.562143
 11
47.9057
 21
-0.746069
  0
LINE
  8
0
 10
47.9057
 20
-0.746069
 11
47.8532
 21
-0.927051
  0
LINE
  8
0
 10
47.8532
 20
-0.927051
 11
47.7893
 21
-1.10437
  0
LINE
  8
0
 10
47.7893
 20
-1.10437
 11
47.7145
 21
-1.27734
  0
LINE
  8
0
 10
47.7145
 20
-1.27734
 11
47.6289
 21
-1.44526
  0
LINE
  8
0
 10
47.6289
 20
-1.44526
 11
47.533
 21
-1.60748
  0
LINE
  8
0
 10
47.533
 20
-1.60748
 11
47.4271
 21
-1.76336
  0
LINE
  8
0
 10
47.4271
 20
-1.76336
 11
47.3115
 21
-1.91227
  0
LINE
  8
0
 10
47.3115
 20
-1.91227
 11
47.1869
 21
-2.05364
  0
LINE
  8
0
 10
47.1869
 20
-2.05364
 11
47.0536
 21
-2.18691
  0
LINE
  8
0
 10
47.0536
 20
-2.18691
 11
46.9123
 21
-2.31154
  0
LINE
  8
0
 10
46.9123
 20
-2.31154
 11
46.7634
 21
-2.42705
  0
LINE
  8
0
 10
46.7634
 20
-2.42705
 11
46.6075
 21
-2.53298
  0
LINE
  8
0
 10
46.6075
 20
-2.53298
 11
46.4453
 21
-2.62892
  0
LINE
  8
0
 10
46.4453
 20
-2.62892
 11
46.2773
 21
-2.71448
  0
LINE
  8
0
 10
46.2773
 20
-2.71448
 11
46.1044
 21
-2.78933
  0
LINE
  8
0
 10
46.1044
 20
-2.78933
 11
45.9271
 21
-2.85317
  0
LINE
  8
0
 10
45.9271
 20
-2.85317
 11
45.7461
 21
-2.90575
  0
LINE
  8
0
 10
45.7461
 20
-2.90575
 11
45.5621
 21
-2.94686
  0
LINE
  8
0
 10
45.5621
 20
-2.94686
 11
45.376
 21
-2.97634
  0
LINE
  8
0
 10
45.376
 20
-2.97634
 11
45.1884
 21
-2.99408
  0
LINE
  8
0
 10
45.1884
 20
-2.99408
 11
45
 21
-3
  0
LINE
  8
0
 10
45
 20
-3
 11
44.8116
 21
-2.99408
  0
LINE
  8
0
 10
44.8116
 20
-2.99408
 11
44.624
 21
-2.97634
  0
LINE
  8
0
 10
44.624
 20
-2.97634
 11
44.4379
 21
-2.94686
  0
LINE
  8
0
 10
44.4379
 20
-2.94686
 11
44.2539
 21
-2.90575
  0
LINE
  8
0
 10
44.2539
 20
-2.90575
 11
44.0729
 21
-2.85317
  0
LINE
  8
0
 10
44.0729
 20
-2.85317
 11
43.8956
 21
-2.78933
  0
LINE
  8
0
 10
43.8956
 20
-2.78933
 11
43.7227
 21
-2.71448
  0
LINE
  8
0
 10
43.7227
 20
-2.71448
 11
43.5547
 21
-2.62892
  0
LINE
  8
0
 10
43.5547
 20
-2.62892
 11
43.3925
 21
-2.53298
  0
LINE
  8
0
 10
43.3925
 20
-2.53298
 11
43.2366
 21
-2.42705
  0
LINE
  8
0
 10
43.2366
 20
-2.42705
 11
43.0877
 21
-2.31154
  0
LINE
  8
0
 10
43.0877
 20
-2.31154
 11
42.9464
 21
-2.18691
  0
LINE
  8
0
 10
42.9464
 20
-2.18691
 11
42.8131
 21
-2.05364
  0
LINE
  8
0
 10
42.8131
 20
-2.05364
 11
42.6885
 21
-1.91227
  0
LINE
  8
0
 10
42.6885
 20
-1.91227
 11
42.5729
 21
-1.76336
  0
LINE
  8
0
 10
42.5729
 20
-1.76336
 11
42.467
 21
-1.60748
  0
LINE
  8
0
 10
42.467
 20
-1.60748
 11
42.3711
 21
-1.44526
  0
LINE
  8
0
 10
42.3711
 20
-1.44526
 11
42.2855
 21
-1.27734
  0
LINE
  8
0
 10
42.2855
 20
-1.27734
 11
42.2107
 21
-1.10437
  0
LINE
  8
0
 10
42.2107
 20
-1.10437
 11
42.1468
 21
-0.927051
  0
LINE
  8
0
 10
42.1468
 20
-0.927051
 11
42.0942
 21
-0.746069
  0
LINE
  8
0
 10
42.0942
 20
-0.746069
 11
42.0531
 21
-0.562143
  0
LINE
  8
0
 10
42.0531
 20
-0.562143
 11
42.0237
 21
-0.375999
  0
LINE
  8
0
 10
42.0237
 20
-0.375999
 11
42.0059
 21
-0.188371
  0
LINE
  8
0
 10
42.0059
 20
-0.188371
 11
42
 21
0
  0
LINE
  8
0
 10
9.1
 20
0
 11
9.39282
 21
-2.78602
  0
LINE
  8
0
 10
9.39282
 20
-2.78602
 11
10.2585
 21
-5.45027
  0
LINE
  8
0
 10
10.2585
 20
-5.45027
 11
11.6592
 21
-7.87632
  0
LINE
  8
0
 10
11.6592
 20
-7.87632
 11
13.5336
 21
-9.95814
  0
LINE
  8
0
 10
13.5336
 20
-9.95814
 11
15.8
 21
-11.6047
  0
LINE
  8
0
 10
15.8
 20
-11.6047
 11
18.3592
 21
-12.7442
  0
LINE
  8
0
 10
18.3592
 20
-12.7442
 11
21.0993
 21
-13.3266
  0
LINE
  8
0
 10
21.0993
 20
-13.3266
 11
23.9007
 21
-13.3266
  0
LINE
  8
0
 10
23.9007
 20
-13.3266
 11
26.6408
 21
-12.7442
  0
LINE
  8
0
 10
26.6408
 20
-12.7442
 11
29.2
 21
-11.6047
  0
LINE
  8
0
 10
29.2
 20
-11.6047
 11
31.4663
 21
-9.95814
  0
LINE
  8
0
 10
31.4663
 20
-9.95814
 11
33.3408
 21
-7.87632
  0
LINE
  8
0
 10
33.3408
 20
-7.87632
 11
34.7415
 21
-5.45027
  0
LINE
  8
0
 10
34.7415
 20
-5.45027
 11
35.6072
 21
-2.78602
  0
LINE
  8
0
 10
35.6072
 20
-2.78602
 11
35.9
 21
0
  0
LINE
  8
0
 10
35.9
 20
0
 11
35.6072
 21
2.78602
  0
LINE
  8
0
 10
35.6072
 20
2.78602
 11
34.7415
 21
5.45027
  0
LINE
  8
0
 10
34.7415
 20
5.45027
 11
33.3408
 21
7.87632
  0
LINE
  8
0
 10
33.3408
 20
7.87632
 11
31.4663
 21
9.95814
  0
LINE
  8
0
 10
31.4663
 20
9.95814
 11
29.2
 21
11.6047
  0
LINE
  8
0
 10
29.2
 20
11.6047
 11
26.6408
 21
12.7442
  0
LINE
  8
0
 10
26.6408
 20
12.7442
 11
23.9007
 21
13.3266
  0
LINE
  8
0
 10
23.9007
 20
13.3266
 11
21.0993
 21
13.3266
  0
LINE
  8
0
 10
21.0993
 20
13.3266
 11
18.3592
 21
12.7442
  0
LINE
  8
0
 10
18.3592
 20
12.7442
 11
15.8
 21
11.6047
  0
LINE
  8
0
 10
15.8
 20
11.6047
 11
13.5336
 21
9.95814
  0
LINE
  8
0
 10
13.5336
 20
9.95814
 11
11.6592
 21
7.87632
  0
LINE
  8
0
 10
11.6592
 20
7.87632
 11
10.2585
 21
5.45027
  0
LINE
  8
0
 10
10.2585
 20
5.45027
 11
9.39282
 21
2.78602
  0
LINE
  8
0
 10
9.39282
 20
2.78602
 11
9.1
 21
0
  0
LINE
  8
0
 10
10.5
 20
0
 11
10.5237
 21
0.753486
  0
LINE
  8
0
 10
10.5237
 20
0.753486
 11
10.5946
 21
1.504
  0
LINE
  8
0
 10
10.5946
 20
1.504
 11
10.7126
 21
2.24858
  0
LINE
  8
0
 10
10.7126
 20
2.24858
 11
10.877
 21
2.98428
  0
LINE
  8
0
 10
10.877
 20
2.98428
 11
11.0873
 21
3.7082
  0
LINE
  8
0
 10
11.0873
 20
3.7082
 11
11.3427
 21
4.41749
  0
LINE
  8
0
 10
11.3427
 20
4.41749
 11
11.6421
 21
5.10935
  0
LINE
  8
0
 10
11.6421
 20
5.10935
 11
11.9843
 21
5.78104
  0
LINE
  8
0
 10
11.9843
 20
5.78104
 11
12.3681
 21
6.42992
  0
LINE
  8
0
 10
12.3681
 20
6.42992
 11
12.7918
 21
7.05342
  0
LINE
  8
0
 10
12.7918
 20
7.05342
 11
13.2538
 21
7.64909
  0
LINE
  8
0
 10
13.2538
 20
7.64909
 11
13.7524
 21
8.21456
  0
LINE
  8
0
 10
13.7524
 20
8.21456
 11
14.2854
 21
8.74762
  0
LINE
  8
0
 10
14.2854
 20
8.74762
 11
14.8509
 21
9.24616
  0
LINE
  8
0
 10
14.8509
 20
9.24616
 11
15.4466
 21
9.7082
  0
LINE
  8
0
 10
15.4466
 20
9.7082
 11
16.0701
 21
10.1319
  0
LINE
  8
0
 10
16.0701
 20
10.1319
 11
16.719
 21
10.5157
  0
LINE
  8
0
 10
16.719
 20
10.5157
 11
17.3906
 21
10.8579
  0
LINE
  8
0
 10
17.3906
 20
10.8579
 11
18.0825
 21
11.1573
  0
LINE
  8
0
 10
18.0825
 20
11.1573
 11
18.7918
 21
11.4127
  0
LINE
  8
0
 10
18.7918
 20
11.4127
 11
19.5157
 21
11.623
  0
LINE
  8
0
 10
19.5157
 20
11.623
 11
20.2514
 21
11.7874
  0
LINE
  8
0
 10
20.2514
 20
11.7874
 11
20.996
 21
11.9054
  0
LINE
  8
0
 10
20.996
 20
11.9054
 11
21.7465
 21
11.9763
  0
LINE
  8
0
 10
21.7465
 20
11.9763
 11
22.5
 21
12
  0
LINE
  8
0
 10
22.5
 20
12
 11
23.2535
 21
11.9763
  0
LINE
  8
0
 10
23.2535
 20
11.9763
 11
24.004
 21
11.9054
  0
LINE
  8
0
 10
24.004
 20
11.9054
 11
24.7486
 21
11.7874
  0
LINE
  8
0
 10
24.7486
 20
11.7874
 11
25.4843
 21
11.623
  0
LINE
  8
0
 10
25.4843
 20
11.623
 11
26.2082
 21
11.4127
  0
LINE
  8
0
 10
26.2082
 20
11.4127
 11
26.9175
 21
11.1573
  0
LINE
  8
0
 10
26.9175
 20
11.1573
 11
27.6094
 21
10.8579
  0
LINE
  8
0
 10
27.6094
 20
10.8579
 11
28.281
 21
10.5157
  0
LINE
  8
0
 10
28.281
 20
10.5157
 11
28.9299
 21
10.1319
  0
LINE
  8
0
 10
28.9299
 20
10.1319
 11
29.5534
 21
9.7082
  0
LINE
  8
0
 10
29.5534
 20
9.7082
 11
30.1491
 21
9.24616
  0
LINE
  8
0
 10
30.1491
 20
9.24616
 11
30.7146
 21
8.74762
  0
LINE
  8
0
 10
30.7146
 20
8.74762
 11
31.2476
 21
8.21456
  0
LINE
  8
0
 10
31.2476
 20
8.21456
 11
31.7462
 21
7.64909
  0
LINE
  8
0
 10
31.7462
 20
7.64909
 11
32.2082
 21
7.05342
  0
LINE
  8
0
 10
32.2082
 20
7.05342
 11
32.6319
 21
6.42992
  0
LINE
  8
0
 10
32.6319
 20
6.42992
 11
33.0157
 21
5.78104
  0
LINE
  8
0
 10
33.0157
 20
5.78104
 11
33.3579
 21
5.10935
  0
LINE
  8
0
 10
33.3579
 20
5.10935
 11
33.6573
 21
4.41749
  0
LINE
  8
0
 10
33.6573
 20
4.41749
 11
33.9127
 21
3.7082
  0
LINE
  8
0
 10
33.9127
 20
3.7082
 11
34.123
 21
2.98428
  0
LINE
  8
0
 10
34.123
 20
2.98428
 11
34.2874
 21
2.24858
  0
LINE
  8
0
 10
34.2874
 20
2.24858
 11
34.4054
 21
1.504
  0
LINE
  8
0
 10
34.4054
 20
1.504
 11
34.4763
 21
0.753486
  0
LINE
  8
0
 10
34.4763
 20
0.753486
 11
34.5
 21
0
  0
LINE
  8
0
 10
34.5
 20
0
 11
34.4763
 21
-0.753486
  0
LINE
  8
0
 10
34.4763
 20
-0.753486
 11
34.4054
 21
-1.504
  0
LINE
  8
0
 10
34.4054
 20
-1.504
 11
34.2874
 21
-2.24858
  0
LINE
  8
0
 10
34.2874
 20
-2.24858
 11
34.123
 21
-2.98428
  0
LINE
  8
0
 10
34.123
 20
-2.98428
 11
33.9127
 21
-3.7082
  0
LINE
  8
0
 10
33.9127
 20
-3.7082
 11
33.6573
 21
-4.41749
  0
LINE
  8
0
 10
33.6573
 20
-4.41749
 11
33.3579
 21
-5.10935
  0
LINE
  8
0
 10
33.3579
 20
-5.10935
 11
33.0157
 21
-5.78104
  0
LINE
  8
0
 10
33.0157
 20
-5.78104
 11
32.6319
 21
-6.42992
  0
LINE
  8
0
 10
32.6319
 20
-6.42992
 11
32.2082
 21
-7.05342
  0
LINE
  8
0
 10
32.2082
 20
-7.05342
 11
31.7462
 21
-7.64909
  0
LINE
  8
0
 10
31.7462
 20
-7.64909
 11
31.2476
 21
-8.21456
  0
LINE
  8
0
 10
31.2476
 20
-8.21456
 11
30.7146
 21
-8.74762
  0
LINE
  8
0
 10
30.7146
 20
-8.74762
 11
30.1491
 21
-9.24616
  0
LINE
  8
0
 10
30.1491
 20
-9.24616
 11
29.5534
 21
-9.7082
  0
LINE
  8
0
 10
29.5534
 20
-9.7082
 11
28.9299
 21
-10.1319
  0
LINE
  8
0
 10
28.9299
 20
-10.1319
 11
28.281
 21
-10.5157
  0
LINE
  8
0
 10
28.281
 20
-10.5157
 11
27.6094
 21
-10.8579
  0
LINE
  8
0
 10
27.6094
 20
-10.8579
 11
26.9175
 21
-11.1573
  0
LINE
  8
0
 10
26.9175
 20
-11.1573
 11
26.2082
 21
-11.4127
  0
LINE
  8
0
 10
26.2082
 20
-11.4127
 11
25.4843
 21
-11.623
  0
LINE
  8
0
 10
25.4843
 20
-11.623
 11
24.7486
 21
-11.7874
  0
LINE
  8
0
 10
24.7486
 20
-11.7874
 11
24.004
 21
-11.9054
  0
LINE
  8
0
 10
24.004
 20
-11.9054
 11
23.2535
 21
-11.9763
  0
LINE
  8
0
 10
23.2535
 20
-11.9763
 11
22.5
 21
-12
  0
LINE
  8
0
 10
22.5
 20
-12
 11
21.7465
 21
-11.9763
  0
LINE
  8
0
 10
21.7465
 20
-11.9763
 11
20.996
 21
-11.9054
  0
LINE
  8
0
 10
20.996
 20
-11.9054
 11
20.2514
 21
-11.7874
  0
LINE
  8
0
 10
20.2514
 20
-11.7874
 11
19.5157
 21
-11.623
  0
LINE
  8
0
 10
19.5157
 20
-11.623
 11
18.7918
 21
-11.4127
  0
LINE
  8
0
 10
18.7918
 20
-11.4127
 11
18.0825
 21
-11.1573
  0
LINE
  8
0
 10
18.0825
 20
-11.1573
 11
17.3906
 21
-10.8579
  0
LINE
  8
0
 10
17.3906
 20
-10.8579
 11
16.719
 21
-10.5157
  0
LINE
  8
0
 10
16.719
 20
-10.5157
 11
16.0701
 21
-10.1319
  0
LINE
  8
0
 10
16.0701
 20
-10.1319
 11
15.4466
 21
-9.7082
  0
LINE
  8
0
 10
15.4466
 20
-9.7082
 11
14.8509
 21
-9.24616
  0
LINE
  8
0
 10
14.8509
 20
-9.24616
 11
14.2854
 21
-8.74762
  0
LINE
  8
0
 10
14.2854
 20
-8.74762
 11
13.7524
 21
-8.21456
  0
LINE
  8
0
 10
13.7524
 20
-8.21456
 11
13.2538
 21
-7.64909
  0
LINE
  8
0
 10
13.2538
 20
-7.64909
 11
12.7918
 21
-7.05342
  0
LINE
  8
0
 10
12.7918
 20
-7.05342
 11
12.3681
 21
-6.42992
  0
LINE
  8
0
 10
12.3681
 20
-6.42992
 11
11.9843
 21
-5.78104
  0
LINE
  8
0
 10
11.9843
 20
-5.78104
 11
11.6421
 21
-5.10935
  0
LINE
  8
0
 10
11.6421
 20
-5.10935
 11
11.3427
 21
-4.41749
  0
LINE
  8
0
 10
11.3427
 20
-4.41749
 11
11.0873
 21
-3.7082
  0
LINE
  8
0
 10
11.0873
 20
-3.7082
 11
10.877
 21
-2.98428
  0
LINE
  8
0
 10
10.877
 20
-2.98428
 11
10.7126
 21
-2.24858
  0
LINE
  8
0
 10
10.7126
 20
-2.24858
 11
10.5946
 21
-1.504
  0
LINE
  8
0
 10
10.5946
 20
-1.504
 11
10.5237
 21
-0.753486
  0
LINE
  8
0
 10
10.5237
 20
-0.753486
 11
10.5
 21
0
  0
ENDSEC
  0
SECTION
  2
OBJECTS
  0
DICTIONARY
  0
ENDSEC
  0
EOF
