  0
SECTION
  2
HEADER
  9
$ACADVER
  1
AC1015
  9
$ACADMAINTVER
 70
     6
  9
$DWGCODEPAGE
  3
ANSI_1251
  9
$INSBASE
 10
0.0
 20
0.0
 30
0.0
  9
$EXTMIN
 10
0.0
 20
0.0
 30
0.0
  9
$EXTMAX
 10
1189.0
 20
841.0
 30
0.0
  9
$LIMMIN
 10
0.0
 20
0.0
  9
$LIMMAX
 10
1189.0
 20
841.0
  9
$ORTHOMODE
 70
     0
  9
$REGENMODE
 70
     1
  9
$FILLMODE
 70
     1
  9
$QTEXTMODE
 70
     0
  9
$MIRRTEXT
 70
     1
  9
$LTSCALE
 40
1.0
  9
$ATTMODE
 70
     1
  9
$TEXTSIZE
 40
3.5
  9
$TRACEWID
 40
1.0
  9
$TEXTSTYLE
  7
Standard
  9
$CLAYER
  8
0
  9
$CELTYPE
  6
ByLayer
  9
$CECOLOR
 62
   256
  9
$CELTSCALE
 40
1.0
  9
$DISPSILH
 70
     0
  9
$DIMSCALE
 40
1.0
  9
$DIMASZ
 40
3.556
  9
$DIMEXO
 40
1.0
  9
$DIMDLI
 40
3.75
  9
$DIMRND
 40
0.0
  9
$DIMDLE
 40
0.0
  9
$DIMEXE
 40
1.0
  9
$DIMTP
 40
0.0
  9
$DIMTM
 40
0.0
  9
$DIMTXT
 40
3.5
  9
$DIMCEN
 40
2.5
  9
$DIMTSZ
 40
0.0
  9
$DIMTOL
 70
     0
  9
$DIMLIM
 70
     0
  9
$DIMTIH
 70
     1
  9
$DIMTOH
 70
     1
  9
$DIMSE1
 70
     0
  9
$DIMSE2
 70
     0
  9
$DIMTAD
 70
     1
  9
$DIMZIN
 70
     0
  9
$DIMBLK
  1

  9
$DIMASO
 70
     1
  9
$DIMSHO
 70
     1
  9
$DIMPOST
  1

  9
$DIMAPOST
  1

  9
$DIMALT
 70
     0
  9
$DIMALTD
 70
     3
  9
$DIMALTF
 40
0.0393700787
  9
$DIMLFAC
 40
0.5
  9
$DIMTOFL
 70
     1
  9
$DIMTVP
 40
0.0
  9
$DIMTIX
 70
     0
  9
$DIMSOXD
 70
     0
  9
$DIMSAH
 70
     0
  9
$DIMBLK1
  1

  9
$DIMBLK2
  1

  9
$DIMSTYLE
  2
ISO-25
  9
$DIMCLRD
 70
     0
  9
$DIMCLRE
 70
     0
  9
$DIMCLRT
 70
     0
  9
$DIMTFAC
 40
1.0
  9
$DIMGAP
 40
1.524
  9
$DIMJUST
 70
     0
  9
$DIMSD1
 70
     0
  9
$DIMSD2
 70
     0
  9
$DIMTOLJ
 70
     0
  9
$DIMTZIN
 70
     0
  9
$DIMALTZ
 70
     0
  9
$DIMALTTZ
 70
     0
  9
$DIMUPT
 70
     0
  9
$DIMDEC
 70
     2
  9
$DIMTDEC
 70
     2
  9
$DIMALTU
 70
     2
  9
$DIMALTTD
 70
     3
  9
$DIMTXSTY
  7
Standard
  9
$DIMAUNIT
 70
     0
  9
$DIMADEC
 70
     2
  9
$DIMALTRND
 40
0.0
  9
$DIMAZIN
 70
     0
  9
$DIMDSEP
 70
    44
  9
$DIMATFIT
 70
     3
  9
$DIMFRAC
 70
     0
  9
$DIMLDRBLK
  1

  9
$DIMLUNIT
 70
     2
  9
$DIMLWD
 70
    -2
  9
$DIMLWE
 70
    -2
  9
$DIMTMOVE
 70
     0
  9
$LUNITS
 70
     2
  9
$LUPREC
 70
     2
  9
$SKETCHINC
 40
1.0
  9
$FILLETRAD
 40
10.0
  9
$AUNITS
 70
     0
  9
$AUPREC
 70
     2
  9
$MENU
  1
.
  9
$ELEVATION
 40
0.0
  9
$PELEVATION
 40
0.0
  9
$THICKNESS
 40
0.0
  9
$LIMCHECK
 70
     0
  9
$CHAMFERA
 40
10.0
  9
$CHAMFERB
 40
10.0
  9
$CHAMFERC
 40
20.0
  9
$CHAMFERD
 40
0.0
  9
$SKPOLY
 70
     0
  9
$TDCREATE
 40
2457320.993878982
  9
$TDUCREATE
 40
2457320.743878982
  9
$TDUPDATE
 40
2457320.993880833
  9
$TDUUPDATE
 40
2457320.743880833
  9
$TDINDWG
 40
0.0000000116
  9
$TDUSRTIMER
 40
0.0000000116
  9
$USRTIMER
 70
     1
  9
$ANGBASE
 50
0.0
  9
$ANGDIR
 70
     0
  9
$PDMODE
 70
     0
  9
$PDSIZE
 40
-1.0
  9
$PLINEWID
 40
0.0
  9
$SPLFRAME
 70
     0
  9
$SPLINETYPE
 70
     6
  9
$SPLINESEGS
 70
     8
  9
$HANDSEED
  5
2B2
  9
$SURFTAB1
 70
     6
  9
$SURFTAB2
 70
     6
  9
$SURFTYPE
 70
     6
  9
$SURFU
 70
     6
  9
$SURFV
 70
     6
  9
$UCSBASE
  2

  9
$UCSNAME
  2

  9
$UCSORG
 10
0.0
 20
0.0
 30
0.0
  9
$UCSXDIR
 10
1.0
 20
0.0
 30
0.0
  9
$UCSYDIR
 10
0.0
 20
1.0
 30
0.0
  9
$UCSORTHOREF
  2

  9
$UCSORTHOVIEW
 70
     0
  9
$UCSORGTOP
 10
0.0
 20
0.0
 30
0.0
  9
$UCSORGBOTTOM
 10
0.0
 20
0.0
 30
0.0
  9
$UCSORGLEFT
 10
0.0
 20
0.0
 30
0.0
  9
$UCSORGRIGHT
 10
0.0
 20
0.0
 30
0.0
  9
$UCSORGFRONT
 10
0.0
 20
0.0
 30
0.0
  9
$UCSORGBACK
 10
0.0
 20
0.0
 30
0.0
  9
$PUCSBASE
  2

  9
$PUCSNAME
  2

  9
$PUCSORG
 10
0.0
 20
0.0
 30
0.0
  9
$PUCSXDIR
 10
1.0
 20
0.0
 30
0.0
  9
$PUCSYDIR
 10
0.0
 20
1.0
 30
0.0
  9
$PUCSORTHOREF
  2

  9
$PUCSORTHOVIEW
 70
     0
  9
$PUCSORGTOP
 10
0.0
 20
0.0
 30
0.0
  9
$PUCSORGBOTTOM
 10
0.0
 20
0.0
 30
0.0
  9
$PUCSORGLEFT
 10
0.0
 20
0.0
 30
0.0
  9
$PUCSORGRIGHT
 10
0.0
 20
0.0
 30
0.0
  9
$PUCSORGFRONT
 10
0.0
 20
0.0
 30
0.0
  9
$PUCSORGBACK
 10
0.0
 20
0.0
 30
0.0
  9
$USERI1
 70
     0
  9
$USERI2
 70
     0
  9
$USERI3
 70
     0
  9
$USERI4
 70
     0
  9
$USERI5
 70
     0
  9
$USERR1
 40
0.0
  9
$USERR2
 40
0.0
  9
$USERR3
 40
0.0
  9
$USERR4
 40
0.0
  9
$USERR5
 40
0.0
  9
$WORLDVIEW
 70
     1
  9
$SHADEDGE
 70
     3
  9
$SHADEDIF
 70
    70
  9
$TILEMODE
 70
     1
  9
$MAXACTVP
 70
    64
  9
$PINSBASE
 10
0.0
 20
0.0
 30
0.0
  9
$PLIMCHECK
 70
     0
  9
$PEXTMIN
 10
1.0000000000E+20
 20
1.0000000000E+20
 30
1.0000000000E+20
  9
$PEXTMAX
 10
-1.0000000000E+20
 20
-1.0000000000E+20
 30
-1.0000000000E+20
  9
$PLIMMIN
 10
0.0
 20
0.0
  9
$PLIMMAX
 10
420.0
 20
297.0
  9
$UNITMODE
 70
     0
  9
$VISRETAIN
 70
     1
  9
$PLINEGEN
 70
     0
  9
$PSLTSCALE
 70
     1
  9
$TREEDEPTH
 70
  3020
  9
$CMLSTYLE
  2
Standard
  9
$CMLJUST
 70
     0
  9
$CMLSCALE
 40
20.0
  9
$PROXYGRAPHICS
 70
     1
  9
$MEASUREMENT
 70
     1
  9
$CELWEIGHT
370
    -1
  9
$ENDCAPS
280
     0
  9
$JOINSTYLE
280
     0
  9
$LWDISPLAY
290
     1
  9
$INSUNITS
 70
     4
  9
$HYPERLINKBASE
  1

  9
$STYLESHEET
  1

  9
$XEDIT
290
     1
  9
$CEPSNTYPE
380
     0
  9
$PSTYLEMODE
290
     1
  9
$FINGERPRINTGUID
  2
{E1960209-7C92-4F77-9AAE-49B4ACA632F0}
  9
$VERSIONGUID
  2
{FAEB1C32-E019-11D5-929B-00C0DF256EC4}
  9
$EXTNAMES
290
     1
  9
$PSVPSCALE
 40
0.0
  9
$OLESTARTUP
290
     0
  0
ENDSEC
  0
SECTION
  2
CLASSES
  0
CLASS
  1
ACDBDICTIONARYWDFLT
  2
AcDbDictionaryWithDefault
  3
ObjectDBX Classes
 90
        0
280
     0
281
     0
  0
CLASS
  1
VISUALSTYLE
  2
AcDbVisualStyle
  3
ObjectDBX Classes
 90
     4095
280
     0
281
     0
  0
CLASS
  1
MATERIAL
  2
AcDbMaterial
  3
ObjectDBX Classes
 90
     1153
280
     0
281
     0
  0
CLASS
  1
ACDBPLACEHOLDER
  2
AcDbPlaceHolder
  3
ObjectDBX Classes
 90
        0
280
     0
281
     0
  0
CLASS
  1
LAYOUT
  2
AcDbLayout
  3
ObjectDBX Classes
 90
        0
280
     0
281
     0
  0
ENDSEC
  0
SECTION
  2
TABLES
  0
TABLE
  2
VPORT
  5
8
330
0
100
AcDbSymbolTable
 70
     1
  0
VPORT
  5
29
330
8
100
AcDbSymbolTableRecord
100
AcDbViewportTableRecord
  2
*Active
 70
     0
 10
0.0
 20
0.0
 11
1.0
 21
1.0
 12
594.5
 22
420.5
 13
0.0
 23
0.0
 14
10.0
 24
10.0
 15
10.0
 25
10.0
 16
0.0
 26
0.0
 36
1.0
 17
0.0
 27
0.0
 37
0.0
 40
841.0
 41
1.4137931034
 42
50.0
 43
0.0
 44
0.0
 50
0.0
 51
0.0
 71
     0
 72
  2000
 73
     1
 74
     3
 75
     0
 76
     0
 77
     0
 78
     0
281
     0
 65
     1
110
0.0
120
0.0
130
0.0
111
1.0
121
0.0
131
0.0
112
0.0
122
1.0
132
0.0
 79
     0
146
0.0
  0
ENDTAB
  0
TABLE
  2
LTYPE
  5
5
330
0
100
AcDbSymbolTable
 70
     6
  0
LTYPE
  5
14
330
5
100
AcDbSymbolTableRecord
100
AcDbLinetypeTableRecord
  2
ByBlock
 70
     0
  3

 72
    65
 73
     0
 40
0.0
  0
LTYPE
  5
15
330
5
100
AcDbSymbolTableRecord
100
AcDbLinetypeTableRecord
  2
ByLayer
 70
     0
  3

 72
    65
 73
     0
 40
0.0
  0
LTYPE
  5
16
330
5
100
AcDbSymbolTableRecord
100
AcDbLinetypeTableRecord
  2
Continuous
 70
     0
  3
Solid line
 72
    65
 73
     0
 40
0.0
  0
LTYPE
  5
3F
330
5
100
AcDbSymbolTableRecord
100
AcDbLinetypeTableRecord
  2
HIDDEN
 70
     0
  3
Hidden __ __ __ __ __ __ __ __ __ __ __ __ __ __
 72
    65
 73
     2
 40
1.905
 49
1.27
 74
     0
 49
-0.635
 74
     0
  0
LTYPE
  5
40
330
5
100
AcDbSymbolTableRecord
100
AcDbLinetypeTableRecord
  2
PHANTOM
 70
     0
  3
Phantom ______  __  __  ______  __  __  ______
 72
    65
 73
     6
 40
12.7
 49
6.35
 74
     0
 49
-1.27
 74
     0
 49
1.27
 74
     0
 49
-1.27
 74
     0
 49
1.27
 74
     0
 49
-1.27
 74
     0
  0
LTYPE
  5
41
330
5
100
AcDbSymbolTableRecord
100
AcDbLinetypeTableRecord
  2
CENTER
 70
     0
  3
Center ____ _ ____ _ ____ _ ____ _ ____ _ ____
 72
    65
 73
     4
 40
10.16
 49
6.35
 74
     0
 49
-1.27
 74
     0
 49
1.27
 74
     0
 49
-1.27
 74
     0
  0
LTYPE
  5
42
330
5
100
AcDbSymbolTableRecord
100
AcDbLinetypeTableRecord
  2
CENTERX2
 70
     0
  3
Center (2x) ________  __  ________  __  _____
 72
    65
 73
     4
 40
20.32
 49
12.7
 74
     0
 49
-2.54
 74
     0
 49
2.54
 74
     0
 49
-2.54
 74
     0
  0
LTYPE
  5
43
330
5
100
AcDbSymbolTableRecord
100
AcDbLinetypeTableRecord
  2
DOT2
 70
     0
  3
Dot (.5x) ........................................
 72
    65
 73
     2
 40
0.635
 49
0.0
 74
     0
 49
-0.635
 74
     0
  0
ENDTAB
  0
TABLE
  2
LAYER
  5
2
330
0
100
AcDbSymbolTable
 70
     2
  0
LAYER
  5
10
330
2
100
AcDbSymbolTableRecord
100
AcDbLayerTableRecord
  2
0
 70
     0
 62
     7
  6
Continuous
370
    -3
390
F
  0
LAYER
  5
44
330
2
100
AcDbSymbolTableRecord
100
AcDbLayerTableRecord
  2
FORMAT
 70
     0
 62
     7
  6
Continuous
370
    -3
390
F
  0
ENDTAB
  0
TABLE
  2
STYLE
  5
3
330
0
100
AcDbSymbolTable
 70
     6
  0
STYLE
  5
11
330
3
100
AcDbSymbolTableRecord
100
AcDbTextStyleTableRecord
  2
Standard
 70
     0
 40
0.0
 41
1.0
 50
0.0
 71
     0
 42
3.5
  3
txt
  4

  0
STYLE
  5
67
330
3
100
AcDbSymbolTableRecord
100
AcDbTextStyleTableRecord
  2
SLDTEXTSTYLE0
 70
     0
 40
0.0
 41
0.75
 50
0.0
 71
     0
 42
0.2
  3
TXT
  4

  0
STYLE
  5
69
330
3
100
AcDbSymbolTableRecord
100
AcDbTextStyleTableRecord
  2
SLDTEXTSTYLE1
 70
     0
 40
0.0
 41
0.75
 50
0.0
 71
     0
 42
0.2
  3
TXT
  4
bigfont
  0
STYLE
  5
6C
330
3
100
AcDbSymbolTableRecord
100
AcDbTextStyleTableRecord
  2
SLDTEXTSTYLE2
 70
     0
 40
0.0
 41
0.6818181818
 50
0.0
 71
     0
 42
0.2
  3
TXT
  4
bigfont
  0
STYLE
  5
1C5
330
3
100
AcDbSymbolTableRecord
100
AcDbTextStyleTableRecord
  2
SLDTEXTSTYLE3
 70
     0
 40
0.0
 41
0.663
 50
0.0
 71
     0
 42
0.2
  3
TXT
  4

  0
STYLE
  5
2AF
330
3
100
AcDbSymbolTableRecord
100
AcDbTextStyleTableRecord
  2
SLDTEXTSTYLE4
 70
     0
 40
0.0
 41
0.6923076923
 50
0.0
 71
     0
 42
0.2
  3
TXT
  4
bigfont
  0
ENDTAB
  0
TABLE
  2
VIEW
  5
6
330
0
100
AcDbSymbolTable
 70
     0
  0
ENDTAB
  0
TABLE
  2
UCS
  5
7
330
0
100
AcDbSymbolTable
 70
     0
  0
ENDTAB
  0
TABLE
  2
APPID
  5
9
330
0
100
AcDbSymbolTable
 70
     1
  0
APPID
  5
12
330
9
100
AcDbSymbolTableRecord
100
AcDbRegAppTableRecord
  2
ACAD
 70
     0
  0
ENDTAB
  0
TABLE
  2
DIMSTYLE
  5
A
330
0
100
AcDbSymbolTable
 70
     1
100
AcDbDimStyleTable
  0
DIMSTYLE
105
27
330
A
100
AcDbSymbolTableRecord
100
AcDbDimStyleTableRecord
  2
ISO-25
 70
     0
 41
2.5
 42
0.625
 43
3.75
 44
1.25
 73
     0
 74
     0
 77
     1
 78
     8
140
2.5
141
2.5
143
0.0393700787
147
0.625
171
     3
172
     1
178
     0
271
     2
272
     2
274
     3
278
    44
283
     0
284
     8
340
11
  0
ENDTAB
  0
TABLE
  2
BLOCK_RECORD
  5
1
330
0
100
AcDbSymbolTable
 70
    11
  0
BLOCK_RECORD
  5
1F
330
1
100
AcDbSymbolTableRecord
100
AcDbBlockTableRecord
  2
*Model_Space
340
22
  0
BLOCK_RECORD
  5
1B
330
1
100
AcDbSymbolTableRecord
100
AcDbBlockTableRecord
  2
*Paper_Space
340
1E
  0
BLOCK_RECORD
  5
23
330
1
100
AcDbSymbolTableRecord
100
AcDbBlockTableRecord
  2
*Paper_Space0
340
26
  0
BLOCK_RECORD
  5
77
330
1
100
AcDbSymbolTableRecord
100
AcDbBlockTableRecord
  2
SW_NOTE_0
340
0
102
{BLKREFS
331
7D
102
}
  0
BLOCK_RECORD
  5
7F
330
1
100
AcDbSymbolTableRecord
100
AcDbBlockTableRecord
  2
SW_NOTE_1
340
0
102
{BLKREFS
331
88
102
}
  0
BLOCK_RECORD
  5
B1
330
1
100
AcDbSymbolTableRecord
100
AcDbBlockTableRecord
  2
SW_CENTERMARKSYMBOL_0
340
0
102
{BLKREFS
331
BC
102
}
  0
BLOCK_RECORD
  5
10C
330
1
100
AcDbSymbolTableRecord
100
AcDbBlockTableRecord
  2
SW_CENTERMARKSYMBOL_1
340
0
102
{BLKREFS
331
117
102
}
  0
BLOCK_RECORD
  5
118
330
1
100
AcDbSymbolTableRecord
100
AcDbBlockTableRecord
  2
SW_CENTERMARKSYMBOL_2
340
0
102
{BLKREFS
331
123
102
}
  0
BLOCK_RECORD
  5
124
330
1
100
AcDbSymbolTableRecord
100
AcDbBlockTableRecord
  2
SW_CENTERMARKSYMBOL_3
340
0
102
{BLKREFS
331
12F
102
}
  0
BLOCK_RECORD
  5
132
330
1
100
AcDbSymbolTableRecord
100
AcDbBlockTableRecord
  2
_CLOSED
340
0
102
{BLKREFS
331
139
331
13B
102
}
  0
BLOCK_RECORD
  5
1C1
330
1
100
AcDbSymbolTableRecord
100
AcDbBlockTableRecord
  2
SW_NOTE_2
340
0
102
{BLKREFS
331
1C7
102
}
  0
BLOCK_RECORD
  5
1E2
330
1
100
AcDbSymbolTableRecord
100
AcDbBlockTableRecord
  2
SW_HATCH_0
340
0
102
{BLKREFS
331
2AA
102
}
  0
BLOCK_RECORD
  5
2AB
330
1
100
AcDbSymbolTableRecord
100
AcDbBlockTableRecord
  2
SW_NOTE_3
340
0
102
{BLKREFS
331
2B1
102
}
  0
ENDTAB
  0
ENDSEC
  0
SECTION
  2
BLOCKS
  0
BLOCK
  5
20
330
1F
100
AcDbEntity
  8
0
100
AcDbBlockBegin
  2
*Model_Space
 70
     0
 10
0.0
 20
0.0
 30
0.0
  3
*Model_Space
  1

  0
ENDBLK
  5
21
330
1F
100
AcDbEntity
  8
0
100
AcDbBlockEnd
  0
BLOCK
  5
1C
330
1B
100
AcDbEntity
 67
     1
  8
0
100
AcDbBlockBegin
  2
*Paper_Space
 70
     0
 10
0.0
 20
0.0
 30
0.0
  3
*Paper_Space
  1

  0
ENDBLK
  5
1D
330
1B
100
AcDbEntity
 67
     1
  8
0
100
AcDbBlockEnd
  0
BLOCK
  5
24
330
23
100
AcDbEntity
  8
0
100
AcDbBlockBegin
  2
*Paper_Space0
 70
     0
 10
0.0
 20
0.0
 30
0.0
  3
*Paper_Space0
  1

  0
ENDBLK
  5
25
330
23
100
AcDbEntity
  8
0
100
AcDbBlockEnd
  0
BLOCK
  5
78
330
77
100
AcDbEntity
  8
0
100
AcDbBlockBegin
  2
SW_NOTE_0
 70
     0
 10
0.0
 20
0.0
 30
0.0
  3
SW_NOTE_0
  1

  0
MTEXT
  5
7A
330
77
100
AcDbEntity
  8
0
  6
Continuous
 62
     0
370
     0
100
AcDbMText
 10
0.0
 20
1.9336016097
 30
0.0
 40
1.5
 41
0.0
 71
     1
 72
     1
  1
\M+18452\M+18443\M+1844C\M+18440\M+18444\M+18449\M+18453\M+1845D
  7
SLDTEXTSTYLE1
 73
     1
 44
1.0
  0
MTEXT
  5
7B
330
77
100
AcDbEntity
  8
0
  6
Continuous
 62
     0
370
     0
100
AcDbMText
 10
0.0
 20
-0.5663983345
 30
0.0
 40
1.5
 41
0.0
 71
     1
 72
     1
  1
\M+18448\M+18440\M+18454\M+18452\M+18445\M+1844E\M+18457\M+1845C \M+18449
  7
SLDTEXTSTYLE1
 73
     1
 44
1.0
  0
MTEXT
  5
7C
330
77
100
AcDbEntity
  8
0
  6
Continuous
 62
     0
370
     0
100
AcDbMText
 10
0.0
 20
-3.0663982786
 30
0.0
 40
1.5
 41
0.0
 71
     1
 72
     1
  1
\M+1844F\M+18452\M+18453\M+18451\M+1845C\M+18445 \M+1844B\M+18451\M+1844F\M+1844D\M+1844B\M+18449
  7
SLDTEXTSTYLE1
 73
     1
 44
1.0
  0
ENDBLK
  5
79
330
77
100
AcDbEntity
  8
0
100
AcDbBlockEnd
  0
BLOCK
  5
80
330
7F
100
AcDbEntity
  8
0
100
AcDbBlockBegin
  2
SW_NOTE_1
 70
     0
 10
0.0
 20
0.0
 30
0.0
  3
SW_NOTE_1
  1

  0
MTEXT
  5
82
330
7F
100
AcDbEntity
  8
0
  6
Continuous
 62
     0
370
     0
100
AcDbMText
 10
0.0
 20
1.9336016097
 30
0.0
 40
1.5
 41
0.0
 71
     1
 72
     1
  1
\M+18450\M+1844F \M+18454\M+1844D\M+1844F\M+1844C\M+18458\M+18440\M+1844E\M+18449\M+1845F:
  7
SLDTEXTSTYLE1
 73
     1
 44
1.0
  0
MTEXT
  5
83
330
7F
100
AcDbEntity
  8
0
  6
Continuous
 62
     0
370
     0
100
AcDbMText
 10
0.0
 20
-0.5663983345
 30
0.0
 40
1.5
 41
0.0
 71
     1
 72
     1
  1
\M+18451\M+18440\M+18448\M+1844D\M+18445\M+18451\M+1845C \M+18442 \M+1844D\M+18449\M+1844C\M+1844C\M+18449\M+1844D\M+18445\M+18453\M+18451\M+18440\M+18456
  7
SLDTEXTSTYLE1
 73
     1
 44
1.0
  0
MTEXT
  5
84
330
7F
100
AcDbEntity
  8
0
  6
Continuous
 62
     0
370
     0
100
AcDbMText
 10
0.0
 20
-3.0663982786
 30
0.0
 40
1.5
 41
0.0
 71
     1
 72
     1
  1
\M+18459\M+18445\M+18451\M+1844F\M+18456\M+1844F\M+18442\M+18440\M+18453\M+1844F\M+18452\M+18453\M+1845D:
  7
SLDTEXTSTYLE1
 73
     1
 44
1.0
  0
MTEXT
  5
85
330
7F
100
AcDbEntity
  8
0
  6
Continuous
 62
     0
370
     0
100
AcDbMText
 10
0.0
 20
-5.5663982227
 30
0.0
 40
1.5
 41
0.0
 71
     1
 72
     1
  1
\M+18444\M+1844F\M+18450\M+18454\M+18452\M+1844B\M+18449:
  7
SLDTEXTSTYLE1
 73
     1
 44
1.0
  0
MTEXT
  5
86
330
7F
100
AcDbEntity
  8
0
  6
Continuous
 62
     0
370
     0
100
AcDbMText
 10
1.6875
 20
-8.0663981668
 30
0.0
 40
1.5
 41
0.0
 71
     1
 72
     1
  1
\M+1844C\M+18449\M+1844E\M+18445\M+1844A\M+1844E\M+1845C\M+18445:
  7
SLDTEXTSTYLE1
 73
     1
 44
1.0
  0
MTEXT
  5
87
330
7F
100
AcDbEntity
  8
0
  6
Continuous
 62
     0
370
     0
100
AcDbMText
 10
1.6875
 20
-10.5663981109
 30
0.0
 40
1.5
 41
0.0
 71
     1
 72
     1
  1
\M+18454\M+18443\M+1844C\M+1844F\M+18442\M+1845C\M+18445:
  7
SLDTEXTSTYLE1
 73
     1
 44
1.0
  0
ENDBLK
  5
81
330
7F
100
AcDbEntity
  8
0
100
AcDbBlockEnd
  0
BLOCK
  5
B2
330
B1
100
AcDbEntity
  8
0
100
AcDbBlockBegin
  2
SW_CENTERMARKSYMBOL_0
 70
     0
 10
0.0
 20
0.0
 30
0.0
  3
SW_CENTERMARKSYMBOL_0
  1

  0
LINE
  5
B4
330
B1
100
AcDbEntity
  8
0
  6
Continuous
 62
     0
370
     0
100
AcDbLine
 10
0.0
 20
0.0
 30
0.0
 11
0.0
 21
5.0
 31
0.0
  0
LINE
  5
B5
330
B1
100
AcDbEntity
  8
0
  6
Continuous
 62
     0
370
     0
100
AcDbLine
 10
0.0
 20
0.0
 30
0.0
 11
-5.0
 21
0.0
 31
0.0
  0
LINE
  5
B6
330
B1
100
AcDbEntity
  8
0
  6
Continuous
 62
     0
370
     0
100
AcDbLine
 10
0.0
 20
0.0
 30
0.0
 11
0.0
 21
-5.0
 31
0.0
  0
LINE
  5
B7
330
B1
100
AcDbEntity
  8
0
  6
Continuous
 62
     0
370
     0
100
AcDbLine
 10
0.0
 20
0.0
 30
0.0
 11
5.0
 21
0.0
 31
0.0
  0
LINE
  5
B8
330
B1
100
AcDbEntity
  8
0
  6
Continuous
 62
     0
370
     0
100
AcDbLine
 10
0.0
 20
10.0
 30
0.0
 11
0.0
 21
43.0
 31
0.0
  0
LINE
  5
B9
330
B1
100
AcDbEntity
  8
0
  6
Continuous
 62
     0
370
     0
100
AcDbLine
 10
-10.0
 20
0.0
 30
0.0
 11
-43.0
 21
0.0
 31
0.0
  0
LINE
  5
BA
330
B1
100
AcDbEntity
  8
0
  6
Continuous
 62
     0
370
     0
100
AcDbLine
 10
0.0
 20
-10.0
 30
0.0
 11
0.0
 21
-43.0
 31
0.0
  0
LINE
  5
BB
330
B1
100
AcDbEntity
  8
0
  6
Continuous
 62
     0
370
     0
100
AcDbLine
 10
10.0
 20
0.0
 30
0.0
 11
43.0
 21
0.0
 31
0.0
  0
ENDBLK
  5
B3
330
B1
100
AcDbEntity
  8
0
100
AcDbBlockEnd
  0
BLOCK
  5
10D
330
10C
100
AcDbEntity
  8
0
100
AcDbBlockBegin
  2
SW_CENTERMARKSYMBOL_1
 70
     0
 10
0.0
 20
0.0
 30
0.0
  3
SW_CENTERMARKSYMBOL_1
  1

  0
LINE
  5
10F
330
10C
100
AcDbEntity
  8
0
  6
Continuous
 62
     0
370
     0
100
AcDbLine
 10
0.0
 20
0.0
 30
0.0
 11
0.0
 21
5.0
 31
0.0
  0
LINE
  5
110
330
10C
100
AcDbEntity
  8
0
  6
Continuous
 62
     0
370
     0
100
AcDbLine
 10
0.0
 20
0.0
 30
0.0
 11
-5.0
 21
0.0
 31
0.0
  0
LINE
  5
111
330
10C
100
AcDbEntity
  8
0
  6
Continuous
 62
     0
370
     0
100
AcDbLine
 10
0.0
 20
0.0
 30
0.0
 11
0.0
 21
-5.0
 31
0.0
  0
LINE
  5
112
330
10C
100
AcDbEntity
  8
0
  6
Continuous
 62
     0
370
     0
100
AcDbLine
 10
0.0
 20
0.0
 30
0.0
 11
5.0
 21
0.0
 31
0.0
  0
LINE
  5
113
330
10C
100
AcDbEntity
  8
0
  6
Continuous
 62
     0
370
     0
100
AcDbLine
 10
0.0
 20
10.0
 30
0.0
 11
0.0
 21
25.0
 31
0.0
  0
LINE
  5
114
330
10C
100
AcDbEntity
  8
0
  6
Continuous
 62
     0
370
     0
100
AcDbLine
 10
-10.0
 20
0.0
 30
0.0
 11
-25.0
 21
0.0
 31
0.0
  0
LINE
  5
115
330
10C
100
AcDbEntity
  8
0
  6
Continuous
 62
     0
370
     0
100
AcDbLine
 10
0.0
 20
-10.0
 30
0.0
 11
0.0
 21
-25.0
 31
0.0
  0
LINE
  5
116
330
10C
100
AcDbEntity
  8
0
  6
Continuous
 62
     0
370
     0
100
AcDbLine
 10
10.0
 20
0.0
 30
0.0
 11
25.0
 21
0.0
 31
0.0
  0
ENDBLK
  5
10E
330
10C
100
AcDbEntity
  8
0
100
AcDbBlockEnd
  0
BLOCK
  5
119
330
118
100
AcDbEntity
  8
0
100
AcDbBlockBegin
  2
SW_CENTERMARKSYMBOL_2
 70
     0
 10
0.0
 20
0.0
 30
0.0
  3
SW_CENTERMARKSYMBOL_2
  1

  0
LINE
  5
11B
330
118
100
AcDbEntity
  8
0
  6
Continuous
 62
     0
370
     0
100
AcDbLine
 10
0.0
 20
0.0
 30
0.0
 11
0.0
 21
5.0
 31
0.0
  0
LINE
  5
11C
330
118
100
AcDbEntity
  8
0
  6
Continuous
 62
     0
370
     0
100
AcDbLine
 10
0.0
 20
0.0
 30
0.0
 11
-5.0
 21
0.0
 31
0.0
  0
LINE
  5
11D
330
118
100
AcDbEntity
  8
0
  6
Continuous
 62
     0
370
     0
100
AcDbLine
 10
0.0
 20
0.0
 30
0.0
 11
0.0
 21
-5.0
 31
0.0
  0
LINE
  5
11E
330
118
100
AcDbEntity
  8
0
  6
Continuous
 62
     0
370
     0
100
AcDbLine
 10
0.0
 20
0.0
 30
0.0
 11
5.0
 21
0.0
 31
0.0
  0
LINE
  5
11F
330
118
100
AcDbEntity
  8
0
  6
Continuous
 62
     0
370
     0
100
AcDbLine
 10
0.0
 20
10.0
 30
0.0
 11
0.0
 21
11.0
 31
0.0
  0
LINE
  5
120
330
118
100
AcDbEntity
  8
0
  6
Continuous
 62
     0
370
     0
100
AcDbLine
 10
-10.0
 20
0.0
 30
0.0
 11
-11.0
 21
0.0
 31
0.0
  0
LINE
  5
121
330
118
100
AcDbEntity
  8
0
  6
Continuous
 62
     0
370
     0
100
AcDbLine
 10
0.0
 20
-10.0
 30
0.0
 11
0.0
 21
-11.0
 31
0.0
  0
LINE
  5
122
330
118
100
AcDbEntity
  8
0
  6
Continuous
 62
     0
370
     0
100
AcDbLine
 10
10.0
 20
0.0
 30
0.0
 11
11.0
 21
0.0
 31
0.0
  0
ENDBLK
  5
11A
330
118
100
AcDbEntity
  8
0
100
AcDbBlockEnd
  0
BLOCK
  5
125
330
124
100
AcDbEntity
  8
0
100
AcDbBlockBegin
  2
SW_CENTERMARKSYMBOL_3
 70
     0
 10
0.0
 20
0.0
 30
0.0
  3
SW_CENTERMARKSYMBOL_3
  1

  0
LINE
  5
127
330
124
100
AcDbEntity
  8
0
  6
Continuous
 62
     0
370
     0
100
AcDbLine
 10
0.0
 20
0.0
 30
0.0
 11
0.0
 21
5.0
 31
0.0
  0
LINE
  5
128
330
124
100
AcDbEntity
  8
0
  6
Continuous
 62
     0
370
     0
100
AcDbLine
 10
0.0
 20
0.0
 30
0.0
 11
-5.0
 21
0.0
 31
0.0
  0
LINE
  5
129
330
124
100
AcDbEntity
  8
0
  6
Continuous
 62
     0
370
     0
100
AcDbLine
 10
0.0
 20
0.0
 30
0.0
 11
0.0
 21
-5.0
 31
0.0
  0
LINE
  5
12A
330
124
100
AcDbEntity
  8
0
  6
Continuous
 62
     0
370
     0
100
AcDbLine
 10
0.0
 20
0.0
 30
0.0
 11
5.0
 21
0.0
 31
0.0
  0
LINE
  5
12B
330
124
100
AcDbEntity
  8
0
  6
Continuous
 62
     0
370
     0
100
AcDbLine
 10
0.0
 20
10.0
 30
0.0
 11
0.0
 21
11.0
 31
0.0
  0
LINE
  5
12C
330
124
100
AcDbEntity
  8
0
  6
Continuous
 62
     0
370
     0
100
AcDbLine
 10
-10.0
 20
0.0
 30
0.0
 11
-11.0
 21
0.0
 31
0.0
  0
LINE
  5
12D
330
124
100
AcDbEntity
  8
0
  6
Continuous
 62
     0
370
     0
100
AcDbLine
 10
0.0
 20
-10.0
 30
0.0
 11
0.0
 21
-11.0
 31
0.0
  0
LINE
  5
12E
330
124
100
AcDbEntity
  8
0
  6
Continuous
 62
     0
370
     0
100
AcDbLine
 10
10.0
 20
0.0
 30
0.0
 11
11.0
 21
0.0
 31
0.0
  0
ENDBLK
  5
126
330
124
100
AcDbEntity
  8
0
100
AcDbBlockEnd
  0
BLOCK
  5
133
330
132
100
AcDbEntity
  8
0
100
AcDbBlockBegin
  2
_CLOSED
 70
     0
 10
0.0
 20
0.0
 30
0.0
  3
_CLOSED
  1

  0
LINE
  5
135
330
132
100
AcDbEntity
  8
0
  6
ByBlock
 62
     0
370
    -2
100
AcDbLine
 10
-1.0
 20
0.166667
 30
0.0
 11
0.0
 21
0.0
 31
0.0
  0
LINE
  5
136
330
132
100
AcDbEntity
  8
0
  6
ByBlock
 62
     0
370
    -2
100
AcDbLine
 10
0.0
 20
0.0
 30
0.0
 11
-1.0
 21
-0.166667
 31
0.0
  0
LINE
  5
137
330
132
100
AcDbEntity
  8
0
  6
ByBlock
 62
     0
370
    -2
100
AcDbLine
 10
-1.0
 20
0.166667
 30
0.0
 11
-1.0
 21
-0.166667
 31
0.0
  0
LINE
  5
138
330
132
100
AcDbEntity
  8
0
  6
ByBlock
 62
     0
370
    -2
100
AcDbLine
 10
0.0
 20
0.0
 30
0.0
 11
-1.0
 21
0.0
 31
0.0
  0
ENDBLK
  5
134
330
132
100
AcDbEntity
  8
0
100
AcDbBlockEnd
  0
BLOCK
  5
1C2
330
1C1
100
AcDbEntity
  8
0
100
AcDbBlockBegin
  2
SW_NOTE_2
 70
     0
 10
0.0
 20
0.0
 30
0.0
  3
SW_NOTE_2
  1

  0
MTEXT
  5
1C4
330
1C1
100
AcDbEntity
  8
0
  6
Continuous
 62
     0
370
     0
100
AcDbMText
 10
18.4546875
 20
8.1855801476
 30
0.0
 40
6.35
 41
0.0
 71
     2
 72
     1
  1
\M+18452\M+18445\M+18458\M+18445\M+1844E\M+18449\M+18445
  7
SLDTEXTSTYLE1
 73
     1
 44
1.0
  0
MTEXT
  5
1C6
330
1C1
100
AcDbEntity
  8
0
  6
Continuous
 62
     0
370
     0
100
AcDbMText
 10
42.7538551092
 20
5.2788898457
 30
0.0
 40
3.5
 41
0.0
 71
     2
 72
     1
  1
A-A
  7
SLDTEXTSTYLE3
 73
     1
 44
1.0
  0
ENDBLK
  5
1C3
330
1C1
100
AcDbEntity
  8
0
100
AcDbBlockEnd
  0
BLOCK
  5
1E3
330
1E2
100
AcDbEntity
  8
0
100
AcDbBlockBegin
  2
SW_HATCH_0
 70
     0
 10
0.0
 20
0.0
 30
0.0
  3
SW_HATCH_0
  1

  0
LINE
  5
1E5
330
1E2
100
AcDbEntity
  8
0
  6
Continuous
 62
     0
370
     0
100
AcDbLine
 10
0.0
 20
0.0
 30
0.0
 11
-1.8940344453
 21
-1.8940381706
 31
0.0
  0
LINE
  5
1E6
330
1E2
100
AcDbEntity
  8
0
  6
Continuous
 62
     0
370
     0
100
AcDbLine
 10
4.4901296496
 20
0.0
 30
0.0
 11
-3.5098716617
 21
-8.0000013113
 31
0.0
  0
LINE
  5
1E7
330
1E2
100
AcDbEntity
  8
0
  6
Continuous
 62
     0
370
     0
100
AcDbLine
 10
8.9802592993
 20
0.0
 30
0.0
 11
0.980257988
 21
-8.0000013113
 31
0.0
  0
LINE
  5
1E8
330
1E2
100
AcDbEntity
  8
0
  6
Continuous
 62
     0
370
     0
100
AcDbLine
 10
13.4703889489
 20
0.0
 30
0.0
 11
5.4703876376
 21
-8.0000013113
 31
0.0
  0
LINE
  5
1E9
330
1E2
100
AcDbEntity
  8
0
  6
Continuous
 62
     0
370
     0
100
AcDbLine
 10
17.960511148
 20
0.0
 30
0.0
 11
9.9605172873
 21
-8.0000013113
 31
0.0
  0
LINE
  5
1EA
330
1E2
100
AcDbEntity
  8
0
  6
Continuous
 62
     0
370
     0
100
AcDbLine
 10
22.4506407976
 20
0.0
 30
0.0
 11
14.4506394863
 21
-8.0000013113
 31
0.0
  0
LINE
  5
1EB
330
1E2
100
AcDbEntity
  8
0
  6
Continuous
 62
     0
370
     0
100
AcDbLine
 10
26.9407704473
 20
0.0
 30
0.0
 11
18.940769136
 21
-8.0000013113
 31
0.0
  0
LINE
  5
1EC
330
1E2
100
AcDbEntity
  8
0
  6
Continuous
 62
     0
370
     0
100
AcDbLine
 10
31.4309000969
 20
0.0
 30
0.0
 11
23.4308987856
 21
-8.0000013113
 31
0.0
  0
LINE
  5
1ED
330
1E2
100
AcDbEntity
  8
0
  6
Continuous
 62
     0
370
     0
100
AcDbLine
 10
35.921022296
 20
0.0
 30
0.0
 11
27.9210284352
 21
-8.0000013113
 31
0.0
  0
LINE
  5
1EE
330
1E2
100
AcDbEntity
  8
0
  6
Continuous
 62
     0
370
     0
100
AcDbLine
 10
40.4111593962
 20
0.0
 30
0.0
 11
32.4111580849
 21
-8.0000013113
 31
0.0
  0
LINE
  5
1EF
330
1E2
100
AcDbEntity
  8
0
  6
Continuous
 62
     0
370
     0
100
AcDbLine
 10
44.9012815952
 20
0.0
 30
0.0
 11
36.9012802839
 21
-8.0000013113
 31
0.0
  0
LINE
  5
1F0
330
1E2
100
AcDbEntity
  8
0
  6
Continuous
 62
     0
370
     0
100
AcDbLine
 10
49.3914037943
 20
0.0
 30
0.0
 11
41.3914173841
 21
-8.0000013113
 31
0.0
  0
LINE
  5
1F1
330
1E2
100
AcDbEntity
  8
0
  6
Continuous
 62
     0
370
     0
100
AcDbLine
 10
53.8815408945
 20
0.0
 30
0.0
 11
45.8815395832
 21
-8.0000013113
 31
0.0
  0
LINE
  5
1F2
330
1E2
100
AcDbEntity
  8
0
  6
Continuous
 62
     0
370
     0
100
AcDbLine
 10
58.3716630936
 20
0.0
 30
0.0
 11
50.3716617823
 21
-8.0000013113
 31
0.0
  0
LINE
  5
1F3
330
1E2
100
AcDbEntity
  8
0
  6
Continuous
 62
     0
370
     0
100
AcDbLine
 10
62.8618001938
 20
0.0
 30
0.0
 11
54.8617988825
 21
-8.0000013113
 31
0.0
  0
LINE
  5
1F4
330
1E2
100
AcDbEntity
  8
0
  6
Continuous
 62
     0
370
     0
100
AcDbLine
 10
67.3519223928
 20
0.0
 30
0.0
 11
55.5725693703
 21
-11.7793492973
 31
0.0
  0
LINE
  5
1F5
330
1E2
100
AcDbEntity
  8
0
  6
Continuous
 62
     0
370
     0
100
AcDbLine
 10
71.8420445919
 20
0.0
 30
0.0
 11
55.5725693703
 21
-16.2694752216
 31
0.0
  0
LINE
  5
1F6
330
1E2
100
AcDbEntity
  8
0
  6
Continuous
 62
     0
370
     0
100
AcDbLine
 10
76.3321816921
 20
0.0
 30
0.0
 11
55.5725693703
 21
-20.7596048713
 31
0.0
  0
LINE
  5
1F7
330
1E2
100
AcDbEntity
  8
0
  6
Continuous
 62
     0
370
     0
100
AcDbLine
 10
80.8223038912
 20
0.0
 30
0.0
 11
55.5725693703
 21
-25.2497307956
 31
0.0
  0
LINE
  5
1F8
330
1E2
100
AcDbEntity
  8
0
  6
Continuous
 62
     0
370
     0
100
AcDbLine
 10
85.3124409914
 20
0.0
 30
0.0
 11
55.5725693703
 21
-29.7398641706
 31
0.0
  0
LINE
  5
1F9
330
1E2
100
AcDbEntity
  8
0
  6
Continuous
 62
     0
370
     0
100
AcDbLine
 10
67.5725787878
 20
-22.2299881279
 30
0.0
 11
57.8025579453
 21
-31.9999977946
 31
0.0
  0
LINE
  5
1FA
330
1E2
100
AcDbEntity
  8
0
  6
Continuous
 62
     0
370
     0
100
AcDbLine
 10
89.8025631905
 20
0.0
 30
0.0
 11
69.8025673628
 21
-19.999999553
 31
0.0
  0
LINE
  5
1FB
330
1E2
100
AcDbEntity
  8
0
  6
Continuous
 62
     0
370
     0
100
AcDbLine
 10
67.5725787878
 20
-26.7201177776
 30
0.0
 11
62.2926950455
 21
-31.9999977946
 31
0.0
  0
LINE
  5
1FC
330
1E2
100
AcDbEntity
  8
0
  6
Continuous
 62
     0
370
     0
100
AcDbLine
 10
94.2926853895
 20
0.0
 30
0.0
 11
74.2926895618
 21
-19.999999553
 31
0.0
  0
LINE
  5
1FD
330
1E2
100
AcDbEntity
  8
0
  6
Continuous
 62
     0
370
     0
100
AcDbLine
 10
67.5725787878
 20
-31.2102437019
 30
0.0
 11
66.7828172445
 21
-31.9999977946
 31
0.0
  0
LINE
  5
1FE
330
1E2
100
AcDbEntity
  8
0
  6
Continuous
 62
     0
370
     0
100
AcDbLine
 10
98.7828224897
 20
0.0
 30
0.0
 11
78.7828117609
 21
-19.999999553
 31
0.0
  0
LINE
  5
1FF
330
1E2
100
AcDbEntity
  8
0
  6
Continuous
 62
     0
370
     0
100
AcDbLine
 10
103.2729446888
 20
0.0
 30
0.0
 11
83.2729488611
 21
-19.999999553
 31
0.0
  0
LINE
  5
200
330
1E2
100
AcDbEntity
  8
0
  6
Continuous
 62
     0
370
     0
100
AcDbLine
 10
107.763081789
 20
0.0
 30
0.0
 11
87.7630710602
 21
-19.999999553
 31
0.0
  0
LINE
  5
201
330
1E2
100
AcDbEntity
  8
0
  6
Continuous
 62
     0
370
     0
100
AcDbLine
 10
112.2532039881
 20
0.0
 30
0.0
 11
92.2532081604
 21
-19.999999553
 31
0.0
  0
LINE
  5
202
330
1E2
100
AcDbEntity
  8
0
  6
Continuous
 62
     0
370
     0
100
AcDbLine
 10
99.5725691319
 20
-17.1707570553
 30
0.0
 11
96.7433303595
 21
-19.999999553
 31
0.0
  0
LINE
  5
203
330
1E2
100
AcDbEntity
  8
0
  6
Continuous
 62
     0
370
     0
100
AcDbLine
 10
115.5725717545
 20
-1.170758158
 30
0.0
 11
100.7433384657
 21
-15.9999988973
 31
0.0
  0
LINE
  5
204
330
1E2
100
AcDbEntity
  8
0
  6
Continuous
 62
     0
370
     0
100
AcDbLine
 10
115.5725717545
 20
-5.6608840823
 30
0.0
 11
105.2334606647
 21
-15.9999988973
 31
0.0
  0
LINE
  5
205
330
1E2
100
AcDbEntity
  8
0
  6
Continuous
 62
     0
370
     0
100
AcDbLine
 10
115.5725717545
 20
-10.151013732
 30
0.0
 11
109.7235828638
 21
-15.9999988973
 31
0.0
  0
LINE
  5
206
330
1E2
100
AcDbEntity
  8
0
  6
Continuous
 62
     0
370
     0
100
AcDbLine
 10
115.5725717545
 20
-14.6411396563
 30
0.0
 11
114.213719964
 21
-15.9999988973
 31
0.0
  0
LINE
  5
207
330
1E2
100
AcDbEntity
  8
0
  6
Continuous
 62
     0
370
     0
100
AcDbLine
 10
1.3914108276
 20
-7.5888484716
 30
0.0
 11
-2.7387067676
 21
-3.4587308764
 31
0.0
  0
LINE
  5
208
330
1E2
100
AcDbEntity
  8
0
  6
Continuous
 62
     0
370
     0
100
AcDbLine
 10
-0.8536502719
 20
-0.8536539972
 30
0.0
 11
-1.1450275779
 21
-0.5622766912
 31
0.0
  0
LINE
  5
209
330
1E2
100
AcDbEntity
  8
0
  6
Continuous
 62
     0
370
     0
100
AcDbLine
 10
6.2926933169
 20
-8.0000013113
 30
0.0
 11
2.5139451027
 21
-4.2212530971
 31
0.0
  0
LINE
  5
20A
330
1E2
100
AcDbEntity
  8
0
  6
Continuous
 62
     0
370
     0
100
AcDbLine
 10
5.8815404773
 20
-3.098718822
 30
0.0
 11
2.7828216553
 21
0.0
 31
0.0
  0
LINE
  5
20B
330
1E2
100
AcDbEntity
  8
0
  6
Continuous
 62
     0
370
     0
100
AcDbLine
 10
10.782815516
 20
-8.0000013113
 30
0.0
 11
9.2491358519
 21
-6.4663141966
 31
0.0
  0
LINE
  5
20C
330
1E2
100
AcDbEntity
  8
0
  6
Continuous
 62
     0
370
     0
100
AcDbLine
 10
12.6167312264
 20
-5.3437836468
 30
0.0
 11
7.2729438543
 21
0.0
 31
0.0
  0
LINE
  5
20D
330
1E2
100
AcDbEntity
  8
0
  6
Continuous
 62
     0
370
     0
100
AcDbLine
 10
19.3519219756
 20
-7.5888484716
 30
0.0
 11
13.7392655015
 21
-1.9761882722
 31
0.0
  0
LINE
  5
20E
330
1E2
100
AcDbEntity
  8
0
  6
Continuous
 62
     0
370
     0
100
AcDbLine
 10
17.1068608761
 20
-0.8536539972
 30
0.0
 11
16.2532031536
 21
0.0
 31
0.0
  0
LINE
  5
20F
330
1E2
100
AcDbEntity
  8
0
  6
Continuous
 62
     0
370
     0
100
AcDbLine
 10
24.2532044649
 20
-8.0000013113
 30
0.0
 11
20.4744562507
 21
-4.2212530971
 31
0.0
  0
LINE
  5
210
330
1E2
100
AcDbEntity
  8
0
  6
Continuous
 62
     0
370
     0
100
AcDbLine
 10
23.8420516253
 20
-3.098718822
 30
0.0
 11
20.7433328032
 21
0.0
 31
0.0
  0
LINE
  5
211
330
1E2
100
AcDbEntity
  8
0
  6
Continuous
 62
     0
370
     0
100
AcDbLine
 10
28.743326664
 20
-8.0000013113
 30
0.0
 11
27.2096469998
 21
-6.4663141966
 31
0.0
  0
LINE
  5
212
330
1E2
100
AcDbEntity
  8
0
  6
Continuous
 62
     0
370
     0
100
AcDbLine
 10
57.2334527969
 20
-31.9999977946
 30
0.0
 11
55.5725693703
 21
-30.339114368
 31
0.0
  0
LINE
  5
213
330
1E2
100
AcDbEntity
  8
0
  6
Continuous
 62
     0
370
     0
100
AcDbLine
 10
30.5772423744
 20
-5.3437836468
 30
0.0
 11
25.2334624529
 21
0.0
 31
0.0
  0
LINE
  5
214
330
1E2
100
AcDbEntity
  8
0
  6
Continuous
 62
     0
370
     0
100
AcDbLine
 10
61.7235898972
 20
-31.9999977946
 30
0.0
 11
58.6405396461
 21
-28.9169549942
 31
0.0
  0
LINE
  5
215
330
1E2
100
AcDbEntity
  8
0
  6
Continuous
 62
     0
370
     0
100
AcDbLine
 10
37.3124331236
 20
-7.5888484716
 30
0.0
 11
31.6997766495
 21
-1.9761882722
 31
0.0
  0
LINE
  5
216
330
1E2
100
AcDbEntity
  8
0
  6
Continuous
 62
     0
370
     0
100
AcDbLine
 10
62.0081424713
 20
-27.7944244444
 30
0.0
 11
56.3954859972
 21
-22.181764245
 31
0.0
  0
LINE
  5
217
330
1E2
100
AcDbEntity
  8
0
  6
Continuous
 62
     0
370
     0
100
AcDbLine
 10
66.2137120962
 20
-31.9999977946
 30
0.0
 11
65.3757303953
 21
-31.1620160937
 31
0.0
  0
LINE
  5
218
330
1E2
100
AcDbEntity
  8
0
  6
Continuous
 62
     0
370
     0
100
AcDbLine
 10
35.0673645735
 20
-0.8536539972
 30
0.0
 11
34.2137217522
 21
0.0
 31
0.0
  0
LINE
  5
219
330
1E2
100
AcDbEntity
  8
0
  6
Continuous
 62
     0
370
     0
100
AcDbLine
 10
42.2137081623
 20
-8.0000013113
 30
0.0
 11
38.4349673986
 21
-4.2212530971
 31
0.0
  0
LINE
  5
21A
330
1E2
100
AcDbEntity
  8
0
  6
Continuous
 62
     0
370
     0
100
AcDbLine
 10
59.7630739212
 20
-21.05922997
 30
0.0
 11
55.5725693703
 21
-16.8687291443
 31
0.0
  0
LINE
  5
21B
330
1E2
100
AcDbEntity
  8
0
  6
Continuous
 62
     0
370
     0
100
AcDbLine
 10
67.5725787878
 20
-28.868727386
 30
0.0
 11
63.1306767464
 21
-24.4268290699
 31
0.0
  0
LINE
  5
21C
330
1E2
100
AcDbEntity
  8
0
  6
Continuous
 62
     0
370
     0
100
AcDbLine
 10
41.8025702238
 20
-3.098718822
 30
0.0
 11
38.7038439512
 21
0.0
 31
0.0
  0
LINE
  5
21D
330
1E2
100
AcDbEntity
  8
0
  6
Continuous
 62
     0
370
     0
100
AcDbLine
 10
46.7038452625
 20
-8.0000013113
 30
0.0
 11
45.1701581478
 21
-6.4663141966
 31
0.0
  0
LINE
  5
21E
330
1E2
100
AcDbEntity
  8
0
  6
Continuous
 62
     0
370
     0
100
AcDbLine
 10
57.5180053711
 20
-14.3240392208
 30
0.0
 11
55.5725693703
 21
-12.37860322
 31
0.0
  0
LINE
  5
21F
330
1E2
100
AcDbEntity
  8
0
  6
Continuous
 62
     0
370
     0
100
AcDbLine
 10
66.4982646704
 20
-23.3042947948
 30
0.0
 11
60.8856081963
 21
-17.6916345954
 31
0.0
  0
LINE
  5
220
330
1E2
100
AcDbEntity
  8
0
  6
Continuous
 62
     0
370
     0
100
AcDbLine
 10
48.537760973
 20
-5.3437836468
 30
0.0
 11
43.1939661503
 21
0.0
 31
0.0
  0
LINE
  5
221
330
1E2
100
AcDbEntity
  8
0
  6
Continuous
 62
     0
370
     0
100
AcDbLine
 10
55.2729517221
 20
-7.5888484716
 30
0.0
 11
49.6602803469
 21
-1.9761882722
 31
0.0
  0
LINE
  5
222
330
1E2
100
AcDbEntity
  8
0
  6
Continuous
 62
     0
370
     0
100
AcDbLine
 10
64.2531961203
 20
-16.5691040456
 30
0.0
 11
58.6405396461
 21
-10.9564438462
 31
0.0
  0
LINE
  5
223
330
1E2
100
AcDbEntity
  8
0
  6
Continuous
 62
     0
370
     0
100
AcDbLine
 10
67.6840990782
 20
-19.999999553
 30
0.0
 11
67.6207989454
 21
-19.9366994202
 31
0.0
  0
LINE
  5
224
330
1E2
100
AcDbEntity
  8
0
  6
Continuous
 62
     0
370
     0
100
AcDbLine
 10
53.027883172
 20
-0.8536539972
 30
0.0
 11
52.1742254496
 21
0.0
 31
0.0
  0
LINE
  5
225
330
1E2
100
AcDbEntity
  8
0
  6
Continuous
 62
     0
370
     0
100
AcDbLine
 10
62.0081424713
 20
-9.8339132965
 30
0.0
 11
56.3954859972
 21
-4.2212530971
 31
0.0
  0
LINE
  5
226
330
1E2
100
AcDbEntity
  8
0
  6
Continuous
 62
     0
370
     0
100
AcDbLine
 10
70.9884017706
 20
-18.8141688704
 30
0.0
 11
65.3757303953
 21
-13.201508671
 31
0.0
  0
LINE
  5
227
330
1E2
100
AcDbEntity
  8
0
  6
Continuous
 62
     0
370
     0
100
AcDbLine
 10
59.7630739212
 20
-3.098718822
 30
0.0
 11
56.6643625498
 21
0.0
 31
0.0
  0
LINE
  5
228
330
1E2
100
AcDbEntity
  8
0
  6
Continuous
 62
     0
370
     0
100
AcDbLine
 10
68.7433332205
 20
-12.078974396
 30
0.0
 11
63.1306767464
 21
-6.4663141966
 31
0.0
  0
LINE
  5
229
330
1E2
100
AcDbEntity
  8
0
  6
Continuous
 62
     0
370
     0
100
AcDbLine
 10
76.6643583775
 20
-19.999999553
 30
0.0
 11
72.1109211445
 21
-15.4465697706
 31
0.0
  0
LINE
  5
22A
330
1E2
100
AcDbEntity
  8
0
  6
Continuous
 62
     0
370
     0
100
AcDbLine
 10
66.4982646704
 20
-5.3437836468
 30
0.0
 11
61.1544847488
 21
0.0
 31
0.0
  0
LINE
  5
22B
330
1E2
100
AcDbEntity
  8
0
  6
Continuous
 62
     0
370
     0
100
AcDbLine
 10
75.4785239697
 20
-14.3240392208
 30
0.0
 11
69.8658674955
 21
-8.7113790214
 31
0.0
  0
LINE
  5
22C
330
1E2
100
AcDbEntity
  8
0
  6
Continuous
 62
     0
370
     0
100
AcDbLine
 10
81.1544805765
 20
-19.999999553
 30
0.0
 11
78.8461267948
 21
-17.6916345954
 31
0.0
  0
LINE
  5
22D
330
1E2
100
AcDbEntity
  8
0
  6
Continuous
 62
     0
370
     0
100
AcDbLine
 10
73.2334554195
 20
-7.5888484716
 30
0.0
 11
67.6207989454
 21
-1.9761882722
 31
0.0
  0
LINE
  5
22E
330
1E2
100
AcDbEntity
  8
0
  6
Continuous
 62
     0
370
     0
100
AcDbLine
 10
82.2137147188
 20
-16.5691040456
 30
0.0
 11
76.6010582447
 21
-10.9564438462
 31
0.0
  0
LINE
  5
22F
330
1E2
100
AcDbEntity
  8
0
  6
Continuous
 62
     0
370
     0
100
AcDbLine
 10
85.6446176767
 20
-19.999999553
 30
0.0
 11
85.581317544
 21
-19.9366994202
 31
0.0
  0
LINE
  5
230
330
1E2
100
AcDbEntity
  8
0
  6
Continuous
 62
     0
370
     0
100
AcDbLine
 10
70.9884017706
 20
-0.8536539972
 30
0.0
 11
70.1347440481
 21
0.0
 31
0.0
  0
LINE
  5
231
330
1E2
100
AcDbEntity
  8
0
  6
Continuous
 62
     0
370
     0
100
AcDbLine
 10
79.9686461687
 20
-9.8339132965
 30
0.0
 11
74.3559896946
 21
-4.2212530971
 31
0.0
  0
LINE
  5
232
330
1E2
100
AcDbEntity
  8
0
  6
Continuous
 62
     0
370
     0
100
AcDbLine
 10
88.948905468
 20
-18.8141688704
 30
0.0
 11
83.3362489939
 21
-13.201508671
 31
0.0
  0
LINE
  5
233
330
1E2
100
AcDbEntity
  8
0
  6
Continuous
 62
     0
370
     0
100
AcDbLine
 10
77.7235925198
 20
-3.098718822
 30
0.0
 11
74.6248662472
 21
0.0
 31
0.0
  0
LINE
  5
234
330
1E2
100
AcDbEntity
  8
0
  6
Continuous
 62
     0
370
     0
100
AcDbLine
 10
86.7038369179
 20
-12.078974396
 30
0.0
 11
81.0911804438
 21
-6.4663141966
 31
0.0
  0
LINE
  5
235
330
1E2
100
AcDbEntity
  8
0
  6
Continuous
 62
     0
370
     0
100
AcDbLine
 10
94.6248620749
 20
-19.999999553
 30
0.0
 11
90.071439743
 21
-15.4465697706
 31
0.0
  0
LINE
  5
236
330
1E2
100
AcDbEntity
  8
0
  6
Continuous
 62
     0
370
     0
100
AcDbLine
 10
84.4587832689
 20
-5.3437836468
 30
0.0
 11
79.1150033474
 21
0.0
 31
0.0
  0
LINE
  5
237
330
1E2
100
AcDbEntity
  8
0
  6
Continuous
 62
     0
370
     0
100
AcDbLine
 10
93.4390425682
 20
-14.3240392208
 30
0.0
 11
87.8263711929
 21
-8.7113790214
 31
0.0
  0
LINE
  5
238
330
1E2
100
AcDbEntity
  8
0
  6
Continuous
 62
     0
370
     0
100
AcDbLine
 10
99.1149991751
 20
-19.999999553
 30
0.0
 11
96.8066304922
 21
-17.6916345954
 31
0.0
  0
LINE
  5
239
330
1E2
100
AcDbEntity
  8
0
  6
Continuous
 62
     0
370
     0
100
AcDbLine
 10
91.1939740181
 20
-7.5888484716
 30
0.0
 11
85.581317544
 21
-1.9761882722
 31
0.0
  0
LINE
  5
23A
330
1E2
100
AcDbEntity
  8
0
  6
Continuous
 62
     0
370
     0
100
AcDbLine
 10
99.6051281691
 20
-15.9999988973
 30
0.0
 11
94.5615619421
 21
-10.9564438462
 31
0.0
  0
LINE
  5
23B
330
1E2
100
AcDbEntity
  8
0
  6
Continuous
 62
     0
370
     0
100
AcDbLine
 10
88.948905468
 20
-0.8536539972
 30
0.0
 11
88.0952477455
 21
0.0
 31
0.0
  0
LINE
  5
23C
330
1E2
100
AcDbEntity
  8
0
  6
Continuous
 62
     0
370
     0
100
AcDbLine
 10
97.9291647673
 20
-9.8339132965
 30
0.0
 11
92.3165082932
 21
-4.2212530971
 31
0.0
  0
LINE
  5
23D
330
1E2
100
AcDbEntity
  8
0
  6
Continuous
 62
     0
370
     0
100
AcDbLine
 10
104.0952503681
 20
-15.9999988973
 30
0.0
 11
101.2967526913
 21
-13.201508671
 31
0.0
  0
LINE
  5
23E
330
1E2
100
AcDbEntity
  8
0
  6
Continuous
 62
     0
370
     0
100
AcDbLine
 10
95.6840962172
 20
-3.098718822
 30
0.0
 11
92.5853848457
 21
0.0
 31
0.0
  0
LINE
  5
23F
330
1E2
100
AcDbEntity
  8
0
  6
Continuous
 62
     0
370
     0
100
AcDbLine
 10
104.6643555164
 20
-12.078974396
 30
0.0
 11
99.0516990423
 21
-6.4663141966
 31
0.0
  0
LINE
  5
240
330
1E2
100
AcDbEntity
  8
0
  6
Continuous
 62
     0
370
     0
100
AcDbLine
 10
108.5853874683
 20
-15.9999988973
 30
0.0
 11
108.0319583416
 21
-15.4465697706
 31
0.0
  0
LINE
  5
241
330
1E2
100
AcDbEntity
  8
0
  6
Continuous
 62
     0
370
     0
100
AcDbLine
 10
102.4192869663
 20
-5.3437836468
 30
0.0
 11
97.0755070448
 21
0.0
 31
0.0
  0
LINE
  5
242
330
1E2
100
AcDbEntity
  8
0
  6
Continuous
 62
     0
370
     0
100
AcDbLine
 10
111.3995462656
 20
-14.3240392208
 30
0.0
 11
105.7868897915
 21
-8.7113790214
 31
0.0
  0
LINE
  5
243
330
1E2
100
AcDbEntity
  8
0
  6
Continuous
 62
     0
370
     0
100
AcDbLine
 10
109.1544777155
 20
-7.5888484716
 30
0.0
 11
103.5418212414
 21
-1.9761882722
 31
0.0
  0
LINE
  5
244
330
1E2
100
AcDbEntity
  8
0
  6
Continuous
 62
     0
370
     0
100
AcDbLine
 10
115.5725717545
 20
-14.0069387853
 30
0.0
 11
112.5220805407
 21
-10.9564438462
 31
0.0
  0
LINE
  5
245
330
1E2
100
AcDbEntity
  8
0
  6
Continuous
 62
     0
370
     0
100
AcDbLine
 10
106.9094240665
 20
-0.8536539972
 30
0.0
 11
106.0557663441
 21
0.0
 31
0.0
  0
LINE
  5
246
330
1E2
100
AcDbEntity
  8
0
  6
Continuous
 62
     0
370
     0
100
AcDbLine
 10
115.5725717545
 20
-9.5168091357
 30
0.0
 11
110.2770119905
 21
-4.2212530971
 31
0.0
  0
LINE
  5
247
330
1E2
100
AcDbEntity
  8
0
  6
Continuous
 62
     0
370
     0
100
AcDbLine
 10
113.6446148157
 20
-3.098718822
 30
0.0
 11
110.5458885431
 21
0.0
 31
0.0
  0
LINE
  5
248
330
1E2
100
AcDbEntity
  8
0
  6
Continuous
 62
     0
370
     0
100
AcDbLine
 10
115.5725717545
 20
-0.5365535617
 30
0.0
 11
115.0360256433
 21
0.0
 31
0.0
  0
LINE
  5
249
330
1E2
100
AcDbEntity
  8
0
  6
Continuous
 62
     0
370
     0
100
AcDbLine
 10
-2.6875659823
 20
-87.9999995232
 30
0.0
 11
-4.2466893792
 21
-89.5591154695
 31
0.0
  0
LINE
  5
24A
330
1E2
100
AcDbEntity
  8
0
  6
Continuous
 62
     0
370
     0
100
AcDbLine
 10
1.8025636673
 20
-87.9999995232
 30
0.0
 11
-2.7387067676
 21
-92.541269958
 31
0.0
  0
LINE
  5
24B
330
1E2
100
AcDbEntity
  8
0
  6
Continuous
 62
     0
370
     0
100
AcDbLine
 10
6.2926933169
 20
-87.9999995232
 30
0.0
 11
-1.1450350285
 21
-95.4377129674
 31
0.0
  0
LINE
  5
24C
330
1E2
100
AcDbEntity
  8
0
  6
Continuous
 62
     0
370
     0
100
AcDbLine
 10
10.782815516
 20
-87.9999995232
 30
0.0
 11
2.7828216553
 21
-95.9999933839
 31
0.0
  0
LINE
  5
24D
330
1E2
100
AcDbEntity
  8
0
  6
Continuous
 62
     0
370
     0
100
AcDbLine
 10
15.2729451656
 20
-87.9999995232
 30
0.0
 11
7.2729438543
 21
-95.9999933839
 31
0.0
  0
LINE
  5
24E
330
1E2
100
AcDbEntity
  8
0
  6
Continuous
 62
     0
370
     0
100
AcDbLine
 10
19.7630748153
 20
-87.9999995232
 30
0.0
 11
11.763073504
 21
-95.9999933839
 31
0.0
  0
LINE
  5
24F
330
1E2
100
AcDbEntity
  8
0
  6
Continuous
 62
     0
370
     0
100
AcDbLine
 10
24.2532044649
 20
-87.9999995232
 30
0.0
 11
16.2532031536
 21
-95.9999933839
 31
0.0
  0
LINE
  5
250
330
1E2
100
AcDbEntity
  8
0
  6
Continuous
 62
     0
370
     0
100
AcDbLine
 10
28.743326664
 20
-87.9999995232
 30
0.0
 11
20.7433328032
 21
-95.9999933839
 31
0.0
  0
LINE
  5
251
330
1E2
100
AcDbEntity
  8
0
  6
Continuous
 62
     0
370
     0
100
AcDbLine
 10
33.2334637642
 20
-87.9999995232
 30
0.0
 11
25.2334624529
 21
-95.9999933839
 31
0.0
  0
LINE
  5
252
330
1E2
100
AcDbEntity
  8
0
  6
Continuous
 62
     0
370
     0
100
AcDbLine
 10
57.2334527969
 20
-64.0000030398
 30
0.0
 11
55.5725693703
 21
-65.6608864665
 31
0.0
  0
LINE
  5
253
330
1E2
100
AcDbEntity
  8
0
  6
Continuous
 62
     0
370
     0
100
AcDbLine
 10
37.7235859632
 20
-87.9999995232
 30
0.0
 11
29.7235846519
 21
-95.9999933839
 31
0.0
  0
LINE
  5
254
330
1E2
100
AcDbEntity
  8
0
  6
Continuous
 62
     0
370
     0
100
AcDbLine
 10
61.7235898972
 20
-64.0000030398
 30
0.0
 11
55.5725693703
 21
-70.1510161161
 31
0.0
  0
LINE
  5
255
330
1E2
100
AcDbEntity
  8
0
  6
Continuous
 62
     0
370
     0
100
AcDbLine
 10
42.2137081623
 20
-87.9999995232
 30
0.0
 11
34.2137217522
 21
-95.9999933839
 31
0.0
  0
LINE
  5
256
330
1E2
100
AcDbEntity
  8
0
  6
Continuous
 62
     0
370
     0
100
AcDbLine
 10
66.2137120962
 20
-64.0000030398
 30
0.0
 11
55.5725693703
 21
-74.6411383152
 31
0.0
  0
LINE
  5
257
330
1E2
100
AcDbEntity
  8
0
  6
Continuous
 62
     0
370
     0
100
AcDbLine
 10
46.7038452625
 20
-87.9999995232
 30
0.0
 11
38.7038439512
 21
-95.9999933839
 31
0.0
  0
LINE
  5
258
330
1E2
100
AcDbEntity
  8
0
  6
Continuous
 62
     0
370
     0
100
AcDbLine
 10
67.5725787878
 20
-67.1312659979
 30
0.0
 11
55.5725693703
 21
-79.1312679648
 31
0.0
  0
LINE
  5
259
330
1E2
100
AcDbEntity
  8
0
  6
Continuous
 62
     0
370
     0
100
AcDbLine
 10
51.1939674616
 20
-87.9999995232
 30
0.0
 11
43.1939661503
 21
-95.9999933839
 31
0.0
  0
LINE
  5
25A
330
1E2
100
AcDbEntity
  8
0
  6
Continuous
 62
     0
370
     0
100
AcDbLine
 10
67.5725787878
 20
-71.6213956475
 30
0.0
 11
55.5725693703
 21
-83.6213976145
 31
0.0
  0
LINE
  5
25B
330
1E2
100
AcDbEntity
  8
0
  6
Continuous
 62
     0
370
     0
100
AcDbLine
 10
67.6840990782
 20
-75.9999975562
 30
0.0
 11
47.6841032505
 21
-95.9999933839
 31
0.0
  0
LINE
  5
25C
330
1E2
100
AcDbEntity
  8
0
  6
Continuous
 62
     0
370
     0
100
AcDbLine
 10
72.1742212772
 20
-75.9999975562
 30
0.0
 11
52.1742254496
 21
-95.9999933839
 31
0.0
  0
LINE
  5
25D
330
1E2
100
AcDbEntity
  8
0
  6
Continuous
 62
     0
370
     0
100
AcDbLine
 10
76.6643583775
 20
-75.9999975562
 30
0.0
 11
56.6643625498
 21
-95.9999933839
 31
0.0
  0
LINE
  5
25E
330
1E2
100
AcDbEntity
  8
0
  6
Continuous
 62
     0
370
     0
100
AcDbLine
 10
81.1544805765
 20
-75.9999975562
 30
0.0
 11
61.1544847488
 21
-95.9999933839
 31
0.0
  0
LINE
  5
25F
330
1E2
100
AcDbEntity
  8
0
  6
Continuous
 62
     0
370
     0
100
AcDbLine
 10
85.6446176767
 20
-75.9999975562
 30
0.0
 11
65.6446069479
 21
-95.9999933839
 31
0.0
  0
LINE
  5
260
330
1E2
100
AcDbEntity
  8
0
  6
Continuous
 62
     0
370
     0
100
AcDbLine
 10
90.1347398758
 20
-75.9999975562
 30
0.0
 11
70.1347440481
 21
-95.9999933839
 31
0.0
  0
LINE
  5
261
330
1E2
100
AcDbEntity
  8
0
  6
Continuous
 62
     0
370
     0
100
AcDbLine
 10
94.6248620749
 20
-75.9999975562
 30
0.0
 11
74.6248662472
 21
-95.9999933839
 31
0.0
  0
LINE
  5
262
330
1E2
100
AcDbEntity
  8
0
  6
Continuous
 62
     0
370
     0
100
AcDbLine
 10
99.1149991751
 20
-75.9999975562
 30
0.0
 11
79.1150033474
 21
-95.9999933839
 31
0.0
  0
LINE
  5
263
330
1E2
100
AcDbEntity
  8
0
  6
Continuous
 62
     0
370
     0
100
AcDbLine
 10
99.6051281691
 20
-79.9999982119
 30
0.0
 11
83.6051255465
 21
-95.9999933839
 31
0.0
  0
LINE
  5
264
330
1E2
100
AcDbEntity
  8
0
  6
Continuous
 62
     0
370
     0
100
AcDbLine
 10
104.0952503681
 20
-79.9999982119
 30
0.0
 11
88.0952477455
 21
-95.9999933839
 31
0.0
  0
LINE
  5
265
330
1E2
100
AcDbEntity
  8
0
  6
Continuous
 62
     0
370
     0
100
AcDbLine
 10
108.5853874683
 20
-79.9999982119
 30
0.0
 11
92.5853848457
 21
-95.9999933839
 31
0.0
  0
LINE
  5
266
330
1E2
100
AcDbEntity
  8
0
  6
Continuous
 62
     0
370
     0
100
AcDbLine
 10
113.0755096674
 20
-79.9999982119
 30
0.0
 11
97.0755070448
 21
-95.9999933839
 31
0.0
  0
LINE
  5
267
330
1E2
100
AcDbEntity
  8
0
  6
Continuous
 62
     0
370
     0
100
AcDbLine
 10
115.5725717545
 20
-81.9930657744
 30
0.0
 11
101.5656292439
 21
-95.9999933839
 31
0.0
  0
LINE
  5
268
330
1E2
100
AcDbEntity
  8
0
  6
Continuous
 62
     0
370
     0
100
AcDbLine
 10
115.5725717545
 20
-86.4831879735
 30
0.0
 11
106.0557663441
 21
-95.9999933839
 31
0.0
  0
LINE
  5
269
330
1E2
100
AcDbEntity
  8
0
  6
Continuous
 62
     0
370
     0
100
AcDbLine
 10
115.5725717545
 20
-90.9733176231
 30
0.0
 11
110.5458885431
 21
-95.9999933839
 31
0.0
  0
LINE
  5
26A
330
1E2
100
AcDbEntity
  8
0
  6
Continuous
 62
     0
370
     0
100
AcDbLine
 10
115.5725717545
 20
-95.4634472728
 30
0.0
 11
115.0360256433
 21
-95.9999933839
 31
0.0
  0
LINE
  5
26B
330
1E2
100
AcDbEntity
  8
0
  6
Continuous
 62
     0
370
     0
100
AcDbLine
 10
0.0
 20
-95.9999933839
 30
0.0
 11
-1.8940418959
 21
-94.105951488
 31
0.0
  0
LINE
  5
26C
330
1E2
100
AcDbEntity
  8
0
  6
Continuous
 62
     0
370
     0
100
AcDbLine
 10
-0.8536502719
 20
-90.6562134624
 30
0.0
 11
-3.5098716617
 21
-87.9999995232
 31
0.0
  0
LINE
  5
26D
330
1E2
100
AcDbEntity
  8
0
  6
Continuous
 62
     0
370
     0
100
AcDbLine
 10
4.4901296496
 20
-95.9999933839
 30
0.0
 11
2.5139451027
 21
-94.0238162875
 31
0.0
  0
LINE
  5
26E
330
1E2
100
AcDbEntity
  8
0
  6
Continuous
 62
     0
370
     0
100
AcDbLine
 10
5.8815404773
 20
-92.9012820125
 30
0.0
 11
0.980257988
 21
-87.9999995232
 31
0.0
  0
LINE
  5
26F
330
1E2
100
AcDbEntity
  8
0
  6
Continuous
 62
     0
370
     0
100
AcDbLine
 10
12.6167312264
 20
-95.1463505626
 30
0.0
 11
7.0040673018
 21
-89.5336866379
 31
0.0
  0
LINE
  5
270
330
1E2
100
AcDbEntity
  8
0
  6
Continuous
 62
     0
370
     0
100
AcDbLine
 10
10.3716701269
 20
-88.4111523628
 30
0.0
 11
9.9605172873
 21
-87.9999995232
 31
0.0
  0
LINE
  5
271
330
1E2
100
AcDbEntity
  8
0
  6
Continuous
 62
     0
370
     0
100
AcDbLine
 10
17.960511148
 20
-95.9999933839
 30
0.0
 11
13.7392655015
 21
-91.7787477374
 31
0.0
  0
LINE
  5
272
330
1E2
100
AcDbEntity
  8
0
  6
Continuous
 62
     0
370
     0
100
AcDbLine
 10
17.1068608761
 20
-90.6562134624
 30
0.0
 11
14.4506394863
 21
-87.9999995232
 31
0.0
  0
LINE
  5
273
330
1E2
100
AcDbEntity
  8
0
  6
Continuous
 62
     0
370
     0
100
AcDbLine
 10
22.4506407976
 20
-95.9999933839
 30
0.0
 11
20.4744562507
 21
-94.0238162875
 31
0.0
  0
LINE
  5
274
330
1E2
100
AcDbEntity
  8
0
  6
Continuous
 62
     0
370
     0
100
AcDbLine
 10
23.8420516253
 20
-92.9012820125
 30
0.0
 11
18.940769136
 21
-87.9999995232
 31
0.0
  0
LINE
  5
275
330
1E2
100
AcDbEntity
  8
0
  6
Continuous
 62
     0
370
     0
100
AcDbLine
 10
30.5772423744
 20
-95.1463505626
 30
0.0
 11
24.9645859003
 21
-89.5336866379
 31
0.0
  0
LINE
  5
276
330
1E2
100
AcDbEntity
  8
0
  6
Continuous
 62
     0
370
     0
100
AcDbLine
 10
28.3321812749
 20
-88.4111523628
 30
0.0
 11
27.9210284352
 21
-87.9999995232
 31
0.0
  0
LINE
  5
277
330
1E2
100
AcDbEntity
  8
0
  6
Continuous
 62
     0
370
     0
100
AcDbLine
 10
35.921022296
 20
-95.9999933839
 30
0.0
 11
31.6997766495
 21
-91.7787477374
 31
0.0
  0
LINE
  5
278
330
1E2
100
AcDbEntity
  8
0
  6
Continuous
 62
     0
370
     0
100
AcDbLine
 10
35.0673645735
 20
-90.6562134624
 30
0.0
 11
32.4111580849
 21
-87.9999995232
 31
0.0
  0
LINE
  5
279
330
1E2
100
AcDbEntity
  8
0
  6
Continuous
 62
     0
370
     0
100
AcDbLine
 10
40.4111593962
 20
-95.9999933839
 30
0.0
 11
38.4349673986
 21
-94.0238162875
 31
0.0
  0
LINE
  5
27A
330
1E2
100
AcDbEntity
  8
0
  6
Continuous
 62
     0
370
     0
100
AcDbLine
 10
41.8025702238
 20
-92.9012820125
 30
0.0
 11
36.9012802839
 21
-87.9999995232
 31
0.0
  0
LINE
  5
27B
330
1E2
100
AcDbEntity
  8
0
  6
Continuous
 62
     0
370
     0
100
AcDbLine
 10
48.537760973
 20
-95.1463505626
 30
0.0
 11
42.9250895977
 21
-89.5336866379
 31
0.0
  0
LINE
  5
27C
330
1E2
100
AcDbEntity
  8
0
  6
Continuous
 62
     0
370
     0
100
AcDbLine
 10
46.2926924229
 20
-88.4111523628
 30
0.0
 11
45.8815395832
 21
-87.9999995232
 31
0.0
  0
LINE
  5
27D
330
1E2
100
AcDbEntity
  8
0
  6
Continuous
 62
     0
370
     0
100
AcDbLine
 10
53.8815408945
 20
-95.9999933839
 30
0.0
 11
49.6602803469
 21
-91.7787477374
 31
0.0
  0
LINE
  5
27E
330
1E2
100
AcDbEntity
  8
0
  6
Continuous
 62
     0
370
     0
100
AcDbLine
 10
53.027883172
 20
-90.6562134624
 30
0.0
 11
50.3716617823
 21
-87.9999995232
 31
0.0
  0
LINE
  5
27F
330
1E2
100
AcDbEntity
  8
0
  6
Continuous
 62
     0
370
     0
100
AcDbLine
 10
58.3716630936
 20
-95.9999933839
 30
0.0
 11
56.3954859972
 21
-94.0238162875
 31
0.0
  0
LINE
  5
280
330
1E2
100
AcDbEntity
  8
0
  6
Continuous
 62
     0
370
     0
100
AcDbLine
 10
59.7630739212
 20
-92.9012820125
 30
0.0
 11
54.8617988825
 21
-87.9999995232
 31
0.0
  0
LINE
  5
281
330
1E2
100
AcDbEntity
  8
0
  6
Continuous
 62
     0
370
     0
100
AcDbLine
 10
57.5180053711
 20
-86.1660912633
 30
0.0
 11
55.5725693703
 21
-84.2206552625
 31
0.0
  0
LINE
  5
282
330
1E2
100
AcDbEntity
  8
0
  6
Continuous
 62
     0
370
     0
100
AcDbLine
 10
66.4982646704
 20
-95.1463505626
 30
0.0
 11
60.8856081963
 21
-89.5336866379
 31
0.0
  0
LINE
  5
283
330
1E2
100
AcDbEntity
  8
0
  6
Continuous
 62
     0
370
     0
100
AcDbLine
 10
64.2531961203
 20
-88.4111523628
 30
0.0
 11
58.6405396461
 21
-82.7984958887
 31
0.0
  0
LINE
  5
284
330
1E2
100
AcDbEntity
  8
0
  6
Continuous
 62
     0
370
     0
100
AcDbLine
 10
71.8420445919
 20
-95.9999933839
 30
0.0
 11
67.6207989454
 21
-91.7787477374
 31
0.0
  0
LINE
  5
285
330
1E2
100
AcDbEntity
  8
0
  6
Continuous
 62
     0
370
     0
100
AcDbLine
 10
62.0081424713
 20
-81.6759616137
 30
0.0
 11
56.3954859972
 21
-76.063297689
 31
0.0
  0
LINE
  5
286
330
1E2
100
AcDbEntity
  8
0
  6
Continuous
 62
     0
370
     0
100
AcDbLine
 10
70.9884017706
 20
-90.6562134624
 30
0.0
 11
65.3757303953
 21
-85.0435569882
 31
0.0
  0
LINE
  5
287
330
1E2
100
AcDbEntity
  8
0
  6
Continuous
 62
     0
370
     0
100
AcDbLine
 10
76.3321816921
 20
-95.9999933839
 30
0.0
 11
74.3559896946
 21
-94.0238162875
 31
0.0
  0
LINE
  5
288
330
1E2
100
AcDbEntity
  8
0
  6
Continuous
 62
     0
370
     0
100
AcDbLine
 10
59.7630739212
 20
-74.9407708645
 30
0.0
 11
55.5725693703
 21
-70.7502663136
 31
0.0
  0
LINE
  5
289
330
1E2
100
AcDbEntity
  8
0
  6
Continuous
 62
     0
370
     0
100
AcDbLine
 10
68.7433332205
 20
-83.9210227132
 30
0.0
 11
63.1306767464
 21
-78.3083662391
 31
0.0
  0
LINE
  5
28A
330
1E2
100
AcDbEntity
  8
0
  6
Continuous
 62
     0
370
     0
100
AcDbLine
 10
77.7235925198
 20
-92.9012820125
 30
0.0
 11
72.1109211445
 21
-87.2886180878
 31
0.0
  0
LINE
  5
28B
330
1E2
100
AcDbEntity
  8
0
  6
Continuous
 62
     0
370
     0
100
AcDbLine
 10
57.5180053711
 20
-68.2055726647
 30
0.0
 11
55.5725693703
 21
-66.2601366639
 31
0.0
  0
LINE
  5
28C
330
1E2
100
AcDbEntity
  8
0
  6
Continuous
 62
     0
370
     0
100
AcDbLine
 10
66.4982646704
 20
-77.185831964
 30
0.0
 11
60.8856081963
 21
-71.5731754899
 31
0.0
  0
LINE
  5
28D
330
1E2
100
AcDbEntity
  8
0
  6
Continuous
 62
     0
370
     0
100
AcDbLine
 10
75.4785239697
 20
-86.1660912633
 30
0.0
 11
69.8658674955
 21
-80.5534273386
 31
0.0
  0
LINE
  5
28E
330
1E2
100
AcDbEntity
  8
0
  6
Continuous
 62
     0
370
     0
100
AcDbLine
 10
84.4587832689
 20
-95.1463505626
 30
0.0
 11
78.8461267948
 21
-89.5336866379
 31
0.0
  0
LINE
  5
28F
330
1E2
100
AcDbEntity
  8
0
  6
Continuous
 62
     0
370
     0
100
AcDbLine
 10
73.2334554195
 20
-79.4308930635
 30
0.0
 11
69.8025673628
 21
-75.9999975562
 31
0.0
  0
LINE
  5
290
330
1E2
100
AcDbEntity
  8
0
  6
Continuous
 62
     0
370
     0
100
AcDbLine
 10
82.2137147188
 20
-88.4111523628
 30
0.0
 11
76.6010582447
 21
-82.7984958887
 31
0.0
  0
LINE
  5
291
330
1E2
100
AcDbEntity
  8
0
  6
Continuous
 62
     0
370
     0
100
AcDbLine
 10
89.8025631905
 20
-95.9999933839
 30
0.0
 11
85.581317544
 21
-91.7787477374
 31
0.0
  0
LINE
  5
292
330
1E2
100
AcDbEntity
  8
0
  6
Continuous
 62
     0
370
     0
100
AcDbLine
 10
64.2531961203
 20
-70.4506412148
 30
0.0
 11
58.6405396461
 21
-64.8379772902
 31
0.0
  0
LINE
  5
293
330
1E2
100
AcDbEntity
  8
0
  6
Continuous
 62
     0
370
     0
100
AcDbLine
 10
79.9686461687
 20
-81.6759616137
 30
0.0
 11
74.3559896946
 21
-76.063297689
 31
0.0
  0
LINE
  5
294
330
1E2
100
AcDbEntity
  8
0
  6
Continuous
 62
     0
370
     0
100
AcDbLine
 10
88.948905468
 20
-90.6562134624
 30
0.0
 11
83.3362489939
 21
-85.0435569882
 31
0.0
  0
LINE
  5
295
330
1E2
100
AcDbEntity
  8
0
  6
Continuous
 62
     0
370
     0
100
AcDbLine
 10
94.2926853895
 20
-95.9999933839
 30
0.0
 11
92.3165082932
 21
-94.0238162875
 31
0.0
  0
LINE
  5
296
330
1E2
100
AcDbEntity
  8
0
  6
Continuous
 62
     0
370
     0
100
AcDbLine
 10
67.5725787878
 20
-69.2798867822
 30
0.0
 11
65.3757303953
 21
-67.0830458403
 31
0.0
  0
LINE
  5
297
330
1E2
100
AcDbEntity
  8
0
  6
Continuous
 62
     0
370
     0
100
AcDbLine
 10
86.7038369179
 20
-83.9210227132
 30
0.0
 11
81.0911804438
 21
-78.3083662391
 31
0.0
  0
LINE
  5
298
330
1E2
100
AcDbEntity
  8
0
  6
Continuous
 62
     0
370
     0
100
AcDbLine
 10
95.6840962172
 20
-92.9012820125
 30
0.0
 11
90.071439743
 21
-87.2886180878
 31
0.0
  0
LINE
  5
299
330
1E2
100
AcDbEntity
  8
0
  6
Continuous
 62
     0
370
     0
100
AcDbLine
 10
67.5725787878
 20
-64.7897571325
 30
0.0
 11
66.7828172445
 21
-64.0000030398
 31
0.0
  0
LINE
  5
29A
330
1E2
100
AcDbEntity
  8
0
  6
Continuous
 62
     0
370
     0
100
AcDbLine
 10
84.4587832689
 20
-77.185831964
 30
0.0
 11
83.2729488611
 21
-75.9999975562
 31
0.0
  0
LINE
  5
29B
330
1E2
100
AcDbEntity
  8
0
  6
Continuous
 62
     0
370
     0
100
AcDbLine
 10
93.4390425682
 20
-86.1660912633
 30
0.0
 11
87.8263711929
 21
-80.5534273386
 31
0.0
  0
LINE
  5
29C
330
1E2
100
AcDbEntity
  8
0
  6
Continuous
 62
     0
370
     0
100
AcDbLine
 10
102.4192869663
 20
-95.1463505626
 30
0.0
 11
96.8066304922
 21
-89.5336866379
 31
0.0
  0
LINE
  5
29D
330
1E2
100
AcDbEntity
  8
0
  6
Continuous
 62
     0
370
     0
100
AcDbLine
 10
91.1939740181
 20
-79.4308930635
 30
0.0
 11
87.7630710602
 21
-75.9999975562
 31
0.0
  0
LINE
  5
29E
330
1E2
100
AcDbEntity
  8
0
  6
Continuous
 62
     0
370
     0
100
AcDbLine
 10
100.1742333174
 20
-88.4111523628
 30
0.0
 11
94.5615619421
 21
-82.7984958887
 31
0.0
  0
LINE
  5
29F
330
1E2
100
AcDbEntity
  8
0
  6
Continuous
 62
     0
370
     0
100
AcDbLine
 10
107.763081789
 20
-95.9999933839
 30
0.0
 11
103.5418212414
 21
-91.7787477374
 31
0.0
  0
LINE
  5
2A0
330
1E2
100
AcDbEntity
  8
0
  6
Continuous
 62
     0
370
     0
100
AcDbLine
 10
97.9291647673
 20
-81.6759616137
 30
0.0
 11
92.3165082932
 21
-76.063297689
 31
0.0
  0
LINE
  5
2A1
330
1E2
100
AcDbEntity
  8
0
  6
Continuous
 62
     0
370
     0
100
AcDbLine
 10
106.9094240665
 20
-90.6562134624
 30
0.0
 11
101.2967526913
 21
-85.0435569882
 31
0.0
  0
LINE
  5
2A2
330
1E2
100
AcDbEntity
  8
0
  6
Continuous
 62
     0
370
     0
100
AcDbLine
 10
112.2532039881
 20
-95.9999933839
 30
0.0
 11
110.2770119905
 21
-94.0238162875
 31
0.0
  0
LINE
  5
2A3
330
1E2
100
AcDbEntity
  8
0
  6
Continuous
 62
     0
370
     0
100
AcDbLine
 10
104.6643555164
 20
-83.9210227132
 30
0.0
 11
100.7433384657
 21
-79.9999982119
 31
0.0
  0
LINE
  5
2A4
330
1E2
100
AcDbEntity
  8
0
  6
Continuous
 62
     0
370
     0
100
AcDbLine
 10
113.6446148157
 20
-92.9012820125
 30
0.0
 11
108.0319583416
 21
-87.2886180878
 31
0.0
  0
LINE
  5
2A5
330
1E2
100
AcDbEntity
  8
0
  6
Continuous
 62
     0
370
     0
100
AcDbLine
 10
99.5725691319
 20
-78.8292437792
 30
0.0
 11
99.0516990423
 21
-78.3083662391
 31
0.0
  0
LINE
  5
2A6
330
1E2
100
AcDbEntity
  8
0
  6
Continuous
 62
     0
370
     0
100
AcDbLine
 10
111.3995462656
 20
-86.1660912633
 30
0.0
 11
105.7868897915
 21
-80.5534273386
 31
0.0
  0
LINE
  5
2A7
330
1E2
100
AcDbEntity
  8
0
  6
Continuous
 62
     0
370
     0
100
AcDbLine
 10
115.5725717545
 20
-90.3391167521
 30
0.0
 11
114.7671490908
 21
-89.5336866379
 31
0.0
  0
LINE
  5
2A8
330
1E2
100
AcDbEntity
  8
0
  6
Continuous
 62
     0
370
     0
100
AcDbLine
 10
115.5725717545
 20
-85.8489871025
 30
0.0
 11
112.5220805407
 21
-82.7984958887
 31
0.0
  0
LINE
  5
2A9
330
1E2
100
AcDbEntity
  8
0
  6
Continuous
 62
     0
370
     0
100
AcDbLine
 10
115.5725717545
 20
-81.3588574529
 30
0.0
 11
114.213719964
 21
-79.9999982119
 31
0.0
  0
ENDBLK
  5
1E4
330
1E2
100
AcDbEntity
  8
0
100
AcDbBlockEnd
  0
BLOCK
  5
2AC
330
2AB
100
AcDbEntity
  8
0
100
AcDbBlockBegin
  2
SW_NOTE_3
 70
     0
 10
0.0
 20
0.0
 30
0.0
  3
SW_NOTE_3
  1

  0
MTEXT
  5
2AE
330
2AB
100
AcDbEntity
  8
0
  6
Continuous
 62
     0
370
     0
100
AcDbMText
 10
23.91171875
 20
8.1855801476
 30
0.0
 40
6.35
 41
0.0
 71
     2
 72
     1
  1
\M+1844D\M+18445\M+18452\M+18453\M+1844E\M+1845C\M+1844A B
  7
SLDTEXTSTYLE1
 73
     1
 44
1.0
  0
MTEXT
  5
2B0
330
2AB
100
AcDbEntity
  8
0
  6
Continuous
 62
     0
370
     0
100
AcDbMText
 10
24.4475010872
 20
-0.0253228861
 30
0.0
 40
6.35
 41
0.0
 71
     2
 72
     1
  1
\M+1844D\M+18440\M+18452\M+18459\M+18453\M+18440\M+18441 4 : 1
  7
SLDTEXTSTYLE4
 73
     1
 44
1.0
  0
ENDBLK
  5
2AD
330
2AB
100
AcDbEntity
  8
0
100
AcDbBlockEnd
  0
ENDSEC
  0
SECTION
  2
ENTITIES
  0
LINE
  5
45
330
1F
100
AcDbEntity
  8
0
  6
Continuous
 62
     7
370
    40
100
AcDbLine
 10
25.0788435654
 20
10.2147801566
 30
0.0
 11
25.0788435654
 21
831.2147801566
 31
0.0
  0
LINE
  5
46
330
1F
100
AcDbEntity
  8
0
  6
Continuous
 62
     7
370
    40
100
AcDbLine
 10
0.0788435654
 20
0.2147801566
 30
0.0
 11
1189.0788435654
 21
0.2147801566
 31
0.0
  0
LINE
  5
47
330
1F
100
AcDbEntity
  8
0
  6
Continuous
 62
     7
370
    40
100
AcDbLine
 10
0.0788435654
 20
0.2147801566
 30
0.0
 11
0.0788435654
 21
841.2147801566
 31
0.0
  0
LINE
  5
48
330
1F
100
AcDbEntity
  8
0
  6
Continuous
 62
     7
370
    40
100
AcDbLine
 10
0.0788435654
 20
841.2147801566
 30
0.0
 11
1189.0788435654
 21
841.2147801566
 31
0.0
  0
LINE
  5
49
330
1F
100
AcDbEntity
  8
0
  6
Continuous
 62
     7
370
    40
100
AcDbLine
 10
1189.0788435654
 20
0.2147801566
 30
0.0
 11
1189.0788435654
 21
841.2147801566
 31
0.0
  0
LINE
  5
4A
330
1F
100
AcDbEntity
  8
0
  6
Continuous
 62
     7
370
    40
100
AcDbLine
 10
25.0788435654
 20
831.2147801566
 30
0.0
 11
1179.0788435654
 21
831.2147801566
 31
0.0
  0
LINE
  5
4B
330
1F
100
AcDbEntity
  8
0
  6
Continuous
 62
     7
370
    40
100
AcDbLine
 10
1179.0788435654
 20
10.2147801566
 30
0.0
 11
1179.0788435654
 21
831.2147801566
 31
0.0
  0
LINE
  5
4C
330
1F
100
AcDbEntity
  8
0
  6
Continuous
 62
     7
370
    40
100
AcDbLine
 10
25.0788435654
 20
10.2147801566
 30
0.0
 11
1179.0788435654
 21
10.2147801566
 31
0.0
  0
LINE
  5
4D
330
1F
100
AcDbEntity
  8
0
  6
Continuous
 62
     7
370
    40
100
AcDbLine
 10
1179.0788435654
 20
65.4647801566
 30
0.0
 11
1179.0788435654
 21
10.2147801566
 31
0.0
  0
LINE
  5
4E
330
1F
100
AcDbEntity
  8
0
  6
Continuous
 62
     7
370
    40
100
AcDbLine
 10
991.8788435654
 20
14.4647801566
 30
0.0
 11
1179.0788435654
 21
14.4647801566
 31
0.0
  0
LINE
  5
4F
330
1F
100
AcDbEntity
  8
0
  6
Continuous
 62
     7
370
    40
100
AcDbLine
 10
1179.0788435654
 20
48.4647801566
 30
0.0
 11
991.8788435654
 21
48.4647801566
 31
0.0
  0
LINE
  5
50
330
1F
100
AcDbEntity
  8
0
  6
Continuous
 62
     7
370
    40
100
AcDbLine
 10
991.8788435654
 20
65.4647801566
 30
0.0
 11
1179.0788435654
 21
65.4647801566
 31
0.0
  0
LINE
  5
51
330
1F
100
AcDbEntity
  8
0
  6
Continuous
 62
     7
370
    40
100
AcDbLine
 10
1018.8697959991
 20
48.4647801566
 30
0.0
 11
1018.8697959991
 21
10.2147801566
 31
0.0
  0
LINE
  5
52
330
1F
100
AcDbEntity
  8
0
  6
Continuous
 62
     7
370
    40
100
AcDbLine
 10
1090.6788435654
 20
31.4647801566
 30
0.0
 11
991.8788435654
 21
31.4647801566
 31
0.0
  0
LINE
  5
53
330
1F
100
AcDbEntity
  8
0
  6
Continuous
 62
     7
370
    40
100
AcDbLine
 10
1090.6788435654
 20
35.7147801566
 30
0.0
 11
991.8788435654
 21
35.7147801566
 31
0.0
  0
LINE
  5
54
330
1F
100
AcDbEntity
  8
0
  6
Continuous
 62
     7
370
    40
100
AcDbLine
 10
1090.6788435654
 20
39.9647801566
 30
0.0
 11
991.8788435654
 21
39.9647801566
 31
0.0
  0
LINE
  5
55
330
1F
100
AcDbEntity
  8
0
  6
Continuous
 62
     7
370
    40
100
AcDbLine
 10
1090.6788435654
 20
44.2147801566
 30
0.0
 11
991.8788435654
 21
44.2147801566
 31
0.0
  0
LINE
  5
56
330
1F
100
AcDbEntity
  8
0
  6
Continuous
 62
     7
370
    40
100
AcDbLine
 10
1046.4788435654
 20
10.2147801566
 30
0.0
 11
1046.4788435654
 21
48.4647801566
 31
0.0
  0
LINE
  5
57
330
1F
100
AcDbEntity
  8
0
  6
Continuous
 62
     7
370
    40
100
AcDbLine
 10
991.8788435654
 20
65.4647801566
 30
0.0
 11
991.8788435654
 21
10.2147801566
 31
0.0
  0
LINE
  5
58
330
1F
100
AcDbEntity
  8
0
  6
Continuous
 62
     7
370
    40
100
AcDbLine
 10
999.6788435654
 20
48.4647801566
 30
0.0
 11
999.6788435654
 21
10.2147801566
 31
0.0
  0
LINE
  5
59
330
1F
100
AcDbEntity
  8
0
  6
Continuous
 62
     7
370
    40
100
AcDbLine
 10
1025.6788435654
 20
48.4647801566
 30
0.0
 11
1025.6788435654
 21
65.4647801566
 31
0.0
  0
LINE
  5
5A
330
1F
100
AcDbEntity
  8
0
  6
Continuous
 62
     7
370
    40
100
AcDbLine
 10
1036.2777697289
 20
48.4647801566
 30
0.0
 11
1036.2777697289
 21
10.2147801566
 31
0.0
  0
LINE
  5
5B
330
1F
100
AcDbEntity
  8
0
  6
Continuous
 62
     7
370
    40
100
AcDbLine
 10
1056.8788435654
 20
31.4647801566
 30
0.0
 11
1056.8788435654
 21
48.4647801566
 31
0.0
  0
LINE
  5
5C
330
1F
100
AcDbEntity
  8
0
  6
Continuous
 62
     7
370
    40
100
AcDbLine
 10
1046.4788435654
 20
18.7147801566
 30
0.0
 11
991.8788435654
 21
18.7147801566
 31
0.0
  0
LINE
  5
5D
330
1F
100
AcDbEntity
  8
0
  6
Continuous
 62
     7
370
    40
100
AcDbLine
 10
1072.4788435654
 20
65.4647801566
 30
0.0
 11
1072.4788435654
 21
27.2147801566
 31
0.0
  0
LINE
  5
5E
330
1F
100
AcDbEntity
  8
0
  6
Continuous
 62
     7
370
    40
100
AcDbLine
 10
1046.4788435654
 20
22.9647081566
 30
0.0
 11
991.8788435654
 21
22.9647081566
 31
0.0
  0
LINE
  5
5F
330
1F
100
AcDbEntity
  8
0
  6
Continuous
 62
     7
370
    40
100
AcDbLine
 10
1046.4788435654
 20
27.2147801566
 30
0.0
 11
991.8788435654
 21
27.2147801566
 31
0.0
  0
LINE
  5
60
330
1F
100
AcDbEntity
  8
0
  6
Continuous
 62
     7
370
    40
100
AcDbLine
 10
1046.4788435654
 20
27.2147801566
 30
0.0
 11
1179.0788435654
 21
27.2147801566
 31
0.0
  0
LINE
  5
61
330
1F
100
AcDbEntity
  8
0
  6
Continuous
 62
     7
370
    40
100
AcDbLine
 10
1090.6788435654
 20
65.4647801566
 30
0.0
 11
1090.6788435654
 21
10.2147801566
 31
0.0
  0
LINE
  5
62
330
1F
100
AcDbEntity
  8
0
  6
Continuous
 62
     7
370
    40
100
AcDbLine
 10
1134.8788435654
 20
10.2147801566
 30
0.0
 11
1134.8788435654
 21
14.4647801566
 31
0.0
  0
LINE
  5
63
330
1F
100
AcDbEntity
  8
0
  6
Continuous
 62
     7
370
    40
100
AcDbLine
 10
1142.6788435654
 20
59.0897801566
 30
0.0
 11
1142.6788435654
 21
65.4647801566
 31
0.0
  0
LINE
  5
64
330
1F
100
AcDbEntity
  8
0
  6
Continuous
 62
     7
370
    40
100
AcDbLine
 10
1166.0788435654
 20
14.4647801566
 30
0.0
 11
1166.0788435654
 21
27.2147801566
 31
0.0
  0
LINE
  5
65
330
1F
100
AcDbEntity
  8
0
  6
Continuous
 62
     7
370
    40
100
AcDbLine
 10
1179.0788435654
 20
59.0897801566
 30
0.0
 11
1090.6788435654
 21
59.0897801566
 31
0.0
  0
LINE
  5
66
330
1F
100
AcDbEntity
  8
0
  6
Continuous
 62
     7
370
    40
100
AcDbLine
 10
1179.0788435654
 20
18.7147801566
 30
0.0
 11
1166.0788435654
 21
18.7147801566
 31
0.0
  0
MTEXT
  5
68
330
1F
100
AcDbEntity
  8
0
  6
Continuous
 62
     7
370
     0
100
AcDbMText
 10
1131.962253845
 20
24.8465185664
 30
0.0
 40
6.35
 41
0.0
 71
     2
 72
     1
  1
intake
  7
SLDTEXTSTYLE0
 73
     1
 44
1.0
  0
MTEXT
  5
6A
330
1F
100
AcDbEntity
  8
0
  6
Continuous
 62
     7
370
     0
100
AcDbMText
 10
1047.4966546935
 20
13.1640920602
 30
0.0
 40
1.4986
 41
0.0
 71
     1
 72
     1
  1
\M+1844D\M+18440\M+18452\M+18452\M+18440:
  7
SLDTEXTSTYLE1
 73
     1
 44
1.0
  0
MTEXT
  5
6B
330
1F
100
AcDbEntity
  8
0
  6
Continuous
 62
     7
370
     0
100
AcDbMText
 10
1169.9998284117
 20
24.5152246678
 30
0.0
 40
2.9104166667
 41
0.0
 71
     1
 72
     1
  1
A0
  7
SLDTEXTSTYLE0
 73
     1
 44
1.0
  0
MTEXT
  5
6D
330
1F
100
AcDbEntity
  8
0
  6
Continuous
 62
     7
370
     0
100
AcDbMText
 10
1136.3571379932
 20
13.1148674312
 30
0.0
 40
1.5
 41
0.0
 71
     1
 72
     1
  1
\M+1844C\M+18449\M+18452\M+18453 1 \M+18449\M+18448 1
  7
SLDTEXTSTYLE2
 73
     1
 44
1.0
  0
MTEXT
  5
6E
330
1F
100
AcDbEntity
  8
0
  6
Continuous
 62
     7
370
     0
100
AcDbMText
 10
1091.9528096828
 20
13.1148674312
 30
0.0
 40
1.5
 41
0.0
 71
     1
 72
     1
  1
\M+1844D\M+18440\M+18452\M+18459\M+18453\M+18440\M+18441:2:1
  7
SLDTEXTSTYLE1
 73
     1
 44
1.0
  0
MTEXT
  5
6F
330
1F
100
AcDbEntity
  8
0
  6
Continuous
 62
     7
370
     0
100
AcDbMText
 10
1091.9528096828
 20
25.0834179837
 30
0.0
 40
1.5
 41
0.0
 71
     1
 72
     1
  1
\M+18458\M+18445\M+18451\M+18453\M+18445\M+18447 \M+18782
  7
SLDTEXTSTYLE1
 73
     1
 44
1.0
  0
MTEXT
  5
70
330
1F
100
AcDbEntity
  8
0
  6
Continuous
 62
     7
370
     0
100
AcDbMText
 10
1091.835030502
 20
46.4931144426
 30
0.0
 40
1.5
 41
0.0
 71
     1
 72
     1
  1
\M+1844E\M+18440\M+18448\M+18442\M+18440\M+1844E\M+18449\M+18445:
  7
SLDTEXTSTYLE1
 73
     1
 44
1.0
  0
MTEXT
  5
71
330
1F
100
AcDbEntity
  8
0
  6
Continuous
 62
     7
370
     0
100
AcDbMText
 10
1145.2064252647
 20
62.5496888371
 30
0.0
 40
1.5
 41
0.0
 71
     1
 72
     1
  1
\M+18451\M+18445\M+18444\M+18440\M+1844B\M+18457\M+18449\M+18460
  7
SLDTEXTSTYLE1
 73
     1
 44
1.0
  0
MTEXT
  5
72
330
1F
100
AcDbEntity
  8
0
  6
Continuous
 62
     7
370
     0
100
AcDbMText
 10
1104.4934840882
 20
62.7477737317
 30
0.0
 40
1.5
 41
0.0
 71
     1
 72
     1
  1
\M+1844E\M+18445 \M+1844D\M+18440\M+18452\M+18459\M+18453\M+18440\M+18441\M+18449\M+18451\M+1844F\M+18442\M+18440\M+18453\M+1845D \M+18458\M+18445\M+18451\M+18453\M+18445\M+18447
  7
SLDTEXTSTYLE1
 73
     1
 44
1.0
  0
MTEXT
  5
73
330
1F
100
AcDbEntity
  8
0
  6
Continuous
 62
     7
370
     0
100
AcDbMText
 10
1047.5247058741
 20
26.2008364459
 30
0.0
 40
1.5
 41
0.0
 71
     1
 72
     1
  1
\M+1844D\M+18440\M+18453\M+18445\M+18451\M+18449\M+18440\M+1844C:
  7
SLDTEXTSTYLE1
 73
     1
 44
1.0
  0
MTEXT
  5
74
330
1F
100
AcDbEntity
  8
0
  6
Continuous
 62
     7
370
     0
100
AcDbMText
 10
1039.0935455311
 20
46.7909593779
 30
0.0
 40
1.5
 41
0.0
 71
     1
 72
     1
  1
\M+18444\M+18440\M+18453\M+18440
  7
SLDTEXTSTYLE1
 73
     1
 44
1.0
  0
MTEXT
  5
75
330
1F
100
AcDbEntity
  8
0
  6
Continuous
 62
     7
370
     0
100
AcDbMText
 10
1021.9124311285
 20
46.7765365362
 30
0.0
 40
1.5
 41
0.0
 71
     1
 72
     1
  1
\M+18450\M+1844F\M+18444\M+18450\M+18449\M+18452\M+1845D
  7
SLDTEXTSTYLE1
 73
     1
 44
1.0
  0
MTEXT
  5
76
330
1F
100
AcDbEntity
  8
0
  6
Continuous
 62
     7
370
     0
100
AcDbMText
 10
1006.201082783
 20
46.7162627901
 30
0.0
 40
1.5
 41
0.0
 71
     1
 72
     1
  1
\M+18449\M+1844D\M+18460
  7
SLDTEXTSTYLE1
 73
     1
 44
1.0
  0
INSERT
  5
7D
330
1F
100
AcDbEntity
  8
0
  6
Continuous
 62
     7
370
     0
100
AcDbBlockReference
  2
SW_NOTE_0
 10
1073.1880592516
 20
62.2842697997
 30
0.0
  0
MTEXT
  5
7E
330
1F
100
AcDbEntity
  8
0
  6
Continuous
 62
     7
370
     0
100
AcDbMText
 10
1026.2501357322
 20
64.1340521518
 30
0.0
 40
1.5
 41
0.0
 71
     1
 72
     1
  1
\M+1844F\M+18441\M+18451\M+18440\M+18441\M+1844F\M+18453\M+1844B\M+18440:
  7
SLDTEXTSTYLE1
 73
     1
 44
1.0
  0
INSERT
  5
88
330
1F
100
AcDbEntity
  8
0
  6
Continuous
 62
     7
370
     0
100
AcDbBlockReference
  2
SW_NOTE_1
 10
992.472512311
 20
62.2021500309
 30
0.0
  0
MTEXT
  5
89
330
1F
100
AcDbEntity
  8
0
  6
Continuous
 62
     7
370
     0
100
AcDbMText
 10
992.5478864275
 20
25.5644293639
 30
0.0
 40
1.5
 41
0.0
 71
     1
 72
     1
  1
\M+18453.\M+1847B\M+18480\M+1847E\M+18484\M+18482.
  7
SLDTEXTSTYLE1
 73
     1
 44
1.0
  0
MTEXT
  5
8A
330
1F
100
AcDbEntity
  8
0
  6
Continuous
 62
     7
370
     0
100
AcDbMText
 10
992.3340300644
 20
29.9484848072
 30
0.0
 40
1.5
 41
0.0
 71
     1
 72
     1
  1
\M+1844D\M+18470\M+1848A.
  7
SLDTEXTSTYLE1
 73
     1
 44
1.0
  0
MTEXT
  5
8B
330
1F
100
AcDbEntity
  8
0
  6
Continuous
 62
     7
370
     0
100
AcDbMText
 10
992.2805659737
 20
34.2790761598
 30
0.0
 40
1.5
 41
0.0
 71
     1
 72
     1
  1
\M+18454\M+18484\M+18472.
  7
SLDTEXTSTYLE1
 73
     1
 44
1.0
  0
MTEXT
  5
8C
330
1F
100
AcDbEntity
  8
0
  6
Continuous
 62
     7
370
     0
100
AcDbMText
 10
992.289312433
 20
38.3691873166
 30
0.0
 40
1.5
 41
0.0
 71
     1
 72
     1
  1
\M+18450\M+18482\M+18480\M+18472.
  7
SLDTEXTSTYLE1
 73
     1
 44
1.0
  0
MTEXT
  5
8D
330
1F
100
AcDbEntity
  8
0
  6
Continuous
 62
     7
370
     0
100
AcDbMText
 10
992.0909928094
 20
42.6444950426
 30
0.0
 40
1.5
 41
0.0
 71
     1
 72
     1
  1
\M+18451\M+18470\M+18478\M+18482\M+18470\M+18471.
  7
SLDTEXTSTYLE1
 73
     1
 44
1.0
  0
CIRCLE
  5
8E
330
1F
100
AcDbEntity
  8
0
  6
CENTERX2
 62
     7
100
AcDbCircle
 10
194.7675510204
 20
683.9680612245
 30
0.0
 40
20.00000000000004
  0
LINE
  5
8F
330
1F
100
AcDbEntity
  8
0
  6
CENTERX2
 62
     7
100
AcDbLine
 10
149.7675510204
 20
563.9680612245
 30
0.0
 11
239.7675510204
 21
563.9680612245
 31
0.0
  0
LINE
  5
90
330
1F
100
AcDbEntity
  8
0
  6
CENTERX2
 62
     7
100
AcDbLine
 10
239.7675510204
 20
563.9680612245
 30
0.0
 11
239.7675510204
 21
690.9058885739
 31
0.0
  0
LINE
  5
91
330
1F
100
AcDbEntity
  8
0
  6
CENTERX2
 62
     7
100
AcDbLine
 10
239.7675510204
 20
690.9058885739
 30
0.0
 11
149.7675510204
 21
690.9058885739
 31
0.0
  0
LINE
  5
92
330
1F
100
AcDbEntity
  8
0
  6
CENTERX2
 62
     7
100
AcDbLine
 10
149.7675510204
 20
690.9058885739
 30
0.0
 11
149.7675510204
 21
563.9680612245
 31
0.0
  0
LINE
  5
93
330
1F
100
AcDbEntity
  8
0
  6
Continuous
 62
     7
100
AcDbLine
 10
194.7675510204
 20
563.9680612245
 30
0.0
 11
194.7675510204
 21
683.9680612245
 31
0.0
  0
LINE
  5
94
330
1F
100
AcDbEntity
  8
0
  6
Continuous
 62
     7
370
    15
100
AcDbLine
 10
218.7675510204
 20
743.9680612245
 30
0.0
 11
218.7675510204
 21
775.9680612245
 31
0.0
  0
LINE
  5
95
330
1F
100
AcDbEntity
  8
0
  6
Continuous
 62
     7
370
    15
100
AcDbLine
 10
218.7675510204
 20
575.9680612245
 30
0.0
 11
218.7675510204
 21
609.9680612245
 31
0.0
  0
LINE
  5
96
330
1F
100
AcDbEntity
  8
0
  6
Continuous
 62
     7
370
    15
100
AcDbLine
 10
170.7675510204
 20
609.9680612245
 30
0.0
 11
170.7675510204
 21
575.9680612245
 31
0.0
  0
LINE
  5
97
330
1F
100
AcDbEntity
  8
0
  6
Continuous
 62
     7
370
    15
100
AcDbLine
 10
170.7675510204
 20
775.9680612245
 30
0.0
 11
170.7675510204
 21
743.9680612245
 31
0.0
  0
LINE
  5
98
330
1F
100
AcDbEntity
  8
0
  6
Continuous
 62
     7
370
    15
100
AcDbLine
 10
249.7675510204
 20
563.9680612245
 30
0.0
 11
249.7675510204
 21
575.9680612245
 31
0.0
  0
LINE
  5
99
330
1F
100
AcDbEntity
  8
0
  6
Continuous
 62
     7
370
    15
100
AcDbLine
 10
139.7675510204
 20
575.9680612245
 30
0.0
 11
139.7675510204
 21
563.9680612245
 31
0.0
  0
CIRCLE
  5
9A
330
1F
100
AcDbEntity
  8
0
  6
Continuous
 62
     7
370
    15
100
AcDbCircle
 10
194.7675510204
 20
683.9680612245
 30
0.0
 40
38.0
  0
LINE
  5
9B
330
1F
100
AcDbEntity
  8
0
  6
Continuous
 62
     7
370
    15
100
AcDbLine
 10
128.7675510204
 20
609.9680612245
 30
0.0
 11
260.7675510204
 21
609.9680612245
 31
0.0
  0
LINE
  5
9C
330
1F
100
AcDbEntity
  8
0
  6
Continuous
 62
     7
370
    15
100
AcDbLine
 10
128.7675510204
 20
743.9680612245
 30
0.0
 11
128.7675510204
 21
609.9680612245
 31
0.0
  0
LINE
  5
9D
330
1F
100
AcDbEntity
  8
0
  6
Continuous
 62
     7
370
    15
100
AcDbLine
 10
260.7675510204
 20
743.9680612245
 30
0.0
 11
128.7675510204
 21
743.9680612245
 31
0.0
  0
LINE
  5
9E
330
1F
100
AcDbEntity
  8
0
  6
Continuous
 62
     7
370
    15
100
AcDbLine
 10
260.7675510204
 20
609.9680612245
 30
0.0
 11
260.7675510204
 21
743.9680612245
 31
0.0
  0
CIRCLE
  5
9F
330
1F
100
AcDbEntity
  8
0
  6
Continuous
 62
     7
370
    15
100
AcDbCircle
 10
194.7675510204
 20
683.9680612245
 30
0.0
 40
28.39264535572119
  0
CIRCLE
  5
A0
330
1F
100
AcDbEntity
  8
0
  6
Continuous
 62
     7
370
    15
100
AcDbCircle
 10
194.7675510204
 20
683.9680612245
 30
0.0
 40
20.00000000000003
  0
LINE
  5
A1
330
1F
100
AcDbEntity
  8
0
  6
Continuous
 62
     7
370
    15
100
AcDbLine
 10
202.8903203415
 20
575.9680612245
 30
0.0
 11
202.8903203415
 21
563.9680612245
 31
0.0
  0
LINE
  5
A2
330
1F
100
AcDbEntity
  8
0
  6
Continuous
 62
     7
370
    15
100
AcDbLine
 10
202.8903203415
 20
563.9680612245
 30
0.0
 11
186.6447816993
 21
563.9680612245
 31
0.0
  0
LINE
  5
A3
330
1F
100
AcDbEntity
  8
0
  6
Continuous
 62
     7
370
    15
100
AcDbLine
 10
186.6447816993
 20
563.9680612245
 30
0.0
 11
186.6447816993
 21
575.9680612245
 31
0.0
  0
LINE
  5
A4
330
1F
100
AcDbEntity
  8
0
  6
Continuous
 62
     7
370
    15
100
AcDbLine
 10
186.6447816993
 20
575.9680612245
 30
0.0
 11
202.8903203415
 21
575.9680612245
 31
0.0
  0
LINE
  5
A5
330
1F
100
AcDbEntity
  8
0
  6
Continuous
 62
     7
370
    15
100
AcDbLine
 10
239.7675510204
 20
575.9680612245
 30
0.0
 11
239.7675510204
 21
563.9680612245
 31
0.0
  0
LINE
  5
A6
330
1F
100
AcDbEntity
  8
0
  6
Continuous
 62
     7
370
    15
100
AcDbLine
 10
239.7675510204
 20
563.9680612245
 30
0.0
 11
202.8903203415
 21
563.9680612245
 31
0.0
  0
LINE
  5
A7
330
1F
100
AcDbEntity
  8
0
  6
Continuous
 62
     7
370
    15
100
AcDbLine
 10
239.7675510204
 20
575.9680612245
 30
0.0
 11
202.8903203415
 21
575.9680612245
 31
0.0
  0
LINE
  5
A8
330
1F
100
AcDbEntity
  8
0
  6
Continuous
 62
     7
370
    15
100
AcDbLine
 10
149.7675510204
 20
575.9680612245
 30
0.0
 11
149.7675510204
 21
563.9680612245
 31
0.0
  0
LINE
  5
A9
330
1F
100
AcDbEntity
  8
0
  6
Continuous
 62
     7
370
    15
100
AcDbLine
 10
186.6447816993
 20
563.9680612245
 30
0.0
 11
149.7675510204
 21
563.9680612245
 31
0.0
  0
LINE
  5
AA
330
1F
100
AcDbEntity
  8
0
  6
Continuous
 62
     7
370
    15
100
AcDbLine
 10
186.6447816993
 20
575.9680612245
 30
0.0
 11
149.7675510204
 21
575.9680612245
 31
0.0
  0
LINE
  5
AB
330
1F
100
AcDbEntity
  8
0
  6
Continuous
 62
     7
370
    15
100
AcDbLine
 10
194.7675510204
 20
775.9680612245
 30
0.0
 11
218.7675510204
 21
775.9680612245
 31
0.0
  0
LINE
  5
AC
330
1F
100
AcDbEntity
  8
0
  6
Continuous
 62
     7
370
    15
100
AcDbLine
 10
170.7675510204
 20
775.9680612245
 30
0.0
 11
194.7675510204
 21
775.9680612245
 31
0.0
  0
LINE
  5
AD
330
1F
100
AcDbEntity
  8
0
  6
Continuous
 62
     7
370
    15
100
AcDbLine
 10
249.7675510204
 20
563.9680612245
 30
0.0
 11
239.7675510204
 21
563.9680612245
 31
0.0
  0
LINE
  5
AE
330
1F
100
AcDbEntity
  8
0
  6
Continuous
 62
     7
370
    15
100
AcDbLine
 10
249.7675510204
 20
575.9680612245
 30
0.0
 11
239.7675510204
 21
575.9680612245
 31
0.0
  0
LINE
  5
AF
330
1F
100
AcDbEntity
  8
0
  6
Continuous
 62
     7
370
    15
100
AcDbLine
 10
139.7675510204
 20
563.9680612245
 30
0.0
 11
149.7675510204
 21
563.9680612245
 31
0.0
  0
LINE
  5
B0
330
1F
100
AcDbEntity
  8
0
  6
Continuous
 62
     7
370
    15
100
AcDbLine
 10
139.7675510204
 20
575.9680612245
 30
0.0
 11
149.7675510204
 21
575.9680612245
 31
0.0
  0
INSERT
  5
BC
330
1F
100
AcDbEntity
  8
0
  6
Continuous
 62
     7
370
     0
100
AcDbBlockReference
  2
SW_CENTERMARKSYMBOL_0
 10
194.7675510204
 20
683.9680612245
 30
0.0
  0
LINE
  5
BD
330
1F
100
AcDbEntity
  8
0
  6
CENTERX2
 62
     7
100
AcDbLine
 10
454.5423590088
 20
563.9680612245
 30
0.0
 11
454.5423590088
 21
690.9058885739
 31
0.0
  0
LINE
  5
BE
330
1F
100
AcDbEntity
  8
0
  6
CENTERX2
 62
     7
100
AcDbLine
 10
454.5423590088
 20
690.9058885739
 30
0.0
 11
454.5423590088
 21
563.9680612245
 31
0.0
  0
LINE
  5
BF
330
1F
100
AcDbEntity
  8
0
  6
Continuous
 62
     7
100
AcDbLine
 10
454.5423590088
 20
563.9680612245
 30
0.0
 11
454.5423590088
 21
683.9680612245
 31
0.0
  0
LINE
  5
C0
330
1F
100
AcDbEntity
  8
0
  6
CENTERX2
 62
     7
100
AcDbLine
 10
454.5423590088
 20
683.9680612245
 30
0.0
 11
354.5423590088
 21
683.9680612245
 31
0.0
  0
LINE
  5
C1
330
1F
100
AcDbEntity
  8
0
  6
Continuous
 62
     7
370
    15
100
AcDbLine
 10
354.5423590088
 20
632.1945585326
 30
0.0
 11
364.5423590088
 21
637.9680612245
 31
0.0
  0
LINE
  5
C2
330
1F
100
AcDbEntity
  8
0
  6
Continuous
 62
     7
370
    15
100
AcDbLine
 10
364.5423590088
 20
729.9680612245
 30
0.0
 11
354.5423590088
 21
735.7415639164
 31
0.0
  0
LINE
  5
C3
330
1F
100
AcDbEntity
  8
0
  6
Continuous
 62
     7
370
    15
100
AcDbLine
 10
384.5423590088
 20
729.9680612245
 30
0.0
 11
364.5423590088
 21
729.9680612245
 31
0.0
  0
LINE
  5
C4
330
1F
100
AcDbEntity
  8
0
  6
Continuous
 62
     7
370
    15
100
AcDbLine
 10
364.5423590088
 20
637.9680612245
 30
0.0
 11
384.5423590088
 21
637.9680612245
 31
0.0
  0
LINE
  5
C5
330
1F
100
AcDbEntity
  8
0
  6
Continuous
 62
     7
370
    15
100
AcDbLine
 10
384.5423590088
 20
642.6475531488
 30
0.0
 11
414.5423590088
 21
659.9680612245
 31
0.0
  0
LINE
  5
C6
330
1F
100
AcDbEntity
  8
0
  6
Continuous
 62
     7
370
    15
100
AcDbLine
 10
414.5423590088
 20
707.9680612245
 30
0.0
 11
384.5423590088
 21
725.2885693002
 31
0.0
  0
LINE
  5
C7
330
1F
100
AcDbEntity
  8
0
  6
Continuous
 62
     7
370
    15
100
AcDbLine
 10
478.5423590088
 20
575.9680612245
 30
0.0
 11
478.5423590088
 21
775.9680612245
 31
0.0
  0
LINE
  5
C8
330
1F
100
AcDbEntity
  8
0
  6
Continuous
 62
     7
370
    15
100
AcDbLine
 10
430.5423590088
 20
649.9680612245
 30
0.0
 11
430.5423590088
 21
575.9680612245
 31
0.0
  0
LINE
  5
C9
330
1F
100
AcDbEntity
  8
0
  6
Continuous
 62
     7
370
    15
100
AcDbLine
 10
430.5423590088
 20
775.9680612245
 30
0.0
 11
430.5423590088
 21
717.9680612245
 31
0.0
  0
LINE
  5
CA
330
1F
100
AcDbEntity
  8
0
  6
Continuous
 62
     7
370
    15
100
AcDbLine
 10
420.5423590088
 20
707.9680612245
 30
0.0
 11
414.5423590088
 21
707.9680612245
 31
0.0
  0
LINE
  5
CB
330
1F
100
AcDbEntity
  8
0
  6
Continuous
 62
     7
370
    15
100
AcDbLine
 10
414.5423590088
 20
659.9680612245
 30
0.0
 11
420.5423590088
 21
659.9680612245
 31
0.0
  0
ARC
  5
CC
330
1F
100
AcDbEntity
  8
0
  6
Continuous
 62
     7
370
    15
100
AcDbCircle
 10
420.5423590088
 20
649.9680612245
 30
0.0
 40
10.00000000000002
100
AcDbArc
 50
0.4926896031
 51
89.5343620256
  0
ARC
  5
CD
330
1F
100
AcDbEntity
  8
0
  6
Continuous
 62
     7
370
    15
100
AcDbCircle
 10
420.5423590088
 20
717.9680612245
 30
0.0
 40
10.00000000000002
100
AcDbArc
 50
270.4926896031
 51
359.5343620256
  0
LINE
  5
CE
330
1F
100
AcDbEntity
  8
0
  6
Continuous
 62
     7
370
    15
100
AcDbLine
 10
482.6560083381
 20
563.9680612245
 30
0.0
 11
482.6560083381
 21
575.9680612245
 31
0.0
  0
LINE
  5
CF
330
1F
100
AcDbEntity
  8
0
  6
Continuous
 62
     7
370
    15
100
AcDbLine
 10
426.4287096795
 20
575.9680612245
 30
0.0
 11
426.4287096795
 21
563.9680612245
 31
0.0
  0
LINE
  5
D0
330
1F
100
AcDbEntity
  8
0
  6
Continuous
 62
     7
370
    15
100
AcDbLine
 10
344.5423590088
 20
609.9680612245
 30
0.0
 11
354.5423590088
 21
609.9680612245
 31
0.0
  0
LINE
  5
D1
330
1F
100
AcDbEntity
  8
0
  6
Continuous
 62
     7
370
    15
100
AcDbLine
 10
344.5423590088
 20
609.9680612245
 30
0.0
 11
344.5423590088
 21
743.9680612245
 31
0.0
  0
LINE
  5
D2
330
1F
100
AcDbEntity
  8
0
  6
Continuous
 62
     7
370
    15
100
AcDbLine
 10
344.5423590088
 20
743.9680612245
 30
0.0
 11
354.5423590088
 21
743.9680612245
 31
0.0
  0
LINE
  5
D3
330
1F
100
AcDbEntity
  8
0
  6
Continuous
 62
     7
370
    15
100
AcDbLine
 10
354.5423590088
 20
609.9680612245
 30
0.0
 11
354.5423590088
 21
743.9680612245
 31
0.0
  0
LINE
  5
D4
330
1F
100
AcDbEntity
  8
0
  6
Continuous
 62
     7
370
    15
100
AcDbLine
 10
444.5423590088
 20
575.9680612245
 30
0.0
 11
444.5423590088
 21
563.9680612245
 31
0.0
  0
LINE
  5
D5
330
1F
100
AcDbEntity
  8
0
  6
Continuous
 62
     7
370
    15
100
AcDbLine
 10
464.5423590088
 20
575.9680612245
 30
0.0
 11
464.5423590088
 21
563.9680612245
 31
0.0
  0
LINE
  5
D6
330
1F
100
AcDbEntity
  8
0
  6
Continuous
 62
     7
370
    15
100
AcDbLine
 10
464.5423590088
 20
575.9680612245
 30
0.0
 11
444.5423590088
 21
575.9680612245
 31
0.0
  0
LINE
  5
D7
330
1F
100
AcDbEntity
  8
0
  6
Continuous
 62
     7
370
    15
100
AcDbLine
 10
464.5423590088
 20
563.9680612245
 30
0.0
 11
444.5423590088
 21
563.9680612245
 31
0.0
  0
LINE
  5
D8
330
1F
100
AcDbEntity
  8
0
  6
Continuous
 62
     7
370
    15
100
AcDbLine
 10
364.5423590088
 20
683.9680612245
 30
0.0
 11
364.5423590088
 21
637.9680612245
 31
0.0
  0
LINE
  5
D9
330
1F
100
AcDbEntity
  8
0
  6
Continuous
 62
     7
370
    15
100
AcDbLine
 10
364.5423590088
 20
729.9680612245
 30
0.0
 11
364.5423590088
 21
683.9680612245
 31
0.0
  0
LINE
  5
DA
330
1F
100
AcDbEntity
  8
0
  6
Continuous
 62
     7
370
    15
100
AcDbLine
 10
384.5423590088
 20
683.9680612245
 30
0.0
 11
384.5423590088
 21
729.9680612245
 31
0.0
  0
LINE
  5
DB
330
1F
100
AcDbEntity
  8
0
  6
Continuous
 62
     7
370
    15
100
AcDbLine
 10
384.5423590088
 20
637.9680612245
 30
0.0
 11
384.5423590088
 21
683.9680612245
 31
0.0
  0
LINE
  5
DC
330
1F
100
AcDbEntity
  8
0
  6
Continuous
 62
     7
370
    15
100
AcDbLine
 10
480.9322393105
 20
563.9680612245
 30
0.0
 11
480.9322393105
 21
575.9680612245
 31
0.0
  0
LINE
  5
DD
330
1F
100
AcDbEntity
  8
0
  6
Continuous
 62
     7
370
    15
100
AcDbLine
 10
480.9322393105
 20
575.9680612245
 30
0.0
 11
464.5423590088
 21
575.9680612245
 31
0.0
  0
LINE
  5
DE
330
1F
100
AcDbEntity
  8
0
  6
Continuous
 62
     7
370
    15
100
AcDbLine
 10
480.9322393105
 20
563.9680612245
 30
0.0
 11
464.5423590088
 21
563.9680612245
 31
0.0
  0
LINE
  5
DF
330
1F
100
AcDbEntity
  8
0
  6
Continuous
 62
     7
370
    15
100
AcDbLine
 10
428.1524787071
 20
575.9680612245
 30
0.0
 11
428.1524787071
 21
563.9680612245
 31
0.0
  0
LINE
  5
E0
330
1F
100
AcDbEntity
  8
0
  6
Continuous
 62
     7
370
    15
100
AcDbLine
 10
444.5423590088
 20
575.9680612245
 30
0.0
 11
428.1524787071
 21
575.9680612245
 31
0.0
  0
LINE
  5
E1
330
1F
100
AcDbEntity
  8
0
  6
Continuous
 62
     7
370
    15
100
AcDbLine
 10
444.5423590088
 20
563.9680612245
 30
0.0
 11
428.1524787071
 21
563.9680612245
 31
0.0
  0
LINE
  5
E2
330
1F
100
AcDbEntity
  8
0
  6
Continuous
 62
     7
370
    15
100
AcDbLine
 10
414.5423590088
 20
683.9680612245
 30
0.0
 11
414.5423590088
 21
659.9680612245
 31
0.0
  0
LINE
  5
E3
330
1F
100
AcDbEntity
  8
0
  6
Continuous
 62
     7
370
    15
100
AcDbLine
 10
414.5423590088
 20
707.9680612245
 30
0.0
 11
414.5423590088
 21
683.9680612245
 31
0.0
  0
LINE
  5
E4
330
1F
100
AcDbEntity
  8
0
  6
Continuous
 62
     7
370
    15
100
AcDbLine
 10
430.5423590088
 20
775.9680612245
 30
0.0
 11
478.5423590088
 21
775.9680612245
 31
0.0
  0
LINE
  5
E5
330
1F
100
AcDbEntity
  8
0
  6
Continuous
 62
     7
370
    15
100
AcDbLine
 10
480.9322393105
 20
575.9680612245
 30
0.0
 11
482.6560083381
 21
575.9680612245
 31
0.0
  0
LINE
  5
E6
330
1F
100
AcDbEntity
  8
0
  6
Continuous
 62
     7
370
    15
100
AcDbLine
 10
482.6560083381
 20
563.9680612245
 30
0.0
 11
480.9322393105
 21
563.9680612245
 31
0.0
  0
LINE
  5
E7
330
1F
100
AcDbEntity
  8
0
  6
Continuous
 62
     7
370
    15
100
AcDbLine
 10
426.4287096795
 20
575.9680612245
 30
0.0
 11
428.1524787071
 21
575.9680612245
 31
0.0
  0
LINE
  5
E8
330
1F
100
AcDbEntity
  8
0
  6
Continuous
 62
     7
370
    15
100
AcDbLine
 10
428.1524787071
 20
563.9680612245
 30
0.0
 11
426.4287096795
 21
563.9680612245
 31
0.0
  0
LINE
  5
E9
330
1F
100
AcDbEntity
  8
0
  6
Continuous
 62
     8
370
    15
100
AcDbLine
 10
454.5423590088
 20
683.9680612245
 30
0.0
 11
430.5423590088
 21
649.9680612245
 31
0.0
  0
LINE
  5
EA
330
1F
100
AcDbEntity
  8
0
  6
Continuous
 62
     8
370
    15
100
AcDbLine
 10
430.5423590088
 20
717.9680612245
 30
0.0
 11
454.5423590088
 21
683.9680612245
 31
0.0
  0
LINE
  5
EB
330
1F
100
AcDbEntity
  8
0
  6
Continuous
 62
     8
370
    15
100
AcDbLine
 10
420.5423590088
 20
659.9680612245
 30
0.0
 11
454.5423590088
 21
683.9680612245
 31
0.0
  0
LINE
  5
EC
330
1F
100
AcDbEntity
  8
0
  6
Continuous
 62
     8
370
    15
100
AcDbLine
 10
454.5423590088
 20
683.9680612245
 30
0.0
 11
420.5423590088
 21
707.9680612245
 31
0.0
  0
LINE
  5
ED
330
1F
100
AcDbEntity
  8
0
  6
CENTERX2
 62
     7
100
AcDbLine
 10
149.7675510204
 20
316.8250899708
 30
0.0
 11
239.7675510204
 21
316.8250899708
 31
0.0
  0
LINE
  5
EE
330
1F
100
AcDbEntity
  8
0
  6
CENTERX2
 62
     7
100
AcDbLine
 10
239.7675510204
 20
316.8250899708
 30
0.0
 11
149.7675510204
 21
316.8250899708
 31
0.0
  0
LINE
  5
EF
330
1F
100
AcDbEntity
  8
0
  6
CENTERX2
 62
     7
100
AcDbLine
 10
194.7675510204
 20
316.8250899708
 30
0.0
 11
194.7675510204
 21
416.8250899708
 31
0.0
  0
LINE
  5
F0
330
1F
100
AcDbEntity
  8
0
  6
Continuous
 62
     7
370
    15
100
AcDbLine
 10
142.9940483285
 20
416.8250899708
 30
0.0
 11
148.7675510204
 21
406.8250899708
 31
0.0
  0
LINE
  5
F1
330
1F
100
AcDbEntity
  8
0
  6
Continuous
 62
     7
370
    15
100
AcDbLine
 10
240.7675510204
 20
406.8250899708
 30
0.0
 11
246.5410537123
 21
416.8250899708
 31
0.0
  0
LINE
  5
F2
330
1F
100
AcDbEntity
  8
0
  6
Continuous
 62
     7
370
    15
100
AcDbLine
 10
240.7675510204
 20
386.8250899708
 30
0.0
 11
240.7675510204
 21
406.8250899708
 31
0.0
  0
LINE
  5
F3
330
1F
100
AcDbEntity
  8
0
  6
Continuous
 62
     7
370
    15
100
AcDbLine
 10
148.7675510204
 20
406.8250899708
 30
0.0
 11
148.7675510204
 21
386.8250899708
 31
0.0
  0
LINE
  5
F4
330
1F
100
AcDbEntity
  8
0
  6
Continuous
 62
     7
370
    15
100
AcDbLine
 10
153.4470429447
 20
386.8250899708
 30
0.0
 11
170.7675510204
 21
356.8250899708
 31
0.0
  0
LINE
  5
F5
330
1F
100
AcDbEntity
  8
0
  6
Continuous
 62
     7
370
    15
100
AcDbLine
 10
218.7675510204
 20
356.8250899708
 30
0.0
 11
236.0880590961
 21
386.8250899708
 31
0.0
  0
LINE
  5
F6
330
1F
100
AcDbEntity
  8
0
  6
Continuous
 62
     7
370
    15
100
AcDbLine
 10
218.7675510204
 20
336.1584233041
 30
0.0
 11
218.7675510204
 21
356.8250899708
 31
0.0
  0
LINE
  5
F7
330
1F
100
AcDbEntity
  8
0
  6
Continuous
 62
     7
370
    15
100
AcDbLine
 10
170.7675510204
 20
356.8250899708
 30
0.0
 11
170.7675510204
 21
336.1584233041
 31
0.0
  0
CIRCLE
  5
F8
330
1F
100
AcDbEntity
  8
0
  6
Continuous
 62
     7
370
    15
100
AcDbCircle
 10
149.7675510204
 20
316.8250899708
 30
0.0
 40
6.0
  0
CIRCLE
  5
F9
330
1F
100
AcDbEntity
  8
0
  6
Continuous
 62
     7
370
    15
100
AcDbCircle
 10
194.7675510204
 20
316.8250899708
 30
0.0
 40
20.0
  0
CIRCLE
  5
FA
330
1F
100
AcDbEntity
  8
0
  6
Continuous
 62
     7
370
    15
100
AcDbCircle
 10
239.7675510204
 20
316.8250899708
 30
0.0
 40
6.0
  0
ARC
  5
FB
330
1F
100
AcDbEntity
  8
0
  6
Continuous
 62
     7
370
    15
100
AcDbCircle
 10
149.7675510204
 20
316.8250899708
 30
0.0
 40
10.0
100
AcDbArc
 50
90.0
 51
270.0
  0
LINE
  5
FC
330
1F
100
AcDbEntity
  8
0
  6
Continuous
 62
     7
370
    15
100
AcDbLine
 10
186.6447816993
 20
343.2149702725
 30
0.0
 11
149.7675510204
 21
326.8250899708
 31
0.0
  0
ARC
  5
FD
330
1F
100
AcDbEntity
  8
0
  6
Continuous
 62
     7
370
    15
100
AcDbCircle
 10
194.7675510204
 20
324.9387393001
 30
0.0
 40
20.00000000000004
100
AcDbArc
 50
66.0375110254
 51
113.9624889746
  0
LINE
  5
FE
330
1F
100
AcDbEntity
  8
0
  6
Continuous
 62
     7
370
    15
100
AcDbLine
 10
239.7675510204
 20
326.8250899708
 30
0.0
 11
202.8903203415
 21
343.2149702725
 31
0.0
  0
ARC
  5
FF
330
1F
100
AcDbEntity
  8
0
  6
Continuous
 62
     7
370
    15
100
AcDbCircle
 10
239.7675510204
 20
316.8250899708
 30
0.0
 40
10.0
100
AcDbArc
 50
270.0
 51
90.0
  0
LINE
  5
100
330
1F
100
AcDbEntity
  8
0
  6
Continuous
 62
     7
370
    15
100
AcDbLine
 10
202.8903203415
 20
290.435209669
 30
0.0
 11
239.7675510204
 21
306.8250899708
 31
0.0
  0
ARC
  5
101
330
1F
100
AcDbEntity
  8
0
  6
Continuous
 62
     7
370
    15
100
AcDbCircle
 10
194.7675510204
 20
308.7114406415
 30
0.0
 40
19.99999999999994
100
AcDbArc
 50
246.0375110254
 51
293.9624889746
  0
LINE
  5
102
330
1F
100
AcDbEntity
  8
0
  6
Continuous
 62
     7
370
    15
100
AcDbLine
 10
149.7675510204
 20
306.8250899708
 30
0.0
 11
186.6447816993
 21
290.435209669
 31
0.0
  0
LINE
  5
103
330
1F
100
AcDbEntity
  8
0
  6
Continuous
 62
     7
370
    15
100
AcDbLine
 10
128.7675510204
 20
426.8250899708
 30
0.0
 11
128.7675510204
 21
416.8250899708
 31
0.0
  0
LINE
  5
104
330
1F
100
AcDbEntity
  8
0
  6
Continuous
 62
     7
370
    15
100
AcDbLine
 10
128.7675510204
 20
426.8250899708
 30
0.0
 11
260.7675510204
 21
426.8250899708
 31
0.0
  0
LINE
  5
105
330
1F
100
AcDbEntity
  8
0
  6
Continuous
 62
     7
370
    15
100
AcDbLine
 10
260.7675510204
 20
426.8250899708
 30
0.0
 11
260.7675510204
 21
416.8250899708
 31
0.0
  0
LINE
  5
106
330
1F
100
AcDbEntity
  8
0
  6
Continuous
 62
     7
370
    15
100
AcDbLine
 10
128.7675510204
 20
416.8250899708
 30
0.0
 11
260.7675510204
 21
416.8250899708
 31
0.0
  0
LINE
  5
107
330
1F
100
AcDbEntity
  8
0
  6
Continuous
 62
     7
370
    15
100
AcDbLine
 10
240.7675510204
 20
406.8250899708
 30
0.0
 11
148.7675510204
 21
406.8250899708
 31
0.0
  0
LINE
  5
108
330
1F
100
AcDbEntity
  8
0
  6
Continuous
 62
     7
370
    15
100
AcDbLine
 10
148.7675510204
 20
386.8250899708
 30
0.0
 11
240.7675510204
 21
386.8250899708
 31
0.0
  0
LINE
  5
109
330
1F
100
AcDbEntity
  8
0
  6
Continuous
 62
     7
370
    15
100
AcDbLine
 10
218.7675510204
 20
356.8250899708
 30
0.0
 11
170.7675510204
 21
356.8250899708
 31
0.0
  0
CIRCLE
  5
10A
330
1F
100
AcDbEntity
  8
0
  6
Continuous
 62
     7
370
    15
100
AcDbCircle
 10
194.7675510204
 20
316.8250899708
 30
0.0
 40
8.0
  0
ELLIPSE
  5
10B
330
1F
100
AcDbEntity
  8
0
  6
Continuous
 62
     8
370
    15
100
AcDbEllipse
 10
194.7675510204
 20
316.8250899708
 30
0.0
 11
0.0
 21
34.0
 31
0.0
210
0.0
220
0.0
230
1.0
 40
0.7058823529
 41
5.409171367397946
 42
7.15719924696124
  0
INSERT
  5
117
330
1F
100
AcDbEntity
  8
0
  6
Continuous
 62
     7
370
     0
100
AcDbBlockReference
  2
SW_CENTERMARKSYMBOL_1
 10
194.7675510204
 20
316.8250899708
 30
0.0
  0
INSERT
  5
123
330
1F
100
AcDbEntity
  8
0
  6
Continuous
 62
     7
370
     0
100
AcDbBlockReference
  2
SW_CENTERMARKSYMBOL_2
 10
239.7675510204
 20
316.8250899708
 30
0.0
  0
INSERT
  5
12F
330
1F
100
AcDbEntity
  8
0
  6
Continuous
 62
     7
370
     0
100
AcDbBlockReference
  2
SW_CENTERMARKSYMBOL_3
 10
149.7675510204
 20
316.8250899708
 30
0.0
  0
LINE
  5
130
330
1F
100
AcDbEntity
  8
0
  6
PHANTOM
 62
     7
370
    30
100
AcDbLine
 10
194.7675510204
 20
443.3987278903
 30
0.0
 11
194.7675510204
 21
272.1378027219
 31
0.0
  0
LINE
  5
131
330
1F
100
AcDbEntity
  8
0
  6
Continuous
 62
     7
370
    30
100
AcDbLine
 10
206.7675510204
 20
441.3987278903
 30
0.0
 11
194.7675510204
 21
441.3987278903
 31
0.0
  0
INSERT
  5
139
330
1F
100
AcDbEntity
  8
0
  6
Continuous
 62
     7
370
    30
100
AcDbBlockReference
  2
_CLOSED
 10
194.7675510204
 20
441.3987278903
 30
0.0
 41
6.0
 42
6.0
 50
180.0
  0
LINE
  5
13A
330
1F
100
AcDbEntity
  8
0
  6
Continuous
 62
     7
370
    30
100
AcDbLine
 10
206.7675510204
 20
274.1378027219
 30
0.0
 11
194.7675510204
 21
274.1378027219
 31
0.0
  0
INSERT
  5
13B
330
1F
100
AcDbEntity
  8
0
  6
Continuous
 62
     7
370
    30
100
AcDbBlockReference
  2
_CLOSED
 10
194.7675510204
 20
274.1378027219
 30
0.0
 41
6.0
 42
6.0
 50
180.0
  0
MTEXT
  5
13C
330
1F
100
AcDbEntity
  8
0
  6
Continuous
 62
     7
100
AcDbMText
 10
200.5088440493
 20
451.4711516326
 30
0.0
 40
6.35
 41
0.0
 71
     1
 72
     1
  1
A
  7
SLDTEXTSTYLE0
 73
     1
 44
1.0
  0
MTEXT
  5
13D
330
1F
100
AcDbEntity
  8
0
  6
Continuous
 62
     7
100
AcDbMText
 10
200.5088440493
 20
284.2102264642
 30
0.0
 40
6.35
 41
0.0
 71
     1
 72
     1
  1
A
  7
SLDTEXTSTYLE0
 73
     1
 44
1.0
  0
LWPOLYLINE
  5
13E
330
1F
100
AcDbEntity
  8
0
  6
CENTERX2
 62
     7
100
AcDbPolyline
 90
       20
 70
   128
 43
0.0
 10
537.0422762345
 20
377.4691438068
 10
534.9669437572
 20
381.0832837967
 10
531.6509497514
 20
382.9423187391
 10
527.4536336205
 20
382.8447933521
 10
522.8298396953
 20
380.8012760247
 10
518.2806277932
 20
377.0332135677
 10
514.2989756121
 20
371.9489340159
 10
511.3163569476
 20
366.0993979494
 10
509.6559848119
 20
360.1184933659
 10
509.4977862893
 20
354.6543440804
 10
510.8589046445
 20
350.2990754529
 10
513.5918415838
 20
347.5246484182
 10
517.4004409839
 20
346.6317151952
 10
521.8719820032
 20
347.7170389538
 10
526.5219037893
 20
350.6630080244
 10
530.8463151656
 20
355.1503809466
 10
534.3765990593
 20
360.6928812356
 10
536.7301944327
 20
366.6898929843
 10
537.6520527071
 20
372.4915469165
 10
537.0422762345
 20
377.4691438068
  0
LINE
  5
13F
330
1F
100
AcDbEntity
  8
0
  6
CENTERX2
 62
     7
100
AcDbLine
 10
491.6982795246
 20
248.5330456801
 30
0.0
 11
555.3378898314
 21
285.2714107121
 31
0.0
  0
LINE
  5
140
330
1F
100
AcDbEntity
  8
0
  6
CENTERX2
 62
     7
100
AcDbLine
 10
555.3378898314
 20
285.2714107121
 30
0.0
 11
555.3378898314
 21
388.921327315
 31
0.0
  0
LINE
  5
141
330
1F
100
AcDbEntity
  8
0
  6
CENTERX2
 62
     7
100
AcDbLine
 10
555.3378898314
 20
388.921327315
 30
0.0
 11
491.6982795246
 21
352.182962283
 31
0.0
  0
LINE
  5
142
330
1F
100
AcDbEntity
  8
0
  6
CENTERX2
 62
     7
100
AcDbLine
 10
491.6982795246
 20
352.182962283
 30
0.0
 11
491.6982795246
 21
248.5330456801
 31
0.0
  0
LINE
  5
143
330
1F
100
AcDbEntity
  8
0
  6
Continuous
 62
     7
100
AcDbLine
 10
523.518084678
 20
266.9022281961
 30
0.0
 11
523.518084678
 21
364.8871256224
 31
0.0
  0
LINE
  5
144
330
1F
100
AcDbEntity
  8
0
  6
CENTERX2
 62
     7
100
AcDbLine
 10
523.518084678
 20
364.8871256224
 30
0.0
 11
452.8074065594
 21
405.7075312136
 31
0.0
  0
LINE
  5
145
330
1F
100
AcDbEntity
  8
0
  6
Continuous
 62
     7
370
    15
100
AcDbLine
 10
565.3378898314
 20
285.2714107121
 30
0.0
 11
565.3378898314
 21
295.0699004548
 31
0.0
  0
LINE
  5
146
330
1F
100
AcDbEntity
  8
0
  6
Continuous
 62
     7
370
    15
100
AcDbLine
 10
547.518084678
 20
298.9856960651
 30
0.0
 11
547.518084678
 21
440.0088803159
 31
0.0
  0
LINE
  5
147
330
1F
100
AcDbEntity
  8
0
  6
Continuous
 62
     7
370
    15
100
AcDbLine
 10
499.518084678
 20
345.2561530856
 30
0.0
 11
499.518084678
 21
284.7193454431
 31
0.0
  0
LINE
  5
148
330
1F
100
AcDbEntity
  8
0
  6
Continuous
 62
     7
370
    15
100
AcDbLine
 10
499.518084678
 20
440.0088803159
 30
0.0
 11
499.518084678
 21
431.5023942769
 31
0.0
  0
LINE
  5
149
330
1F
100
AcDbEntity
  8
0
  6
Continuous
 62
     7
370
    15
100
AcDbLine
 10
476.9515002247
 20
357.7452920836
 30
0.0
 11
489.180206255
 21
359.4128360241
 31
0.0
  0
LINE
  5
14A
330
1F
100
AcDbEntity
  8
0
  6
Continuous
 62
     7
370
    15
100
AcDbLine
 10
511.0869720212
 20
397.3605790778
 30
0.0
 11
506.4156824202
 21
408.7842828305
 31
0.0
  0
SPLINE
  5
14B
330
1F
100
AcDbEntity
  8
0
  6
Continuous
 62
     7
370
    15
100
AcDbSpline
210
0.0
220
0.0
230
1.0
 70
     8
 71
     3
 72
    16
 73
    12
 74
     0
 42
0.00000001
 43
0.00000001
 12
1.0
 22
0.0
 32
0.0
 13
1.0
 23
0.0
 33
0.0
 40
0.0
 40
0.0
 40
0.0
 40
0.0
 40
0.0920485467615806
 40
0.2117125612072887
 40
0.3319219077563097
 40
0.4652257949926963
 40
0.5939274328282026
 40
0.7180807617560254
 40
0.8381813610942874
 40
0.9545104727816539
 40
1.0
 40
1.0
 40
1.0
 40
1.0
 10
494.5354681417759
 20
353.8909035868969
 30
0.0
 10
494.8101364725724
 20
353.7272198257372
 30
0.0
 10
495.4418763298684
 20
353.3507455681596
 30
0.0
 10
496.3295820257833
 20
352.6090557335037
 30
0.0
 10
497.2271183291434
 20
351.6726297022497
 30
0.0
 10
498.009750270842
 20
350.5958456746257
 30
0.0
 10
498.6450262898804
 20
349.4120586336819
 30
0.0
 10
499.1054495955967
 20
348.1979190793151
 30
0.0
 10
499.3887657165685
 20
346.9776561547667
 30
0.0
 10
499.5181240672351
 20
346.0029553716441
 30
0.0
 10
499.5051271263044
 20
345.4412807447018
 30
0.0
 10
499.5014735008493
 20
345.2833859965879
 30
0.0
  0
LINE
  5
14C
330
1F
100
AcDbEntity
  8
0
  6
Continuous
 62
     7
370
    15
100
AcDbLine
 10
518.5157280367
 20
395.4869869093
 30
0.0
 11
509.7943355179
 21
400.5217396427
 31
0.0
  0
LINE
  5
14D
330
1F
100
AcDbEntity
  8
0
  6
Continuous
 62
     7
370
    15
100
AcDbLine
 10
485.7962859346
 20
358.9513942484
 30
0.0
 11
494.5176784535
 21
353.916641515
 31
0.0
  0
LINE
  5
14E
330
1F
100
AcDbEntity
  8
0
  6
Continuous
 62
     7
370
    15
100
AcDbLine
 10
481.6982795246
 20
258.3315354228
 30
0.0
 11
481.6982795246
 21
248.5330456801
 31
0.0
  0
LWPOLYLINE
  5
14F
330
1F
100
AcDbEntity
  8
0
  6
Continuous
 62
     7
370
    15
100
AcDbPolyline
 90
       88
 70
   128
 43
0.0
 10
472.6063964326
 20
425.3013258973
 10
472.5363524131
 20
427.4998409408
 10
472.3265855317
 20
429.6060228412
 10
471.9781894159
 20
431.6088909416
 10
471.4929804415
 20
433.4980032149
 10
470.8734882637
 20
435.2635107046
 10
470.1229426276
 20
436.896208872
 10
469.2452565308
 20
438.3875855849
 10
468.2450058222
 20
439.7298654957
 10
467.1274053457
 20
440.9160505785
 10
465.8982817528
 20
441.9399566134
 10
464.5640431248
 20
442.7962454286
 10
463.1316455641
 20
443.4804527306
 10
461.6085569283
 20
443.9890113794
 10
460.0027178963
 20
444.3192699856
 10
458.3225005693
 20
444.4695067339
 10
456.5766648224
 20
444.4389383593
 10
454.7743126347
 20
444.2277242312
 10
452.9248406362
 20
443.8369655223
 10
451.0378911173
 20
443.2686994676
 10
449.1233017592
 20
442.5258887431
 10
447.1910543442
 20
441.61240602
 10
445.2512227157
 20
440.5330137742
 10
443.3139202575
 20
439.2933394572
 10
441.3892471677
 20
437.8998461568
 10
439.4872378005
 20
436.3597989018
 10
437.6178083522
 20
434.6812267855
 10
435.7907051621
 20
432.8728811057
 10
434.0154539003
 20
430.9441897395
 10
432.301309905
 20
428.9052079905
 10
430.6572099291
 20
426.7665661655
 10
429.0917255487
 20
424.5394141527
 10
427.6130184745
 20
422.2353632915
 10
426.2287980004
 20
419.8664258361
 10
424.9462808111
 20
417.4449523295
 10
423.7721533573
 20
414.9835672135
 10
422.712536996
 20
412.4951030102
 10
421.7729560761
 20
409.9925334198
 10
420.9583091376
 20
407.4889056814
 10
420.2728433724
 20
404.9972725507
 10
419.7201324815
 20
402.5306242491
 10
419.3030580436
 20
400.1018207388
 10
419.0237944918
 20
397.7235246765
 10
418.8837977769
 20
395.4081353968
 10
418.8837977769
 20
393.1677242673
 10
419.0237944918
 20
391.0139717541
 10
419.3030580436
 20
388.9581065257
 10
419.7201324815
 20
387.0108469113
 10
420.2728433724
 20
385.182345021
 10
420.9583091376
 20
383.482133817
 10
421.7729560761
 20
381.9190774131
 10
422.712536996
 20
380.5013248619
 10
423.7721533573
 20
379.2362676684
 10
424.9462808111
 20
378.1305012554
 10
426.2287980004
 20
377.1897905767
 10
427.6130184745
 20
376.4190400623
 10
429.0917255487
 20
375.8222680485
 10
430.6572099291
 20
375.4025858282
 10
432.301309905
 20
375.1621814302
 10
434.0154539003
 20
375.1023082118
 10
435.7907051621
 20
375.2232783241
 10
437.6178083522
 20
375.524461085
 10
439.4872378005
 20
376.004286267
 10
441.3892471677
 20
376.6602522839
 10
443.3139202575
 20
377.4889392325
 10
445.2512227157
 20
378.4860267229
 10
447.1910543442
 20
379.6463164025
 10
449.1233017592
 20
380.9637590581
 10
451.0378911173
 20
382.4314861539
 10
452.9248406362
 20
384.0418456403
 10
454.7743126347
 20
385.7864418487
 10
456.5766648224
 20
387.6561792621
 10
458.3225005693
 20
389.6413099356
 10
460.0027178963
 20
391.7314843169
 10
461.6085569283
 20
393.9158052046
 10
463.1316455641
 20
396.1828845611
 10
464.5640431248
 20
398.5209028844
 10
465.8982817528
 20
400.9176708294
 10
467.1274053457
 20
403.360692758
 10
468.2450058222
 20
405.8372318849
 10
469.2452565308
 20
408.3343766819
 10
470.1229426276
 20
410.8391081924
 10
470.8734882637
 20
413.3383679059
 10
471.4929804415
 20
415.8191258395
 10
471.9781894159
 20
418.2684484702
 10
472.3265855317
 20
420.6735661638
 10
472.5363524131
 20
423.0219397504
 10
472.6063964326
 20
425.3013258973
  0
LINE
  5
150
330
1F
100
AcDbEntity
  8
0
  6
Continuous
 62
     7
370
    15
100
AcDbLine
 10
399.0672911892
 20
322.424084003
 30
0.0
 11
492.4053863058
 21
376.3070193833
 31
0.0
  0
LINE
  5
151
330
1F
100
AcDbEntity
  8
0
  6
Continuous
 62
     7
370
    15
100
AcDbLine
 10
399.0672911892
 20
431.8405527957
 30
0.0
 11
399.0672911892
 21
322.424084003
 31
0.0
  0
LINE
  5
152
330
1F
100
AcDbEntity
  8
0
  6
Continuous
 62
     7
370
    15
100
AcDbLine
 10
492.4053863058
 20
485.723488176
 30
0.0
 11
399.0672911892
 21
431.8405527957
 31
0.0
  0
LINE
  5
153
330
1F
100
AcDbEntity
  8
0
  6
Continuous
 62
     7
370
    15
100
AcDbLine
 10
492.4053863058
 20
376.3070193833
 30
0.0
 11
492.4053863058
 21
485.723488176
 31
0.0
  0
LINE
  5
154
330
1F
100
AcDbEntity
  8
0
  6
Continuous
 62
     7
370
    15
100
AcDbLine
 10
492.4053863058
 20
376.3070193833
 30
0.0
 11
499.4764541177
 21
372.2249788242
 31
0.0
  0
LINE
  5
155
330
1F
100
AcDbEntity
  8
0
  6
Continuous
 62
     7
370
    15
100
AcDbLine
 10
492.4053863058
 20
485.723488176
 30
0.0
 11
499.4764541177
 21
481.6414476169
 31
0.0
  0
LINE
  5
156
330
1F
100
AcDbEntity
  8
0
  6
Continuous
 62
     7
370
    15
100
AcDbLine
 10
499.4764541177
 20
372.2249788242
 30
0.0
 11
499.4764541177
 21
481.6414476169
 31
0.0
  0
LINE
  5
157
330
1F
100
AcDbEntity
  8
0
  6
Continuous
 62
     7
370
    15
100
AcDbLine
 10
399.0672911892
 20
322.424084003
 30
0.0
 11
406.1383590011
 21
318.3420434439
 31
0.0
  0
LINE
  5
158
330
1F
100
AcDbEntity
  8
0
  6
Continuous
 62
     7
370
    15
100
AcDbLine
 10
406.1383590011
 20
318.3420434439
 30
0.0
 11
499.4764541177
 21
372.2249788242
 31
0.0
  0
LWPOLYLINE
  5
159
330
1F
100
AcDbEntity
  8
0
  6
Continuous
 62
     7
370
    15
100
AcDbPolyline
 90
       35
 70
   128
 43
0.0
 10
487.4556388375
 20
250.9822700156
 10
488.3074610381
 20
251.3906111076
 10
489.2747534954
 20
251.7016412363
 10
490.3245762249
 20
251.9047686437
 10
491.4211787728
 20
251.9930760694
 10
492.5272176543
 20
251.9635563101
 10
493.6050280421
 20
251.8172146257
 10
494.617906396
 20
251.5590345069
 10
495.5313603585
 20
251.1978079678
 10
496.3142833505
 20
250.745836145
 10
496.9400138685
 20
250.2185103969
 10
497.3872434102
 20
249.6337881693
 10
497.6407421099
 20
249.0115814765
 10
497.6918773734
 20
248.3730788211
 10
497.5389078508
 20
247.7400236452
 10
497.1870427356
 20
247.1339738835
 10
496.6482643722
 20
246.5755678339
 10
495.9409202117
 20
246.0838213447
 10
495.0890980112
 20
245.6754802526
 10
494.1218055539
 20
245.3644501239
 10
493.0719828243
 20
245.1613227166
 10
491.9753802765
 20
245.0730152908
 10
490.8693413949
 20
245.1025350501
 10
489.7915310071
 20
245.2488767345
 10
488.7786526532
 20
245.5070568534
 10
487.8651986907
 20
245.8682833925
 10
487.0822756987
 20
246.3202552153
 10
486.4565451808
 20
246.8475809634
 10
486.0093156391
 20
247.4323031909
 10
485.7558169394
 20
248.0545098838
 10
485.7046816758
 20
248.6930125392
 10
485.8576511985
 20
249.3260677151
 10
486.2095163137
 20
249.9321174767
 10
486.748294677
 20
250.4905235263
 10
487.4556388375
 20
250.9822700156
  0
LWPOLYLINE
  5
15A
330
1F
100
AcDbEntity
  8
0
  6
Continuous
 62
     7
370
    15
100
AcDbPolyline
 90
       64
 70
   128
 43
0.0
 10
509.3759490543
 20
275.0663093144
 10
510.8543264933
 20
275.8386201377
 10
512.4585620507
 20
276.5221170831
 10
514.1727121126
 20
277.1100072509
 10
515.9797406856
 20
277.5964479243
 10
517.861688708
 20
277.9766046375
 10
519.7998525348
 20
278.2466992222
 10
521.7749698231
 20
278.4040473572
 10
523.7674109699
 20
278.4470852459
 10
525.7573742001
 20
278.3753851586
 10
527.7250823649
 20
278.1896596827
 10
529.6509794967
 20
277.8917546417
 10
531.5159251644
 20
277.4846307496
 10
533.3013847002
 20
276.9723341866
 10
534.989613405
 20
276.3599563861
 10
536.5638329036
 20
275.6535834337
 10
538.0083978952
 20
274.8602355813
 10
539.308951644
 20
273.9877974762
 10
540.4525686626
 20
273.0449398003
 10
541.4278831712
 20
272.0410330967
 10
542.225202056
 20
270.9860546413
 10
542.8366012038
 20
269.890489284
 10
543.2560042552
 20
268.7652252454
 10
543.4792429941
 20
267.6214459052
 10
543.5040987738
 20
266.4705186562
 10
543.3303245663
 20
265.3238819306
 10
542.9596474177
 20
264.1929315193
 10
542.3957512842
 20
263.0889073156
 10
541.6442404188
 20
262.022781608
 10
540.712583674
 20
261.0051500328
 10
539.6100402734
 20
260.0461262697
 10
538.3475677883
 20
259.1552415279
 10
536.9377132377
 20
258.34134982
 10
535.3944883895
 20
257.6125399675
 10
533.7332305055
 20
256.9760552103
 10
531.9704499128
 20
256.4382212197
 10
530.1236659171
 20
256.0043832315
 10
528.2112326874
 20
255.6788529228
 10
526.2521568442
 20
255.4648655598
 10
524.2659085635
 20
255.3645478451
 10
522.2722280731
 20
255.3788967813
 10
520.2909294654
 20
255.5077697621
 10
518.341703776
 20
255.7498859901
 10
516.4439232856
 20
256.1028392053
 10
514.6164489893
 20
256.5631216001
 10
512.8774431477
 20
257.1261586813
 10
511.2441887822
 20
257.7863547335
 10
509.7329179083
 20
258.5371484316
 10
508.3586502151
 20
259.3710780506
 10
507.1350437922
 20
260.2798556232
 10
506.0742593901
 20
261.2544493097
 10
505.1868395606
 20
262.2851731601
 10
504.4816038808
 20
263.3617833778
 10
503.9655612996
 20
264.4735801267
 10
503.6438404802
 20
265.6095138712
 10
503.5196388284
 20
266.7582951915
 10
503.5941907162
 20
267.9085069827
 10
503.8667552134
 20
269.0487179231
 10
504.3346234515
 20
270.1675960843
 10
504.9931455458
 20
271.2540215524
 10
505.8357768079
 20
272.297196943
 10
506.8541427898
 20
273.2867547104
 10
508.0381225127
 20
274.212860185
 10
509.3759490543
 20
275.0663093144
  0
LWPOLYLINE
  5
15B
330
1F
100
AcDbEntity
  8
0
  6
Continuous
 62
     7
370
    15
100
AcDbPolyline
 90
       35
 70
   128
 43
0.0
 10
551.0952491443
 20
287.7206350476
 10
551.9470713449
 20
288.1289761397
 10
552.9143638022
 20
288.4400062684
 10
553.9641865317
 20
288.6431336757
 10
555.0607890795
 20
288.7314411014
 10
556.1668279611
 20
288.7019213421
 10
557.2446383489
 20
288.5555796578
 10
558.2575167028
 20
288.2973995389
 10
559.1709706653
 20
287.9361729998
 10
559.9538936573
 20
287.484201177
 10
560.5796241753
 20
286.9568754289
 10
561.026853717
 20
286.3721532013
 10
561.2803524167
 20
285.7499465085
 10
561.3314876802
 20
285.1114438531
 10
561.1785181576
 20
284.4783886772
 10
560.8266530423
 20
283.8723389156
 10
560.287874679
 20
283.313932866
 10
559.5805305185
 20
282.8221863767
 10
558.728708318
 20
282.4138452846
 10
557.7614158606
 20
282.1028151559
 10
556.7115931311
 20
281.8996877486
 10
555.6149905833
 20
281.8113803228
 10
554.5089517017
 20
281.8409000822
 10
553.4311413139
 20
281.9872417665
 10
552.41826296
 20
282.2454218854
 10
551.5048089975
 20
282.6066484245
 10
550.7218860055
 20
283.0586202473
 10
550.0961554875
 20
283.5859459954
 10
549.6489259459
 20
284.170668223
 10
549.3954272462
 20
284.7928749158
 10
549.3442919826
 20
285.4313775712
 10
549.4972615053
 20
286.0644327471
 10
549.8491266205
 20
286.6704825087
 10
550.3879049838
 20
287.2288885583
 10
551.0952491443
 20
287.7206350476
  0
LWPOLYLINE
  5
15C
330
1F
100
AcDbEntity
  8
0
  6
Continuous
 62
     7
370
    15
100
AcDbPolyline
 90
       23
 70
   128
 43
0.0
 10
498.7693473365
 20
244.451005121
 10
497.6910561897
 20
243.9116194661
 10
496.4907693918
 20
243.4663127218
 10
495.1929213206
 20
243.1241500493
 10
493.8239324202
 20
242.8920968938
 10
492.4116713566
 20
242.7748771885
 10
490.9848876926
 20
242.7748771885
 10
489.5726266291
 20
242.8920968938
 10
488.2036377286
 20
243.1241500493
 10
486.9057896574
 20
243.4663127218
 10
485.7055028595
 20
243.9116194661
 10
484.6272117128
 20
244.451005121
 10
483.6928671154
 20
245.0734893501
 10
482.921489629
 20
245.7664001695
 10
482.3287822746
 20
246.5156319132
 10
481.9268108649
 20
247.3059323834
 10
481.7237583785
 20
248.1212133416
 10
481.7237583785
 20
248.9448780186
 10
481.9268108649
 20
249.7601589769
 10
482.3287822746
 20
250.5504594471
 10
482.921489629
 20
251.2996911908
 10
483.6928671154
 20
251.9926020102
 10
484.6272117128
 20
252.6150862392
  0
LINE
  5
15D
330
1F
100
AcDbEntity
  8
0
  6
Continuous
 62
     7
370
    15
100
AcDbLine
 10
499.113956093
 20
274.3589369882
 30
0.0
 11
484.6272117128
 21
252.6150862392
 31
0.0
  0
ARC
  5
15E
330
1F
100
AcDbEntity
  8
0
  6
Continuous
 62
     7
370
    15
100
AcDbCircle
 10
513.4726525371
 20
262.7513956968
 30
0.0
 40
18.46367185597712
100
AcDbArc
 50
98.9466280094
 51
141.0479954579
  0
LINE
  5
15F
330
1F
100
AcDbEntity
  8
0
  6
Continuous
 62
     7
370
    15
100
AcDbLine
 10
548.2668220196
 20
289.3534512713
 30
0.0
 11
510.6012866309
 21
280.9904317524
 31
0.0
  0
LWPOLYLINE
  5
160
330
1F
100
AcDbEntity
  8
0
  6
Continuous
 62
     7
370
    15
100
AcDbPolyline
 90
       23
 70
   128
 43
0.0
 10
562.4089576433
 20
281.189370153
 10
563.3433022407
 20
281.8118543821
 10
564.1146797271
 20
282.5047652015
 10
564.7073870814
 20
283.2539969452
 10
565.1093584911
 20
284.0442974154
 10
565.3124109775
 20
284.8595783736
 10
565.3124109775
 20
285.6832430507
 10
565.1093584911
 20
286.4985240089
 10
564.7073870814
 20
287.2888244791
 10
564.1146797271
 20
288.0380562228
 10
563.3433022407
 20
288.7309670422
 10
562.4089576433
 20
289.3534512713
 10
561.3306664965
 20
289.8928369262
 10
560.1303796986
 20
290.3381436705
 10
558.8325316274
 20
290.680306343
 10
557.4635427269
 20
290.9123594984
 10
556.0512816634
 20
291.0295792037
 10
554.6244979994
 20
291.0295792037
 10
553.2122369359
 20
290.9123594984
 10
551.8432480354
 20
290.680306343
 10
550.5453999642
 20
290.3381436705
 10
549.3451131663
 20
289.8928369262
 10
548.2668220196
 20
289.3534512713
  0
LINE
  5
161
330
1F
100
AcDbEntity
  8
0
  6
Continuous
 62
     7
370
    15
100
AcDbLine
 10
547.922213263
 20
259.445519404
 30
0.0
 11
562.4089576433
 21
281.189370153
 31
0.0
  0
ARC
  5
162
330
1F
100
AcDbEntity
  8
0
  6
Continuous
 62
     7
370
    15
100
AcDbCircle
 10
533.563516819
 20
271.0530606955
 30
0.0
 40
18.463671855977
100
AcDbArc
 50
278.9466280094
 51
321.047995458
  0
LINE
  5
163
330
1F
100
AcDbEntity
  8
0
  6
Continuous
 62
     7
370
    15
100
AcDbLine
 10
498.7693473365
 20
244.451005121
 30
0.0
 11
536.4348827251
 21
252.8140246399
 31
0.0
  0
LINE
  5
164
330
1F
100
AcDbEntity
  8
0
  6
Continuous
 62
     7
370
    15
100
AcDbLine
 10
548.2668220196
 20
299.1519410139
 30
0.0
 11
548.2668220196
 21
289.3534512713
 31
0.0
  0
LINE
  5
165
330
1F
100
AcDbEntity
  8
0
  6
Continuous
 62
     7
370
    15
100
AcDbLine
 10
510.6012866309
 20
290.788921495
 30
0.0
 11
510.6012866309
 21
280.9904317524
 31
0.0
  0
LINE
  5
166
330
1F
100
AcDbEntity
  8
0
  6
Continuous
 62
     7
370
    15
100
AcDbLine
 10
548.2668220196
 20
299.1519410139
 30
0.0
 11
510.6012866309
 21
290.788921495
 31
0.0
  0
LWPOLYLINE
  5
167
330
1F
100
AcDbEntity
  8
0
  6
Continuous
 62
     7
370
    15
100
AcDbPolyline
 90
       40
 70
   128
 43
0.0
 10
467.9385646445
 20
440.0837140131
 10
467.0737857082
 20
440.2372294265
 10
465.3935683812
 20
440.3874661747
 10
463.6477326342
 20
440.3568978002
 10
461.8453804466
 20
440.1456836721
 10
459.995908448
 20
439.7549249632
 10
458.1089589292
 20
439.1866589085
 10
456.194369571
 20
438.443848184
 10
454.2621221561
 20
437.5303654609
 10
452.3222905276
 20
436.4509732151
 10
450.3849880694
 20
435.2112988981
 10
448.4603149796
 20
433.8178055977
 10
446.5583056124
 20
432.2777583427
 10
444.688876164
 20
430.5991862264
 10
442.8617729739
 20
428.7908405466
 10
441.0865217122
 20
426.8621491804
 10
439.3723777168
 20
424.8231674314
 10
437.728277741
 20
422.6845256064
 10
436.1627933606
 20
420.4573735936
 10
434.6840862863
 20
418.1533227323
 10
433.2998658123
 20
415.7843852769
 10
432.017348623
 20
413.3629117704
 10
430.8432211692
 20
410.9015266544
 10
429.7836048079
 20
408.4130624511
 10
428.844023888
 20
405.9104928607
 10
428.0293769495
 20
403.4068651223
 10
427.3439111842
 20
400.9152319916
 10
426.7912002934
 20
398.44858369
 10
426.3741258555
 20
396.0197801797
 10
426.0948623037
 20
393.6414841174
 10
425.9548655888
 20
391.3260948377
 10
425.9548655888
 20
389.0856837082
 10
426.0948623037
 20
386.931931195
 10
426.3741258555
 20
384.8760659666
 10
426.7912002934
 20
382.9288063522
 10
427.3439111842
 20
381.1003044619
 10
428.0293769495
 20
379.4000932579
 10
428.844023888
 20
377.837036854
 10
429.7836048079
 20
376.4192843027
 10
430.6051806623
 20
375.4133889731
  0
LWPOLYLINE
  5
168
330
1F
100
AcDbEntity
  8
0
  6
Continuous
 62
     7
370
    15
100
AcDbPolyline
 90
       18
 70
   128
 43
0.0
 10
565.3378898314
 20
295.0699004548
 10
565.3124109775
 20
295.4817327933
 10
565.1093584911
 20
296.2970137515
 10
564.7073870814
 20
297.0873142217
 10
564.1146797271
 20
297.8365459654
 10
563.3433022407
 20
298.5294567848
 10
562.4089576433
 20
299.1519410139
 10
561.3306664965
 20
299.6913266688
 10
560.1303796986
 20
300.1366334131
 10
558.8325316274
 20
300.4787960856
 10
557.4635427269
 20
300.7108492411
 10
556.0512816634
 20
300.8280689464
 10
554.6244979994
 20
300.8280689464
 10
553.2122369359
 20
300.7108492411
 10
551.8432480354
 20
300.4787960856
 10
550.5453999642
 20
300.1366334131
 10
549.3451131663
 20
299.6913266688
 10
548.2668220196
 20
299.1519410139
  0
LWPOLYLINE
  5
169
330
1F
100
AcDbEntity
  8
0
  6
Continuous
 62
     7
370
    15
100
AcDbPolyline
 90
       12
 70
   128
 43
0.0
 10
506.5475219295
 20
412.2387961081
 10
506.4778793143
 20
414.6551911972
 10
506.2692496889
 20
416.9808312595
 10
505.9225264374
 20
419.2057575472
 10
505.439194282
 20
421.3204425844
 10
504.8213229253
 20
423.315830965
 10
504.0715581871
 20
425.1833781298
 10
503.1931106753
 20
426.915086955
 10
502.189742037
 20
428.5035419976
 10
501.0657488506
 20
429.9419412492
 10
499.8259442276
 20
431.2241252634
 10
499.518084678
 20
431.5023942769
  0
ARC
  5
16A
330
1F
100
AcDbEntity
  8
0
  6
Continuous
 62
     7
370
    15
100
AcDbCircle
 10
453.2810614318
 20
393.4554772888
 30
0.0
 40
42.90107980742616
100
AcDbArc
 50
285.2219093875
 51
314.7727140798
  0
ARC
  5
16B
330
1F
100
AcDbEntity
  8
0
  6
Continuous
 62
     7
370
    15
100
AcDbCircle
 10
442.9902656117
 20
413.9601718126
 30
0.0
 40
63.58056279213787
100
AcDbArc
 50
332.6752632524
 51
358.4485885084
  0
LINE
  5
16C
330
1F
100
AcDbEntity
  8
0
  6
Continuous
 62
     7
370
    15
100
AcDbLine
 10
499.113956093
 20
274.3589369882
 30
0.0
 11
499.113956093
 21
284.1574267309
 31
0.0
  0
ARC
  5
16D
330
1F
100
AcDbEntity
  8
0
  6
Continuous
 62
     7
370
    15
100
AcDbCircle
 10
513.4726525371
 20
272.5498854394
 30
0.0
 40
18.46367185597673
100
AcDbArc
 50
98.9466280094
 51
141.047995458
  0
LWPOLYLINE
  5
16E
330
1F
100
AcDbEntity
  8
0
  6
Continuous
 62
     7
370
    15
100
AcDbPolyline
 90
       27
 70
   128
 43
0.0
 10
506.5475219295
 20
449.8057776578
 10
508.1610494302
 20
450.6560670802
 10
509.9018301614
 20
451.41813056
 10
511.7554394658
 20
452.085653399
 10
513.7065177529
 20
452.6531042928
 10
515.7388977735
 20
453.1157811646
 10
517.8357385868
 20
453.4698501281
 10
519.9796651094
 20
453.7123772565
 10
522.152912091
 20
453.8413528934
 10
524.3374713225
 20
453.8557083062
 10
526.5152408582
 20
453.7553245414
 10
528.6681750139
 20
453.5410334104
 10
530.7784338992
 20
453.2146105972
 10
532.8285312442
 20
452.7787609439
 10
534.8014792968
 20
452.237096038
 10
536.680929588
 20
451.5941042855
 10
538.4513084008
 20
450.8551137185
 10
540.0979458189
 20
450.0262478457
 10
541.6071972859
 20
449.1143749108
 10
542.9665566689
 20
448.1270509799
 10
544.1647598879
 20
447.0724573302
 10
545.1918782538
 20
445.9593326568
 10
546.0394007402
 20
444.7969006613
 10
546.700304509
 20
443.5947936213
 10
547.1691131032
 20
442.3629725743
 10
547.4419418274
 20
441.1116447775
 10
547.518084678
 20
440.0088803159
  0
ARC
  5
16F
330
1F
100
AcDbEntity
  8
0
  6
Continuous
 62
     7
370
    15
100
AcDbCircle
 10
511.5448196026
 20
438.799815315
 30
0.0
 40
12.08735666402031
100
AcDbArc
 50
114.4205984782
 51
174.2592605642
  0
LWPOLYLINE
  5
170
330
1F
100
AcDbEntity
  8
0
  6
Continuous
 62
     7
370
    15
100
AcDbPolyline
 90
       23
 70
   128
 43
0.0
 10
512.204376179
 20
391.0121852008
 10
512.1340644652
 20
389.1895464812
 10
511.9237119489
 20
387.3008305433
 10
511.5750616771
 20
385.3616878822
 10
511.0910026759
 20
383.3881868446
 10
510.4755460106
 20
381.3966804817
 10
509.7337915489
 20
379.4036710424
 10
508.871885702
 20
377.4256732306
 10
507.8969704931
 20
375.4790773591
 10
506.8171243767
 20
373.5800135343
 10
505.6412952978
 20
371.7442179972
 10
504.3792265464
 20
369.9869027278
 10
503.0413760218
 20
368.3226293938
 10
501.6388295746
 20
366.7651886882
 10
500.1832091464
 20
365.3274860553
 10
498.6865764666
 20
364.0214347517
 10
497.1613331049
 20
362.8578571299
 10
495.6201177081
 20
361.8463949606
 10
494.0757012724
 20
360.9954295379
 10
492.5408813188
 20
360.3120122291
 10
491.0283758488
 20
359.8018060455
 10
489.550717959
 20
359.469038716
 10
489.180206255
 20
359.4128360241
  0
ARC
  5
171
330
1F
100
AcDbEntity
  8
0
  6
Continuous
 62
     7
370
    15
100
AcDbCircle
 10
495.6392331255
 20
391.3690295862
 30
0.0
 40
16.56898615788419
100
AcDbArc
 50
358.7659318475
 51
21.1992470531
  0
LINE
  5
172
330
1F
100
AcDbEntity
  8
0
  6
Continuous
 62
     7
370
    15
100
AcDbLine
 10
484.6272117128
 20
262.4135759819
 30
0.0
 11
484.6272117128
 21
252.6150862392
 31
0.0
  0
LINE
  5
173
330
1F
100
AcDbEntity
  8
0
  6
Continuous
 62
     7
370
    15
100
AcDbLine
 10
499.113956093
 20
284.1574267309
 30
0.0
 11
484.6272117128
 21
262.4135759819
 31
0.0
  0
ELLIPSE
  5
174
330
1F
100
AcDbEntity
  8
0
  6
Continuous
 62
     7
370
    15
100
AcDbEllipse
 10
523.518084678
 20
364.8871256224
 30
0.0
 11
-25.02504477664132
 21
32.82132370017922
 31
0.0
210
0.0
220
0.0
230
1.0
 40
0.4717594622
 41
5.437283991857186
 42
5.44092621942592
  0
ARC
  5
175
330
1F
100
AcDbEntity
  8
0
  6
Continuous
 62
     7
370
    15
100
AcDbCircle
 10
486.6594814217
 20
257.8635894394
 30
0.0
 40
4.983221619266263
100
AcDbArc
 50
114.0681184713
 51
174.6117405711
  0
LWPOLYLINE
  5
176
330
1F
100
AcDbEntity
  8
0
  6
Continuous
 62
     8
370
    15
100
AcDbPolyline
 90
       27
 70
   128
 43
0.0
 10
472.5175141266
 20
422.7283327325
 10
471.898719181
 20
422.5507344806
 10
470.2470579953
 20
421.9610833913
 10
468.5748249375
 20
421.1986835435
 10
466.8937495211
 20
420.2688826242
 10
465.2156232821
 20
419.178202519
 10
463.5522170705
 20
417.934293565
 10
461.9151984857
 20
416.5458808899
 10
460.3160500368
 20
415.0227032109
 10
458.7659886012
 20
413.3754445251
 10
457.2758867462
 20
411.6156591687
 10
455.8561964657
 20
409.7556907714
 10
454.5168758669
 20
407.8085856752
 10
453.2673193215
 20
405.7880014235
 10
452.1162915709
 20
403.7081109628
 10
451.0718662477
 20
401.5835032304
 10
450.1413692453
 20
399.429080823
 10
449.3313273314
 20
397.2599554659
 10
448.6474223681
 20
395.0913420149
 10
448.0944514573
 20
392.9384517352
 10
447.6762932926
 20
390.8163856052
 10
447.3958809532
 20
388.7400283943
 10
447.2551813302
 20
386.7239442563
 10
447.2551813302
 20
384.7822745729
 10
447.3958809532
 20
382.9286387619
 10
447.6762932926
 20
381.1760387467
 10
447.9244142237
 20
380.1272182657
  0
ELLIPSE
  5
177
330
1F
100
AcDbEntity
  8
0
  6
Continuous
 62
     8
370
    15
100
AcDbEllipse
 10
523.518084678
 20
364.8871256224
 30
0.0
 11
23.82787496812421
 21
20.18071325514103
 31
0.0
210
0.0
220
0.0
230
1.0
 40
0.1421759202
 41
3.021755552521475
 42
5.377950042713854
  0
ELLIPSE
  5
178
330
1F
100
AcDbEntity
  8
0
  6
Continuous
 62
     8
370
    15
100
AcDbEllipse
 10
523.518084678
 20
364.8871256224
 30
0.0
 11
-15.91297158110189
 21
38.08310636556672
 31
0.0
210
0.0
220
0.0
230
1.0
 40
0.4717578661
 41
4.772914003975777
 42
6.226705543444692
  0
ELLIPSE
  5
179
330
1F
100
AcDbEntity
  8
0
  6
Continuous
 62
     8
370
    15
100
AcDbEllipse
 10
523.518084678
 20
364.8871256224
 30
0.0
 11
29.38971528818012
 21
10.54737887829833
 31
0.0
210
0.0
220
0.0
230
1.0
 40
0.1420457831
 41
0.9052000840558732
 42
3.260564402808178
  0
ELLIPSE
  5
17A
330
1F
100
AcDbEntity
  8
0
  6
Continuous
 62
     8
370
    15
100
AcDbEllipse
 10
523.518084678
 20
364.8871256224
 30
0.0
 11
-25.02504477664132
 21
32.82132370017922
 31
0.0
210
0.0
220
0.0
230
1.0
 40
0.4717594622
 41
4.651804564397629
 42
5.437283991857186
  0
LINE
  5
17B
330
1F
100
AcDbEntity
  8
0
  6
CENTERX2
 62
     7
100
AcDbLine
 10
712.1863719801
 20
316.8250899708
 30
0.0
 11
839.1241993294
 21
316.8250899708
 31
0.0
  0
LINE
  5
17C
330
1F
100
AcDbEntity
  8
0
  6
CENTERX2
 62
     7
100
AcDbLine
 10
839.1241993294
 20
316.8250899708
 30
0.0
 11
712.1863719801
 21
316.8250899708
 31
0.0
  0
LINE
  5
17D
330
1F
100
AcDbEntity
  8
0
  6
Continuous
 62
     7
100
AcDbLine
 10
712.1863719801
 20
316.8250899708
 30
0.0
 11
832.1863719801
 21
316.8250899708
 31
0.0
  0
LINE
  5
17E
330
1F
100
AcDbEntity
  8
0
  6
CENTERX2
 62
     7
100
AcDbLine
 10
832.1863719801
 20
316.8250899708
 30
0.0
 11
832.1863719801
 21
416.8250899708
 31
0.0
  0
LINE
  5
17F
330
1F
100
AcDbEntity
  8
0
  6
Continuous
 62
     7
370
    15
100
AcDbLine
 10
916.1863719801
 20
332.8250899708
 30
0.0
 11
924.1863719801
 21
332.8250899708
 31
0.0
  0
LINE
  5
180
330
1F
100
AcDbEntity
  8
0
  6
Continuous
 62
     7
370
    15
100
AcDbLine
 10
916.1863719801
 20
332.8250899708
 30
0.0
 11
916.1863719801
 21
330.8250899708
 31
0.0
  0
LINE
  5
181
330
1F
100
AcDbEntity
  8
0
  6
Continuous
 62
     7
370
    15
100
AcDbLine
 10
900.1863719801
 20
330.8250899708
 30
0.0
 11
916.1863719801
 21
330.8250899708
 31
0.0
  0
LINE
  5
182
330
1F
100
AcDbEntity
  8
0
  6
Continuous
 62
     7
370
    15
100
AcDbLine
 10
900.1863719801
 20
330.8250899708
 30
0.0
 11
900.1863719801
 21
324.8250899708
 31
0.0
  0
LINE
  5
183
330
1F
100
AcDbEntity
  8
0
  6
Continuous
 62
     7
370
    15
100
AcDbLine
 10
894.1863719801
 20
324.8250899708
 30
0.0
 11
900.1863719801
 21
324.8250899708
 31
0.0
  0
LINE
  5
184
330
1F
100
AcDbEntity
  8
0
  6
Continuous
 62
     7
370
    15
100
AcDbLine
 10
894.1863719801
 20
336.8250899708
 30
0.0
 11
894.1863719801
 21
324.8250899708
 31
0.0
  0
LINE
  5
185
330
1F
100
AcDbEntity
  8
0
  6
Continuous
 62
     7
370
    15
100
AcDbLine
 10
894.1863719801
 20
336.8250899708
 30
0.0
 11
852.1863719801
 21
336.8250899708
 31
0.0
  0
LINE
  5
186
330
1F
100
AcDbEntity
  8
0
  6
Continuous
 62
     7
370
    15
100
AcDbLine
 10
852.1863719801
 20
356.8250899708
 30
0.0
 11
852.1863719801
 21
336.8250899708
 31
0.0
  0
LINE
  5
187
330
1F
100
AcDbEntity
  8
0
  6
Continuous
 62
     7
370
    15
100
AcDbLine
 10
852.1863719801
 20
356.8250899708
 30
0.0
 11
860.5790173358
 21
396.3093820095
 31
0.0
  0
ARC
  5
188
330
1F
100
AcDbEntity
  8
0
  6
Continuous
 62
     7
370
    15
100
AcDbCircle
 10
909.4863973725
 20
385.9137974686
 30
0.0
 40
50.00000000000006
100
AcDbArc
 50
141.8133079197
 51
168.0
  0
LINE
  5
189
330
1F
100
AcDbEntity
  8
0
  6
Continuous
 62
     7
370
    15
100
AcDbLine
 10
870.1863719801
 20
416.8250899708
 30
0.0
 11
870.1863719801
 21
426.8250899708
 31
0.0
  0
LINE
  5
18A
330
1F
100
AcDbEntity
  8
0
  6
Continuous
 62
     7
370
    15
100
AcDbLine
 10
870.1863719801
 20
426.8250899708
 30
0.0
 11
892.1863719801
 21
426.8250899708
 31
0.0
  0
LINE
  5
18B
330
1F
100
AcDbEntity
  8
0
  6
Continuous
 62
     7
370
    15
100
AcDbLine
 10
892.1863719801
 20
416.8250899708
 30
0.0
 11
892.1863719801
 21
426.8250899708
 31
0.0
  0
LINE
  5
18C
330
1F
100
AcDbEntity
  8
0
  6
Continuous
 62
     7
370
    15
100
AcDbLine
 10
883.959874672
 20
416.8250899708
 30
0.0
 11
892.1863719801
 21
416.8250899708
 31
0.0
  0
LINE
  5
18D
330
1F
100
AcDbEntity
  8
0
  6
Continuous
 62
     7
370
    15
100
AcDbLine
 10
878.1863719801
 20
406.8250899708
 30
0.0
 11
883.959874672
 21
416.8250899708
 31
0.0
  0
LINE
  5
18E
330
1F
100
AcDbEntity
  8
0
  6
Continuous
 62
     7
370
    15
100
AcDbLine
 10
878.1863719801
 20
386.8250899708
 30
0.0
 11
878.1863719801
 21
406.8250899708
 31
0.0
  0
LINE
  5
18F
330
1F
100
AcDbEntity
  8
0
  6
Continuous
 62
     7
370
    15
100
AcDbLine
 10
873.5068800557
 20
386.8250899708
 30
0.0
 11
878.1863719801
 21
386.8250899708
 31
0.0
  0
LINE
  5
190
330
1F
100
AcDbEntity
  8
0
  6
Continuous
 62
     7
370
    15
100
AcDbLine
 10
856.1863719801
 20
356.8250899708
 30
0.0
 11
873.5068800557
 21
386.8250899708
 31
0.0
  0
LINE
  5
191
330
1F
100
AcDbEntity
  8
0
  6
Continuous
 62
     7
370
    15
100
AcDbLine
 10
856.1863719801
 20
350.8250899708
 30
0.0
 11
856.1863719801
 21
356.8250899708
 31
0.0
  0
ARC
  5
192
330
1F
100
AcDbEntity
  8
0
  6
Continuous
 62
     7
370
    15
100
AcDbCircle
 10
866.1863719801
 20
350.8250899708
 30
0.0
 40
10.0
100
AcDbArc
 50
180.0
 51
270.0
  0
LINE
  5
193
330
1F
100
AcDbEntity
  8
0
  6
Continuous
 62
     7
370
    15
100
AcDbLine
 10
924.1863719801
 20
340.8250899708
 30
0.0
 11
866.1863719801
 21
340.8250899708
 31
0.0
  0
LINE
  5
194
330
1F
100
AcDbEntity
  8
0
  6
Continuous
 62
     7
370
    15
100
AcDbLine
 10
924.1863719801
 20
340.8250899708
 30
0.0
 11
924.1863719801
 21
332.8250899708
 31
0.0
  0
LINE
  5
195
330
1F
100
AcDbEntity
  8
0
  6
Continuous
 62
     7
370
    15
100
AcDbLine
 10
798.1863719801
 20
340.8250899708
 30
0.0
 11
724.1863719801
 21
340.8250899708
 31
0.0
  0
LINE
  5
196
330
1F
100
AcDbEntity
  8
0
  6
Continuous
 62
     7
370
    15
100
AcDbLine
 10
724.1863719801
 20
292.8250899708
 30
0.0
 11
924.1863719801
 21
292.8250899708
 31
0.0
  0
LINE
  5
197
330
1F
100
AcDbEntity
  8
0
  6
Continuous
 62
     7
370
    15
100
AcDbLine
 10
924.1863719801
 20
300.8250899708
 30
0.0
 11
916.1863719801
 21
300.8250899708
 31
0.0
  0
LINE
  5
198
330
1F
100
AcDbEntity
  8
0
  6
Continuous
 62
     7
370
    15
100
AcDbLine
 10
924.1863719801
 20
300.8250899708
 30
0.0
 11
924.1863719801
 21
332.8250899708
 31
0.0
  0
LINE
  5
199
330
1F
100
AcDbEntity
  8
0
  6
Continuous
 62
     7
370
    15
100
AcDbLine
 10
894.1863719801
 20
308.8250899708
 30
0.0
 11
894.1863719801
 21
296.8250899708
 31
0.0
  0
LINE
  5
19A
330
1F
100
AcDbEntity
  8
0
  6
Continuous
 62
     7
370
    15
100
AcDbLine
 10
900.1863719801
 20
308.8250899708
 30
0.0
 11
894.1863719801
 21
308.8250899708
 31
0.0
  0
LINE
  5
19B
330
1F
100
AcDbEntity
  8
0
  6
Continuous
 62
     7
370
    15
100
AcDbLine
 10
900.1863719801
 20
308.8250899708
 30
0.0
 11
900.1863719801
 21
302.8250899708
 31
0.0
  0
LINE
  5
19C
330
1F
100
AcDbEntity
  8
0
  6
Continuous
 62
     7
370
    15
100
AcDbLine
 10
916.1863719801
 20
302.8250899708
 30
0.0
 11
900.1863719801
 21
302.8250899708
 31
0.0
  0
LINE
  5
19D
330
1F
100
AcDbEntity
  8
0
  6
Continuous
 62
     7
370
    15
100
AcDbLine
 10
916.1863719801
 20
302.8250899708
 30
0.0
 11
916.1863719801
 21
300.8250899708
 31
0.0
  0
LINE
  5
19E
330
1F
100
AcDbEntity
  8
0
  6
Continuous
 62
     7
370
    15
100
AcDbLine
 10
724.1863719801
 20
292.8250899708
 30
0.0
 11
724.1863719801
 21
288.7114406415
 31
0.0
  0
LINE
  5
19F
330
1F
100
AcDbEntity
  8
0
  6
Continuous
 62
     7
370
    15
100
AcDbLine
 10
724.1863719801
 20
288.7114406415
 30
0.0
 11
712.1863719801
 21
288.7114406415
 31
0.0
  0
LINE
  5
1A0
330
1F
100
AcDbEntity
  8
0
  6
Continuous
 62
     7
370
    15
100
AcDbLine
 10
712.1863719801
 20
296.8250899708
 30
0.0
 11
712.1863719801
 21
288.7114406415
 31
0.0
  0
LINE
  5
1A1
330
1F
100
AcDbEntity
  8
0
  6
Continuous
 62
     7
370
    15
100
AcDbLine
 10
712.1863719801
 20
296.8250899708
 30
0.0
 11
894.1863719801
 21
296.8250899708
 31
0.0
  0
LINE
  5
1A2
330
1F
100
AcDbEntity
  8
0
  6
Continuous
 62
     7
370
    15
100
AcDbLine
 10
924.1863719801
 20
300.8250899708
 30
0.0
 11
924.1863719801
 21
292.8250899708
 31
0.0
  0
LINE
  5
1A3
330
1F
100
AcDbEntity
  8
0
  6
Continuous
 62
     7
370
    15
100
AcDbLine
 10
916.1863719801
 20
330.8250899708
 30
0.0
 11
916.1863719801
 21
302.8250899708
 31
0.0
  0
LINE
  5
1A4
330
1F
100
AcDbEntity
  8
0
  6
Continuous
 62
     7
370
    15
100
AcDbLine
 10
894.1863719801
 20
308.8250899708
 30
0.0
 11
894.1863719801
 21
324.8250899708
 31
0.0
  0
LINE
  5
1A5
330
1F
100
AcDbEntity
  8
0
  6
Continuous
 62
     7
370
    15
100
AcDbLine
 10
900.1863719801
 20
324.8250899708
 30
0.0
 11
900.1863719801
 21
308.8250899708
 31
0.0
  0
LINE
  5
1A6
330
1F
100
AcDbEntity
  8
0
  6
Continuous
 62
     7
370
    15
100
AcDbLine
 10
712.1863719801
 20
296.8250899708
 30
0.0
 11
712.1863719801
 21
336.8250899708
 31
0.0
  0
LINE
  5
1A7
330
1F
100
AcDbEntity
  8
0
  6
Continuous
 62
     7
370
    15
100
AcDbLine
 10
812.1863719801
 20
336.8250899708
 30
0.0
 11
712.1863719801
 21
336.8250899708
 31
0.0
  0
LINE
  5
1A8
330
1F
100
AcDbEntity
  8
0
  6
Continuous
 62
     7
370
    15
100
AcDbLine
 10
812.1863719801
 20
336.8250899708
 30
0.0
 11
832.1863719801
 21
316.8250899708
 31
0.0
  0
LINE
  5
1A9
330
1F
100
AcDbEntity
  8
0
  6
Continuous
 62
     7
370
    15
100
AcDbLine
 10
832.1863719801
 20
316.8250899708
 30
0.0
 11
852.1863719801
 21
336.8250899708
 31
0.0
  0
LINE
  5
1AA
330
1F
100
AcDbEntity
  8
0
  6
Continuous
 62
     7
370
    15
100
AcDbLine
 10
780.4128692882
 20
416.8250899708
 30
0.0
 11
786.1863719801
 21
406.8250899708
 31
0.0
  0
LINE
  5
1AB
330
1F
100
AcDbEntity
  8
0
  6
Continuous
 62
     7
370
    15
100
AcDbLine
 10
786.1863719801
 20
406.8250899708
 30
0.0
 11
786.1863719801
 21
386.8250899708
 31
0.0
  0
LINE
  5
1AC
330
1F
100
AcDbEntity
  8
0
  6
Continuous
 62
     7
370
    15
100
AcDbLine
 10
790.8658639044
 20
386.8250899708
 30
0.0
 11
808.1863719801
 21
356.8250899708
 31
0.0
  0
ARC
  5
1AD
330
1F
100
AcDbEntity
  8
0
  6
Continuous
 62
     7
370
    15
100
AcDbCircle
 10
754.8863465876
 20
385.9137974686
 30
0.0
 40
50.00000000000006
100
AcDbArc
 50
12.0
 51
38.1866920803
  0
LINE
  5
1AE
330
1F
100
AcDbEntity
  8
0
  6
Continuous
 62
     7
370
    15
100
AcDbLine
 10
870.1863719801
 20
416.8250899708
 30
0.0
 11
794.1863719801
 21
416.8250899708
 31
0.0
  0
LINE
  5
1AF
330
1F
100
AcDbEntity
  8
0
  6
Continuous
 62
     7
370
    15
100
AcDbLine
 10
860.5790173358
 20
396.3093820095
 30
0.0
 11
803.7937266243
 21
396.3093820095
 31
0.0
  0
LINE
  5
1B0
330
1F
100
AcDbEntity
  8
0
  6
Continuous
 62
     7
370
    15
100
AcDbLine
 10
794.1863719801
 20
426.8250899708
 30
0.0
 11
794.1863719801
 21
416.8250899708
 31
0.0
  0
LINE
  5
1B1
330
1F
100
AcDbEntity
  8
0
  6
Continuous
 62
     7
370
    15
100
AcDbLine
 10
870.1863719801
 20
426.8250899708
 30
0.0
 11
794.1863719801
 21
426.8250899708
 31
0.0
  0
LINE
  5
1B2
330
1F
100
AcDbEntity
  8
0
  6
Continuous
 62
     7
370
    15
100
AcDbLine
 10
803.7937266243
 20
396.3093820095
 30
0.0
 11
812.1863719801
 21
356.8250899708
 31
0.0
  0
LINE
  5
1B3
330
1F
100
AcDbEntity
  8
0
  6
Continuous
 62
     7
370
    15
100
AcDbLine
 10
852.1863719801
 20
356.8250899708
 30
0.0
 11
812.1863719801
 21
356.8250899708
 31
0.0
  0
LINE
  5
1B4
330
1F
100
AcDbEntity
  8
0
  6
Continuous
 62
     7
370
    15
100
AcDbLine
 10
808.1863719801
 20
356.8250899708
 30
0.0
 11
808.1863719801
 21
350.8250899708
 31
0.0
  0
LINE
  5
1B5
330
1F
100
AcDbEntity
  8
0
  6
Continuous
 62
     7
370
    15
100
AcDbLine
 10
812.1863719801
 20
336.8250899708
 30
0.0
 11
812.1863719801
 21
356.8250899708
 31
0.0
  0
ARC
  5
1B6
330
1F
100
AcDbEntity
  8
0
  6
Continuous
 62
     7
370
    15
100
AcDbCircle
 10
798.1863719801
 20
350.8250899708
 30
0.0
 40
10.0
100
AcDbArc
 50
270.0
 51
0.0
  0
LINE
  5
1B7
330
1F
100
AcDbEntity
  8
0
  6
Continuous
 62
     7
370
    15
100
AcDbLine
 10
758.1863719801
 20
426.8250899708
 30
0.0
 11
758.1863719801
 21
416.8250899708
 31
0.0
  0
LINE
  5
1B8
330
1F
100
AcDbEntity
  8
0
  6
Continuous
 62
     7
370
    15
100
AcDbLine
 10
712.1863719801
 20
344.9387393001
 30
0.0
 11
712.1863719801
 21
336.8250899708
 31
0.0
  0
LINE
  5
1B9
330
1F
100
AcDbEntity
  8
0
  6
Continuous
 62
     7
370
    15
100
AcDbLine
 10
712.1863719801
 20
344.9387393001
 30
0.0
 11
724.1863719801
 21
344.9387393001
 31
0.0
  0
LINE
  5
1BA
330
1F
100
AcDbEntity
  8
0
  6
Continuous
 62
     7
370
    15
100
AcDbLine
 10
724.1863719801
 20
344.9387393001
 30
0.0
 11
724.1863719801
 21
340.8250899708
 31
0.0
  0
LINE
  5
1BB
330
1F
100
AcDbEntity
  8
0
  6
Continuous
 62
     7
370
    15
100
AcDbLine
 10
786.1863719801
 20
386.8250899708
 30
0.0
 11
790.8658639044
 21
386.8250899708
 31
0.0
  0
LINE
  5
1BC
330
1F
100
AcDbEntity
  8
0
  6
Continuous
 62
     7
370
    15
100
AcDbLine
 10
758.1863719801
 20
416.8250899708
 30
0.0
 11
780.4128692882
 21
416.8250899708
 31
0.0
  0
LINE
  5
1BD
330
1F
100
AcDbEntity
  8
0
  6
Continuous
 62
     7
370
    15
100
AcDbLine
 10
758.1863719801
 20
426.8250899708
 30
0.0
 11
794.1863719801
 21
426.8250899708
 31
0.0
  0
HATCH
  5
1BE
330
1F
100
AcDbEntity
  8
0
  6
Continuous
 62
     7
370
     0
100
AcDbHatch
 10
0.0
 20
0.0
 30
0.0
210
0.0
220
0.0
230
1.0
  2
ANSI38
 70
     0
 71
     0
 91
        1
 92
        0
 93
       18
 72
     1
 10
790.8658639043718
 20
386.8250899707936
 11
808.1863719800606
 21
356.8250899707937
 72
     1
 10
808.1863719800606
 20
356.8250899707937
 11
808.1863719800606
 21
350.8250899707936
 72
     2
 10
798.1863719800606
 20
350.8250899707936
 40
10.0
 50
0.0000000000003257
 51
90.0
 73
     0
 72
     1
 10
798.1863719800606
 20
340.8250899707936
 11
724.1863719800606
 21
340.8250899707938
 72
     1
 10
724.1863719800606
 20
340.8250899707938
 11
724.1863719800606
 21
344.9387393001359
 72
     1
 10
724.1863719800606
 20
344.9387393001359
 11
712.1863719800605
 21
344.9387393001359
 72
     1
 10
712.1863719800605
 20
344.9387393001359
 11
712.1863719800605
 21
336.8250899707939
 72
     1
 10
712.1863719800605
 20
336.8250899707939
 11
812.1863719800606
 21
336.8250899707935
 72
     1
 10
812.1863719800606
 20
336.8250899707935
 11
812.1863719800606
 21
356.8250899707924
 72
     1
 10
812.1863719800606
 20
356.8250899707924
 11
803.7937266243396
 21
396.3093820094933
 72
     2
 10
754.8863465876492
 20
385.9137974686056
 40
50.0
 50
11.99999999999966
 51
38.18669208034197
 73
     1
 72
     1
 10
794.1863719800607
 20
416.8250899707936
 11
794.1863719800608
 21
426.8250899707936
 72
     1
 10
794.1863719800608
 20
426.8250899707936
 11
758.1863719800609
 21
426.8250899707937
 72
     1
 10
758.1863719800609
 20
426.8250899707937
 11
758.1863719800608
 21
416.8250899707937
 72
     1
 10
758.1863719800608
 20
416.8250899707937
 11
780.4128692881644
 21
416.8250899707937
 72
     1
 10
780.4128692881644
 20
416.8250899707937
 11
786.1863719800608
 21
406.8250899707936
 72
     1
 10
786.1863719800608
 20
406.8250899707936
 11
786.1863719800607
 21
386.8250899707936
 72
     1
 10
786.1863719800607
 20
386.8250899707936
 11
790.8658639043718
 21
386.8250899707936
 97
        0
 75
     0
 76
     1
 52
0.0
 41
1.0
 77
     0
 78
     2
 53
45.0
 43
0.0
 44
0.0
 45
-2.245064030267288
 46
2.245064030267288
 79
     0
 53
135.0
 43
0.0
 44
0.0
 45
-6.735192090801864
 46
2.245064030267289
 79
     2
 49
7.9375
 49
-4.7625
 98
        1
 10
0.0
 20
0.0
  0
HATCH
  5
1BF
330
1F
100
AcDbEntity
  8
0
  6
Continuous
 62
     7
370
     0
100
AcDbHatch
 10
0.0
 20
0.0
 30
0.0
210
0.0
220
0.0
230
1.0
  2
ANSI38
 70
     0
 71
     0
 91
        1
 92
        0
 93
       22
 72
     1
 10
924.1863719800605
 20
332.8250899707932
 11
924.1863719800606
 21
340.8250899707932
 72
     1
 10
924.1863719800606
 20
340.8250899707932
 11
866.1863719800606
 21
340.8250899707934
 72
     2
 10
866.1863719800606
 20
350.8250899707934
 40
10.0
 50
90.0
 51
180.0
 73
     0
 72
     1
 10
856.1863719800606
 20
350.8250899707934
 11
856.1863719800607
 21
356.8250899707936
 72
     1
 10
856.1863719800607
 20
356.8250899707936
 11
873.5068800557497
 21
386.8250899707933
 72
     1
 10
873.5068800557497
 20
386.8250899707933
 11
878.1863719800607
 21
386.8250899707933
 72
     1
 10
878.1863719800607
 20
386.8250899707933
 11
878.1863719800608
 21
406.8250899707933
 72
     1
 10
878.1863719800608
 20
406.8250899707933
 11
883.9598746719571
 21
416.8250899707933
 72
     1
 10
883.9598746719571
 20
416.8250899707933
 11
892.1863719800608
 21
416.8250899707933
 72
     1
 10
892.1863719800608
 20
416.8250899707933
 11
892.1863719800609
 21
426.8250899707933
 72
     1
 10
892.1863719800609
 20
426.8250899707933
 11
870.1863719800609
 21
426.8250899707933
 72
     1
 10
870.1863719800609
 20
426.8250899707933
 11
870.186371980061
 21
416.8250899707934
 72
     2
 10
909.4863973724722
 20
385.913797468605
 40
50.0
 50
141.8133079196575
 51
167.9999999999999
 73
     1
 72
     1
 10
860.5790173357819
 20
396.309382009493
 11
852.1863719800606
 21
356.8250899707922
 72
     1
 10
852.1863719800606
 20
356.8250899707922
 11
852.1863719800606
 21
336.8250899707934
 72
     1
 10
852.1863719800606
 20
336.8250899707934
 11
894.1863719800606
 21
336.8250899707933
 72
     1
 10
894.1863719800606
 20
336.8250899707933
 11
894.1863719800605
 21
324.8250899707932
 72
     1
 10
894.1863719800605
 20
324.8250899707932
 11
900.1863719800605
 21
324.8250899707932
 72
     1
 10
900.1863719800605
 20
324.8250899707932
 11
900.1863719800606
 21
330.8250899707932
 72
     1
 10
900.1863719800606
 20
330.8250899707932
 11
916.1863719800605
 21
330.8250899707932
 72
     1
 10
916.1863719800605
 20
330.8250899707932
 11
916.1863719800605
 21
332.8250899707932
 72
     1
 10
916.1863719800605
 20
332.8250899707932
 11
924.1863719800605
 21
332.8250899707932
 97
        0
 75
     0
 76
     1
 52
0.0
 41
1.0
 77
     0
 78
     2
 53
45.0
 43
0.0
 44
0.0
 45
-2.245064030267288
 46
2.245064030267288
 79
     0
 53
135.0
 43
0.0
 44
0.0
 45
-6.735192090801864
 46
2.245064030267289
 79
     2
 49
7.9375
 49
-4.7625
 98
        1
 10
0.0
 20
0.0
  0
HATCH
  5
1C0
330
1F
100
AcDbEntity
  8
0
  6
Continuous
 62
     7
370
     0
100
AcDbHatch
 10
0.0
 20
0.0
 30
0.0
210
0.0
220
0.0
230
1.0
  2
ANSI38
 70
     0
 71
     0
 91
        1
 92
        0
 93
       12
 72
     1
 10
894.1863719800604
 20
296.8250899707933
 11
712.1863719800604
 21
296.8250899707939
 72
     1
 10
712.1863719800604
 20
296.8250899707939
 11
712.1863719800604
 21
288.7114406414519
 72
     1
 10
712.1863719800604
 20
288.7114406414519
 11
724.1863719800605
 21
288.7114406414519
 72
     1
 10
724.1863719800605
 20
288.7114406414519
 11
724.1863719800605
 21
292.8250899707939
 72
     1
 10
724.1863719800605
 20
292.8250899707939
 11
924.1863719800604
 21
292.8250899707932
 72
     1
 10
924.1863719800604
 20
292.8250899707932
 11
924.1863719800605
 21
300.8250899707932
 72
     1
 10
924.1863719800605
 20
300.8250899707932
 11
916.1863719800605
 21
300.8250899707932
 72
     1
 10
916.1863719800605
 20
300.8250899707932
 11
916.1863719800605
 21
302.8250899707932
 72
     1
 10
916.1863719800605
 20
302.8250899707932
 11
900.1863719800605
 21
302.8250899707932
 72
     1
 10
900.1863719800605
 20
302.8250899707932
 11
900.1863719800605
 21
308.8250899707932
 72
     1
 10
900.1863719800605
 20
308.8250899707932
 11
894.1863719800605
 21
308.8250899707933
 72
     1
 10
894.1863719800605
 20
308.8250899707933
 11
894.1863719800604
 21
296.8250899707933
 97
        0
 75
     0
 76
     1
 52
0.0
 41
1.0
 77
     0
 78
     2
 53
45.0
 43
0.0
 44
0.0
 45
-2.245064030267288
 46
2.245064030267288
 79
     0
 53
135.0
 43
0.0
 44
0.0
 45
-6.735192090801864
 46
2.245064030267289
 79
     2
 49
7.9375
 49
-4.7625
 98
        1
 10
0.0
 20
0.0
  0
INSERT
  5
1C7
330
1F
100
AcDbEntity
  8
0
  6
Continuous
 62
     7
370
     0
100
AcDbBlockReference
  2
SW_NOTE_2
 10
794.5070969144
 20
263.5141730241
 30
0.0
  0
CIRCLE
  5
1C8
330
1F
100
AcDbEntity
  8
0
  6
Continuous
 62
     7
370
     0
100
AcDbCircle
 10
907.2213526436
 20
316.8250899708
 30
0.0
 40
47.70775308972793
  0
MTEXT
  5
1C9
330
1F
100
AcDbEntity
  8
0
  6
Continuous
 62
     7
370
     0
100
AcDbMText
 10
957.4914968021
 20
320.8616819291
 30
0.0
 40
6.35
 41
0.0
 71
     1
 72
     1
  1
B
  7
SLDTEXTSTYLE0
 73
     1
 44
1.0
  0
ARC
  5
1CA
330
1F
100
AcDbEntity
  8
0
  6
Continuous
 62
     7
370
     0
100
AcDbCircle
 10
866.6030592947
 20
672.856586866
 30
0.0
 40
95.41548921792965
100
AcDbArc
 50
149.7784020802
 51
210.2028468477
  0
LINE
  5
1CB
330
1F
100
AcDbEntity
  8
0
  6
Continuous
 62
     7
370
    15
100
AcDbLine
 10
884.5331117199
 20
704.8565896801
 30
0.0
 11
900.5331143425
 21
704.8565896801
 31
0.0
  0
LINE
  5
1CC
330
1F
100
AcDbEntity
  8
0
  6
Continuous
 62
     7
370
    15
100
AcDbLine
 10
884.5331117199
 20
704.8565896801
 30
0.0
 11
884.5331117199
 21
700.8565890245
 31
0.0
  0
LINE
  5
1CD
330
1F
100
AcDbEntity
  8
0
  6
Continuous
 62
     7
370
    15
100
AcDbLine
 10
852.5331213759
 20
700.8565890245
 30
0.0
 11
884.5331117199
 21
700.8565890245
 31
0.0
  0
LINE
  5
1CE
330
1F
100
AcDbEntity
  8
0
  6
Continuous
 62
     7
370
    15
100
AcDbLine
 10
852.5331213759
 20
700.8565890245
 30
0.0
 11
852.5331213759
 21
688.8565907828
 31
0.0
  0
LINE
  5
1CF
330
1F
100
AcDbEntity
  8
0
  6
Continuous
 62
     7
370
    15
100
AcDbLine
 10
840.5331119584
 20
688.8565907828
 30
0.0
 11
852.5331213759
 21
688.8565907828
 31
0.0
  0
LINE
  5
1D0
330
1F
100
AcDbEntity
  8
0
  6
Continuous
 62
     7
370
    15
100
AcDbLine
 10
840.5331119584
 20
712.8565872662
 30
0.0
 11
840.5331119584
 21
688.8565907828
 31
0.0
  0
LINE
  5
1D1
330
1F
100
AcDbEntity
  8
0
  6
Continuous
 62
     7
370
    15
100
AcDbLine
 10
840.5331119584
 20
712.8565872662
 30
0.0
 11
779.9767598198
 21
712.8565872662
 31
0.0
  0
LINE
  5
1D2
330
1F
100
AcDbEntity
  8
0
  6
Continuous
 62
     7
370
    15
100
AcDbLine
 10
784.5331176804
 20
720.8565885775
 30
0.0
 11
784.1559543894
 21
720.8835634045
 31
0.0
  0
LINE
  5
1D3
330
1F
100
AcDbEntity
  8
0
  6
Continuous
 62
     7
370
    15
100
AcDbLine
 10
900.5331143425
 20
720.8565885775
 30
0.0
 11
784.5331176804
 21
720.8565885775
 31
0.0
  0
LINE
  5
1D4
330
1F
100
AcDbEntity
  8
0
  6
Continuous
 62
     7
370
    15
100
AcDbLine
 10
900.5331143425
 20
720.8565885775
 30
0.0
 11
900.5331143425
 21
704.8565896801
 31
0.0
  0
LINE
  5
1D5
330
1F
100
AcDbEntity
  8
0
  6
Continuous
 62
     7
370
    15
100
AcDbLine
 10
784.1402411149
 20
624.8565951936
 30
0.0
 11
900.5331143425
 21
624.8565951936
 31
0.0
  0
LINE
  5
1D6
330
1F
100
AcDbEntity
  8
0
  6
Continuous
 62
     7
370
    15
100
AcDbLine
 10
900.5331143425
 20
640.8565903656
 30
0.0
 11
884.5331117199
 21
640.8565903656
 31
0.0
  0
LINE
  5
1D7
330
1F
100
AcDbEntity
  8
0
  6
Continuous
 62
     7
370
    15
100
AcDbLine
 10
900.5331143425
 20
640.8565903656
 30
0.0
 11
900.5331143425
 21
704.8565896801
 31
0.0
  0
LINE
  5
1D8
330
1F
100
AcDbEntity
  8
0
  6
Continuous
 62
     7
370
    15
100
AcDbLine
 10
840.5331119584
 20
656.8565855376
 30
0.0
 11
840.5331119584
 21
632.8565890543
 31
0.0
  0
LINE
  5
1D9
330
1F
100
AcDbEntity
  8
0
  6
Continuous
 62
     7
370
    15
100
AcDbLine
 10
852.5331213759
 20
656.8565855376
 30
0.0
 11
840.5331119584
 21
656.8565855376
 31
0.0
  0
LINE
  5
1DA
330
1F
100
AcDbEntity
  8
0
  6
Continuous
 62
     7
370
    15
100
AcDbLine
 10
852.5331213759
 20
656.8565855376
 30
0.0
 11
852.5331213759
 21
644.8565910212
 31
0.0
  0
LINE
  5
1DB
330
1F
100
AcDbEntity
  8
0
  6
Continuous
 62
     7
370
    15
100
AcDbLine
 10
884.5331117199
 20
644.8565910212
 30
0.0
 11
852.5331213759
 21
644.8565910212
 31
0.0
  0
LINE
  5
1DC
330
1F
100
AcDbEntity
  8
0
  6
Continuous
 62
     7
370
    15
100
AcDbLine
 10
884.5331117199
 20
644.8565910212
 30
0.0
 11
884.5331117199
 21
640.8565903656
 31
0.0
  0
LINE
  5
1DD
330
1F
100
AcDbEntity
  8
0
  6
Continuous
 62
     7
370
    15
100
AcDbLine
 10
779.9767598198
 20
632.8565890543
 30
0.0
 11
840.5331119584
 21
632.8565890543
 31
0.0
  0
LINE
  5
1DE
330
1F
100
AcDbEntity
  8
0
  6
Continuous
 62
     7
370
    15
100
AcDbLine
 10
900.5331143425
 20
640.8565903656
 30
0.0
 11
900.5331143425
 21
624.8565951936
 31
0.0
  0
LINE
  5
1DF
330
1F
100
AcDbEntity
  8
0
  6
Continuous
 62
     7
370
    15
100
AcDbLine
 10
884.5331117199
 20
700.8565890245
 30
0.0
 11
884.5331117199
 21
644.8565910212
 31
0.0
  0
LINE
  5
1E0
330
1F
100
AcDbEntity
  8
0
  6
Continuous
 62
     7
370
    15
100
AcDbLine
 10
840.5331119584
 20
656.8565855376
 30
0.0
 11
840.5331119584
 21
688.8565907828
 31
0.0
  0
LINE
  5
1E1
330
1F
100
AcDbEntity
  8
0
  6
Continuous
 62
     7
370
    15
100
AcDbLine
 10
852.5331213759
 20
688.8565907828
 30
0.0
 11
852.5331213759
 21
656.8565855376
 31
0.0
  0
INSERT
  5
2AA
330
1F
100
AcDbEntity
  8
0
  6
Continuous
 62
     7
370
     0
100
AcDbBlockReference
  2
SW_HATCH_0
 10
784.9605425881
 20
720.8565885775
 30
0.0
  0
INSERT
  5
2B1
330
1F
100
AcDbEntity
  8
0
  6
Continuous
 62
     7
370
     0
100
AcDbBlockReference
  2
SW_NOTE_3
 10
810.3016435789
 20
592.3447593649
 30
0.0
  0
ENDSEC
  0
SECTION
  2
OBJECTS
  0
DICTIONARY
  5
C
330
0
100
AcDbDictionary
281
     1
  3
ACAD_GROUP
350
D
  3
ACAD_LAYOUT
350
1A
  3
ACAD_MLINESTYLE
350
17
  3
ACAD_PLOTSETTINGS
350
19
  3
ACAD_PLOTSTYLENAME
350
E
  0
DICTIONARY
  5
D
102
{ACAD_REACTORS
330
C
102
}
330
C
100
AcDbDictionary
281
     1
  0
DICTIONARY
  5
1A
102
{ACAD_REACTORS
330
C
102
}
330
C
100
AcDbDictionary
281
     1
  3
Layout1
350
1E
  3
Layout2
350
26
  3
Model
350
22
  0
DICTIONARY
  5
17
102
{ACAD_REACTORS
330
C
102
}
330
C
100
AcDbDictionary
281
     1
  3
Standard
350
18
  0
DICTIONARY
  5
19
102
{ACAD_REACTORS
330
C
102
}
330
C
100
AcDbDictionary
281
     1
  0
ACDBDICTIONARYWDFLT
  5
E
102
{ACAD_REACTORS
330
C
102
}
330
C
100
AcDbDictionary
281
     1
  3
Normal
350
F
100
AcDbDictionaryWithDefault
340
F
  0
LAYOUT
  5
1E
102
{ACAD_REACTORS
330
1A
102
}
330
1A
100
AcDbPlotSettings
  1

  2
none_device
  4

  6

 40
0.0
 41
0.0
 42
0.0
 43
0.0
 44
0.0
 45
0.0
 46
0.0
 47
0.0
 48
0.0
 49
0.0
140
0.0
141
0.0
142
1.0
143
1.0
 70
   688
 72
     0
 73
     0
 74
     5
  7

 75
    16
147
1.0
148
0.0
149
0.0
100
AcDbLayout
  1
Layout1
 70
     1
 71
     1
 10
0.0
 20
0.0
 11
420.0
 21
297.0
 12
0.0
 22
0.0
 32
0.0
 14
1.0000000000E+20
 24
1.0000000000E+20
 34
1.0000000000E+20
 15
-1.0000000000E+20
 25
-1.0000000000E+20
 35
-1.0000000000E+20
146
0.0
 13
0.0
 23
0.0
 33
0.0
 16
1.0
 26
0.0
 36
0.0
 17
0.0
 27
1.0
 37
0.0
 76
     0
330
1B
  0
LAYOUT
  5
26
102
{ACAD_REACTORS
330
1A
102
}
330
1A
100
AcDbPlotSettings
  1

  2
none_device
  4

  6

 40
0.0
 41
0.0
 42
0.0
 43
0.0
 44
0.0
 45
0.0
 46
0.0
 47
0.0
 48
0.0
 49
0.0
140
0.0
141
0.0
142
1.0
143
1.0
 70
   688
 72
     0
 73
     0
 74
     5
  7

 75
    16
147
1.0
148
0.0
149
0.0
100
AcDbLayout
  1
Layout2
 70
     1
 71
     2
 10
0.0
 20
0.0
 11
0.0
 21
0.0
 12
0.0
 22
0.0
 32
0.0
 14
0.0
 24
0.0
 34
0.0
 15
0.0
 25
0.0
 35
0.0
146
0.0
 13
0.0
 23
0.0
 33
0.0
 16
1.0
 26
0.0
 36
0.0
 17
0.0
 27
1.0
 37
0.0
 76
     0
330
23
  0
LAYOUT
  5
22
102
{ACAD_REACTORS
330
1A
102
}
330
1A
100
AcDbPlotSettings
  1

  2
none_device
  4

  6

 40
0.0
 41
0.0
 42
0.0
 43
0.0
 44
0.0
 45
0.0
 46
0.0
 47
0.0
 48
0.0
 49
0.0
140
0.0
141
0.0
142
1.0
143
1.0
 70
  1712
 72
     0
 73
     0
 74
     0
  7

 75
     0
147
1.0
148
0.0
149
0.0
100
AcDbLayout
  1
Model
 70
     1
 71
     0
 10
0.0
 20
0.0
 11
1189.0
 21
841.0
 12
0.0
 22
0.0
 32
0.0
 14
0.0
 24
0.0
 34
0.0
 15
1189.0
 25
841.0
 35
0.0
146
0.0
 13
0.0
 23
0.0
 33
0.0
 16
1.0
 26
0.0
 36
0.0
 17
0.0
 27
1.0
 37
0.0
 76
     0
330
1F
331
29
  0
MLINESTYLE
  5
18
102
{ACAD_REACTORS
330
17
102
}
330
17
100
AcDbMlineStyle
  2
Standard
 70
     0
  3

 62
   256
 51
90.0
 52
90.0
 71
     2
 49
0.5
 62
   256
  6
BYLAYER
 49
-0.5
 62
   256
  6
BYLAYER
  0
ACDBPLACEHOLDER
  5
F
102
{ACAD_REACTORS
330
E
102
}
330
E
  0
ENDSEC
  0
EOF
